<?xml version="1.0" encoding="utf-8" standalone="no"?>
<!DOCTYPE svg PUBLIC "-//W3C//DTD SVG 1.1//EN"
  "http://www.w3.org/Graphics/SVG/1.1/DTD/svg11.dtd">
<svg xmlns:xlink="http://www.w3.org/1999/xlink" width="777.90922pt" height="418.445156pt" viewBox="0 0 777.90922 418.445156" xmlns="http://www.w3.org/2000/svg" version="1.1">
 <metadata>
  <rdf:RDF xmlns:dc="http://purl.org/dc/elements/1.1/" xmlns:cc="http://creativecommons.org/ns#" xmlns:rdf="http://www.w3.org/1999/02/22-rdf-syntax-ns#">
   <cc:Work>
    <dc:type rdf:resource="http://purl.org/dc/dcmitype/StillImage"/>
    <dc:format>image/svg+xml</dc:format>
    <dc:creator>
     <cc:Agent>
      <dc:title>Matplotlib v3.10.8, https://matplotlib.org/</dc:title>
     </cc:Agent>
    </dc:creator>
   </cc:Work>
  </rdf:RDF>
 </metadata>
 <defs>
  <style type="text/css">*{stroke-linejoin: round; stroke-linecap: butt}</style>
 </defs>
 <g id="figure_1">
  <g id="patch_1">
   <path d="M 0 418.445156 
L 777.90922 418.445156 
L 777.90922 0 
L 0 0 
z
" style="fill: #ffffff"/>
  </g>
  <g id="axes_1">
   <g id="patch_2">
    <path d="M 39.55 379.745156 
L 593.272 379.745156 
L 593.272 29.626406 
L 39.55 29.626406 
z
" style="fill: #ffffff"/>
   </g>
   <g id="matplotlib.axis_1">
    <g id="xtick_1">
     <g id="line2d_1">
      <defs>
       <path id="m488b731406" d="M 0 0 
L 0 3.5 
" style="stroke: #000000; stroke-width: 0.8"/>
      </defs>
      <g>
       <use xlink:href="#m488b731406" x="117.359262" y="379.745156" style="stroke: #000000; stroke-width: 0.8"/>
      </g>
     </g>
     <g id="text_1">
      <!-- 100 -->
      <g transform="translate(109.034262 394.704531) scale(0.1 -0.1)">
       <defs>
        <path id="NotoSansCJKjp-Regular-31" d="M 563 0 
L 3136 0 
L 3136 486 
L 2195 486 
L 2195 4691 
L 1747 4691 
C 1491 4544 1190 4435 774 4358 
L 774 3987 
L 1613 3987 
L 1613 486 
L 563 486 
L 563 0 
z
" transform="scale(0.015625)"/>
        <path id="NotoSansCJKjp-Regular-30" d="M 1779 -83 
C 2669 -83 3238 723 3238 2362 
C 3238 3987 2669 4774 1779 4774 
C 883 4774 320 3987 320 2362 
C 320 723 883 -83 1779 -83 
z
M 1779 390 
C 1248 390 883 986 883 2362 
C 883 3731 1248 4314 1779 4314 
C 2310 4314 2675 3731 2675 2362 
C 2675 986 2310 390 1779 390 
z
" transform="scale(0.015625)"/>
       </defs>
       <use xlink:href="#NotoSansCJKjp-Regular-31"/>
       <use xlink:href="#NotoSansCJKjp-Regular-30" transform="translate(55.499985 0)"/>
       <use xlink:href="#NotoSansCJKjp-Regular-30" transform="translate(110.999969 0)"/>
      </g>
     </g>
    </g>
    <g id="xtick_2">
     <g id="line2d_2">
      <g>
       <use xlink:href="#m488b731406" x="219.531755" y="379.745156" style="stroke: #000000; stroke-width: 0.8"/>
      </g>
     </g>
     <g id="text_2">
      <!-- 120 -->
      <g transform="translate(211.206755 394.704531) scale(0.1 -0.1)">
       <defs>
        <path id="NotoSansCJKjp-Regular-32" d="M 282 0 
L 3232 0 
L 3232 506 
L 1933 506 
C 1696 506 1408 480 1165 461 
C 2266 1504 3008 2458 3008 3398 
C 3008 4230 2477 4774 1638 4774 
C 1043 4774 634 4506 256 4090 
L 595 3757 
C 858 4070 1184 4301 1568 4301 
C 2150 4301 2432 3910 2432 3373 
C 2432 2566 1754 1632 282 346 
L 282 0 
z
" transform="scale(0.015625)"/>
       </defs>
       <use xlink:href="#NotoSansCJKjp-Regular-31"/>
       <use xlink:href="#NotoSansCJKjp-Regular-32" transform="translate(55.499985 0)"/>
       <use xlink:href="#NotoSansCJKjp-Regular-30" transform="translate(110.999969 0)"/>
      </g>
     </g>
    </g>
    <g id="xtick_3">
     <g id="line2d_3">
      <g>
       <use xlink:href="#m488b731406" x="321.704248" y="379.745156" style="stroke: #000000; stroke-width: 0.8"/>
      </g>
     </g>
     <g id="text_3">
      <!-- 140 -->
      <g transform="translate(313.379248 394.704531) scale(0.1 -0.1)">
       <defs>
        <path id="NotoSansCJKjp-Regular-34" d="M 2176 0 
L 2726 0 
L 2726 1293 
L 3354 1293 
L 3354 1760 
L 2726 1760 
L 2726 4691 
L 2080 4691 
L 128 1677 
L 128 1293 
L 2176 1293 
L 2176 0 
z
M 2176 1760 
L 736 1760 
L 1805 3360 
C 1939 3590 2067 3827 2182 4051 
L 2208 4051 
C 2195 3814 2176 3430 2176 3200 
L 2176 1760 
z
" transform="scale(0.015625)"/>
       </defs>
       <use xlink:href="#NotoSansCJKjp-Regular-31"/>
       <use xlink:href="#NotoSansCJKjp-Regular-34" transform="translate(55.499985 0)"/>
       <use xlink:href="#NotoSansCJKjp-Regular-30" transform="translate(110.999969 0)"/>
      </g>
     </g>
    </g>
    <g id="xtick_4">
     <g id="line2d_4">
      <g>
       <use xlink:href="#m488b731406" x="423.876741" y="379.745156" style="stroke: #000000; stroke-width: 0.8"/>
      </g>
     </g>
     <g id="text_4">
      <!-- 160 -->
      <g transform="translate(415.551741 394.704531) scale(0.1 -0.1)">
       <defs>
        <path id="NotoSansCJKjp-Regular-36" d="M 1926 -83 
C 2656 -83 3277 531 3277 1440 
C 3277 2426 2765 2912 1971 2912 
C 1606 2912 1197 2701 909 2349 
C 934 3802 1466 4294 2118 4294 
C 2400 4294 2682 4154 2861 3936 
L 3194 4294 
C 2931 4576 2579 4774 2093 4774 
C 1184 4774 358 4077 358 2240 
C 358 691 1030 -83 1926 -83 
z
M 922 1882 
C 1229 2317 1587 2477 1875 2477 
C 2445 2477 2720 2074 2720 1440 
C 2720 800 2374 378 1926 378 
C 1338 378 986 909 922 1882 
z
" transform="scale(0.015625)"/>
       </defs>
       <use xlink:href="#NotoSansCJKjp-Regular-31"/>
       <use xlink:href="#NotoSansCJKjp-Regular-36" transform="translate(55.499985 0)"/>
       <use xlink:href="#NotoSansCJKjp-Regular-30" transform="translate(110.999969 0)"/>
      </g>
     </g>
    </g>
    <g id="xtick_5">
     <g id="line2d_5">
      <g>
       <use xlink:href="#m488b731406" x="526.049234" y="379.745156" style="stroke: #000000; stroke-width: 0.8"/>
      </g>
     </g>
     <g id="text_5">
      <!-- 180 -->
      <g transform="translate(517.724234 394.704531) scale(0.1 -0.1)">
       <defs>
        <path id="NotoSansCJKjp-Regular-38" d="M 1792 -83 
C 2669 -83 3258 448 3258 1126 
C 3258 1773 2880 2125 2470 2362 
L 2470 2394 
C 2746 2611 3091 3034 3091 3526 
C 3091 4250 2605 4762 1805 4762 
C 1075 4762 518 4282 518 3571 
C 518 3078 813 2726 1152 2490 
L 1152 2464 
C 723 2234 294 1792 294 1165 
C 294 442 922 -83 1792 -83 
z
M 2112 2547 
C 1555 2765 1050 3014 1050 3571 
C 1050 4026 1363 4326 1798 4326 
C 2298 4326 2592 3962 2592 3494 
C 2592 3149 2426 2829 2112 2547 
z
M 1798 352 
C 1235 352 813 717 813 1216 
C 813 1664 1082 2035 1459 2278 
C 2125 2010 2701 1779 2701 1146 
C 2701 678 2342 352 1798 352 
z
" transform="scale(0.015625)"/>
       </defs>
       <use xlink:href="#NotoSansCJKjp-Regular-31"/>
       <use xlink:href="#NotoSansCJKjp-Regular-38" transform="translate(55.499985 0)"/>
       <use xlink:href="#NotoSansCJKjp-Regular-30" transform="translate(110.999969 0)"/>
      </g>
     </g>
    </g>
    <g id="text_6">
     <!-- 运输完工时间（分钟） -->
     <g transform="translate(266.411 408.954531) scale(0.1 -0.1)">
      <defs>
       <path id="NotoSansCJKjp-Regular-8fd0" d="M 576 4998 
C 960 4787 1408 4448 1619 4198 
L 1958 4525 
C 1741 4774 1280 5094 896 5299 
L 576 4998 
z
M 326 3699 
C 730 3494 1210 3174 1434 2925 
L 1766 3270 
C 1530 3514 1043 3821 640 4013 
L 326 3699 
z
M 2458 5011 
L 2458 4557 
L 5677 4557 
L 5677 5011 
L 2458 5011 
z
M 1606 2400 
L 294 2400 
L 294 1952 
L 1139 1952 
L 1139 749 
C 832 480 493 218 211 19 
L 461 -461 
C 794 -179 1107 96 1402 371 
C 1811 -134 2394 -358 3238 -390 
C 3955 -416 5299 -403 6010 -371 
C 6035 -230 6112 -6 6170 109 
C 5402 58 3942 38 3232 64 
C 2483 96 1920 314 1606 781 
L 1606 2400 
z
M 4506 2490 
C 4749 2195 4998 1843 5216 1498 
L 3149 1338 
C 3392 1837 3667 2496 3885 3059 
L 6144 3059 
L 6144 3514 
L 2042 3514 
L 2042 3059 
L 3322 3059 
C 3155 2490 2893 1792 2662 1299 
L 2093 1261 
L 2170 781 
C 3021 858 4262 966 5453 1082 
C 5555 890 5638 710 5696 557 
L 6118 787 
C 5914 1312 5382 2099 4890 2682 
L 4506 2490 
z
" transform="scale(0.015625)"/>
       <path id="NotoSansCJKjp-Regular-8f93" d="M 4698 2861 
L 4698 544 
L 5075 544 
L 5075 2861 
L 4698 2861 
z
M 5510 3098 
L 5510 32 
C 5510 -38 5485 -58 5414 -64 
C 5331 -64 5075 -64 4781 -58 
C 4845 -173 4896 -346 4909 -454 
C 5286 -454 5542 -448 5696 -384 
C 5856 -314 5901 -198 5901 32 
L 5901 3098 
L 5510 3098 
z
M 454 2112 
C 506 2163 691 2202 896 2202 
L 1402 2202 
L 1402 1318 
C 973 1216 576 1126 269 1069 
L 378 614 
L 1402 877 
L 1402 -506 
L 1824 -506 
L 1824 986 
L 2355 1126 
L 2317 1530 
L 1824 1414 
L 1824 2202 
L 2336 2202 
L 2336 2643 
L 1824 2643 
L 1824 3616 
L 1402 3616 
L 1402 2643 
L 845 2643 
C 1011 3091 1171 3622 1299 4173 
L 2349 4173 
L 2349 4608 
L 1389 4608 
C 1440 4838 1478 5069 1510 5293 
L 1062 5370 
C 1037 5120 1005 4858 960 4608 
L 301 4608 
L 301 4173 
L 877 4173 
C 762 3642 640 3206 582 3040 
C 493 2752 416 2547 307 2515 
C 358 2406 429 2202 454 2112 
z
M 4218 5395 
C 3795 4723 3002 4090 2227 3731 
C 2342 3635 2470 3488 2541 3373 
C 2714 3462 2886 3565 3053 3674 
L 3053 3405 
L 5421 3405 
L 5421 3718 
C 5581 3622 5754 3526 5926 3437 
C 5984 3565 6118 3718 6234 3814 
C 5562 4102 4954 4467 4467 5011 
L 4608 5222 
L 4218 5395 
z
M 3238 3802 
C 3597 4064 3936 4371 4218 4698 
C 4544 4339 4896 4051 5286 3802 
L 3238 3802 
z
M 3930 2598 
L 3930 2093 
L 3053 2093 
L 3053 2598 
L 3930 2598 
z
M 2656 2982 
L 2656 -486 
L 3053 -486 
L 3053 832 
L 3930 832 
L 3930 -6 
C 3930 -64 3917 -77 3866 -83 
C 3802 -83 3635 -83 3437 -77 
C 3494 -192 3546 -365 3558 -474 
C 3834 -474 4032 -474 4166 -403 
C 4301 -333 4333 -211 4333 -6 
L 4333 2982 
L 2656 2982 
z
M 3053 1722 
L 3930 1722 
L 3930 1197 
L 3053 1197 
L 3053 1722 
z
" transform="scale(0.015625)"/>
       <path id="NotoSansCJKjp-Regular-5b8c" d="M 1459 3520 
L 1459 3078 
L 4941 3078 
L 4941 3520 
L 1459 3520 
z
M 358 2342 
L 358 1888 
L 2022 1888 
C 1907 915 1594 230 218 -115 
C 326 -211 454 -403 506 -525 
C 2010 -109 2394 717 2541 1888 
L 3661 1888 
L 3661 256 
C 3661 -256 3814 -397 4410 -397 
C 4531 -397 5274 -397 5395 -397 
C 5914 -397 6048 -179 6106 704 
C 5978 736 5773 813 5670 896 
C 5645 154 5606 45 5357 45 
C 5197 45 4582 45 4454 45 
C 4192 45 4147 77 4147 262 
L 4147 1888 
L 6035 1888 
L 6035 2342 
L 358 2342 
z
M 512 4691 
L 512 3334 
L 998 3334 
L 998 4230 
L 5382 4230 
L 5382 3334 
L 5894 3334 
L 5894 4691 
L 3437 4691 
L 3437 5376 
L 2931 5376 
L 2931 4691 
L 512 4691 
z
" transform="scale(0.015625)"/>
       <path id="NotoSansCJKjp-Regular-5de5" d="M 333 461 
L 333 -19 
L 6086 -19 
L 6086 461 
L 3450 461 
L 3450 4160 
L 5760 4160 
L 5760 4653 
L 666 4653 
L 666 4160 
L 2918 4160 
L 2918 461 
L 333 461 
z
" transform="scale(0.015625)"/>
       <path id="NotoSansCJKjp-Regular-65f6" d="M 3034 2893 
C 3373 2400 3808 1722 4013 1331 
L 4435 1574 
C 4218 1965 3776 2618 3430 3104 
L 3034 2893 
z
M 2074 2573 
L 2074 1114 
L 979 1114 
L 979 2573 
L 2074 2573 
z
M 2074 3002 
L 979 3002 
L 979 4403 
L 2074 4403 
L 2074 3002 
z
M 518 4838 
L 518 160 
L 979 160 
L 979 678 
L 2522 678 
L 2522 4838 
L 518 4838 
z
M 4890 5344 
L 4890 4096 
L 2816 4096 
L 2816 3622 
L 4890 3622 
L 4890 211 
C 4890 83 4838 38 4710 38 
C 4570 26 4096 26 3597 45 
C 3667 -96 3744 -314 3776 -448 
C 4416 -448 4826 -442 5056 -358 
C 5286 -282 5376 -141 5376 211 
L 5376 3622 
L 6157 3622 
L 6157 4096 
L 5376 4096 
L 5376 5344 
L 4890 5344 
z
" transform="scale(0.015625)"/>
       <path id="NotoSansCJKjp-Regular-95f4" d="M 582 3936 
L 582 -512 
L 1075 -512 
L 1075 3936 
L 582 3936 
z
M 678 5062 
C 973 4781 1306 4378 1453 4122 
L 1850 4378 
C 1696 4646 1350 5024 1050 5293 
L 678 5062 
z
M 2426 1888 
L 3962 1888 
L 3962 1024 
L 2426 1024 
L 2426 1888 
z
M 2426 3142 
L 3962 3142 
L 3962 2291 
L 2426 2291 
L 2426 3142 
z
M 1990 3546 
L 1990 627 
L 4416 627 
L 4416 3546 
L 1990 3546 
z
M 2253 5018 
L 2253 4563 
L 5350 4563 
L 5350 70 
C 5350 -13 5325 -38 5242 -45 
C 5158 -45 4896 -51 4627 -38 
C 4691 -160 4755 -365 4781 -480 
C 5171 -480 5446 -480 5619 -403 
C 5786 -320 5843 -198 5843 70 
L 5843 5018 
L 2253 5018 
z
" transform="scale(0.015625)"/>
       <path id="NotoSansCJKjp-Regular-ff08" d="M 4448 2432 
C 4448 1184 4954 166 5722 -614 
L 6106 -416 
C 5370 346 4915 1293 4915 2432 
C 4915 3571 5370 4518 6106 5280 
L 5722 5478 
C 4954 4698 4448 3680 4448 2432 
z
" transform="scale(0.015625)"/>
       <path id="NotoSansCJKjp-Regular-5206" d="M 2074 5248 
C 1677 4256 966 3373 147 2829 
C 262 2739 474 2554 563 2451 
C 1363 3059 2118 4019 2586 5101 
L 2074 5248 
z
M 4307 5261 
L 3846 5075 
C 4326 4122 5139 3085 5850 2509 
C 5939 2643 6118 2829 6253 2931 
C 5549 3424 4723 4397 4307 5261 
z
M 1197 2957 
L 1197 2490 
L 2509 2490 
C 2368 1402 2010 378 486 -122 
C 595 -224 736 -416 800 -544 
C 2445 51 2854 1216 3027 2490 
L 4685 2490 
C 4608 864 4512 224 4346 58 
C 4282 -6 4205 -26 4077 -26 
C 3923 -26 3533 -19 3110 19 
C 3200 -115 3258 -320 3270 -461 
C 3674 -486 4070 -493 4288 -474 
C 4506 -454 4653 -410 4781 -243 
C 5005 0 5094 736 5190 2726 
C 5197 2790 5197 2957 5197 2957 
L 1197 2957 
z
" transform="scale(0.015625)"/>
       <path id="NotoSansCJKjp-Regular-949f" d="M 4179 3558 
L 4179 2035 
L 3302 2035 
L 3302 3558 
L 4179 3558 
z
M 4653 3558 
L 5536 3558 
L 5536 2035 
L 4653 2035 
L 4653 3558 
z
M 4179 5363 
L 4179 4026 
L 2867 4026 
L 2867 1178 
L 3302 1178 
L 3302 1568 
L 4179 1568 
L 4179 -518 
L 4653 -518 
L 4653 1568 
L 5536 1568 
L 5536 1216 
L 5997 1216 
L 5997 4026 
L 4653 4026 
L 4653 5363 
L 4179 5363 
z
M 1152 5357 
C 960 4762 614 4186 230 3808 
C 307 3706 435 3462 480 3360 
C 704 3590 915 3878 1107 4198 
L 2656 4198 
L 2656 4640 
L 1344 4640 
C 1434 4832 1517 5037 1587 5235 
L 1152 5357 
z
M 384 2202 
L 384 1760 
L 1312 1760 
L 1312 467 
C 1312 166 1094 -26 973 -109 
C 1056 -192 1178 -365 1229 -467 
C 1331 -365 1517 -256 2733 378 
C 2694 480 2656 666 2643 794 
L 1773 358 
L 1773 1760 
L 2675 1760 
L 2675 2202 
L 1773 2202 
L 1773 3066 
L 2522 3066 
L 2522 3501 
L 717 3501 
L 717 3066 
L 1312 3066 
L 1312 2202 
L 384 2202 
z
" transform="scale(0.015625)"/>
       <path id="NotoSansCJKjp-Regular-ff09" d="M 1952 2432 
C 1952 3680 1446 4698 678 5478 
L 294 5280 
C 1030 4518 1485 3571 1485 2432 
C 1485 1293 1030 346 294 -416 
L 678 -614 
C 1446 166 1952 1184 1952 2432 
z
" transform="scale(0.015625)"/>
      </defs>
      <use xlink:href="#NotoSansCJKjp-Regular-8fd0"/>
      <use xlink:href="#NotoSansCJKjp-Regular-8f93" transform="translate(99.999985 0)"/>
      <use xlink:href="#NotoSansCJKjp-Regular-5b8c" transform="translate(199.999969 0)"/>
      <use xlink:href="#NotoSansCJKjp-Regular-5de5" transform="translate(299.999954 0)"/>
      <use xlink:href="#NotoSansCJKjp-Regular-65f6" transform="translate(399.999939 0)"/>
      <use xlink:href="#NotoSansCJKjp-Regular-95f4" transform="translate(499.999924 0)"/>
      <use xlink:href="#NotoSansCJKjp-Regular-ff08" transform="translate(599.999908 0)"/>
      <use xlink:href="#NotoSansCJKjp-Regular-5206" transform="translate(699.999893 0)"/>
      <use xlink:href="#NotoSansCJKjp-Regular-949f" transform="translate(799.999878 0)"/>
      <use xlink:href="#NotoSansCJKjp-Regular-ff09" transform="translate(899.999863 0)"/>
     </g>
    </g>
   </g>
   <g id="matplotlib.axis_2">
    <g id="ytick_1">
     <g id="line2d_6">
      <path d="M 39.55 358.659373 
L 593.272 358.659373 
" clip-path="url(#p69dedcd033)" style="fill: none; stroke: #b0b0b0; stroke-opacity: 0.16; stroke-width: 0.8; stroke-linecap: square"/>
     </g>
     <g id="line2d_7">
      <defs>
       <path id="m9c3ccdf3b7" d="M 0 0 
L -3.5 0 
" style="stroke: #000000; stroke-width: 0.8"/>
      </defs>
      <g>
       <use xlink:href="#m9c3ccdf3b7" x="39.55" y="358.659373" style="stroke: #000000; stroke-width: 0.8"/>
      </g>
     </g>
     <g id="text_7">
      <!-- 55 -->
      <g transform="translate(21.45 362.63906) scale(0.1 -0.1)">
       <defs>
        <path id="NotoSansCJKjp-Regular-35" d="M 1677 -83 
C 2464 -83 3213 499 3213 1523 
C 3213 2560 2573 3021 1798 3021 
C 1517 3021 1306 2950 1094 2835 
L 1216 4192 
L 2982 4192 
L 2982 4691 
L 704 4691 
L 550 2502 
L 864 2304 
C 1133 2483 1331 2579 1645 2579 
C 2234 2579 2618 2182 2618 1510 
C 2618 826 2176 403 1619 403 
C 1075 403 730 653 467 922 
L 173 538 
C 493 224 941 -83 1677 -83 
z
" transform="scale(0.015625)"/>
       </defs>
       <use xlink:href="#NotoSansCJKjp-Regular-35"/>
       <use xlink:href="#NotoSansCJKjp-Regular-35" transform="translate(55.499985 0)"/>
      </g>
     </g>
    </g>
    <g id="ytick_2">
     <g id="line2d_8">
      <path d="M 39.55 301.498049 
L 593.272 301.498049 
" clip-path="url(#p69dedcd033)" style="fill: none; stroke: #b0b0b0; stroke-opacity: 0.16; stroke-width: 0.8; stroke-linecap: square"/>
     </g>
     <g id="line2d_9">
      <g>
       <use xlink:href="#m9c3ccdf3b7" x="39.55" y="301.498049" style="stroke: #000000; stroke-width: 0.8"/>
      </g>
     </g>
     <g id="text_8">
      <!-- 60 -->
      <g transform="translate(21.45 305.477736) scale(0.1 -0.1)">
       <use xlink:href="#NotoSansCJKjp-Regular-36"/>
       <use xlink:href="#NotoSansCJKjp-Regular-30" transform="translate(55.499985 0)"/>
      </g>
     </g>
    </g>
    <g id="ytick_3">
     <g id="line2d_10">
      <path d="M 39.55 244.336725 
L 593.272 244.336725 
" clip-path="url(#p69dedcd033)" style="fill: none; stroke: #b0b0b0; stroke-opacity: 0.16; stroke-width: 0.8; stroke-linecap: square"/>
     </g>
     <g id="line2d_11">
      <g>
       <use xlink:href="#m9c3ccdf3b7" x="39.55" y="244.336725" style="stroke: #000000; stroke-width: 0.8"/>
      </g>
     </g>
     <g id="text_9">
      <!-- 65 -->
      <g transform="translate(21.45 248.316412) scale(0.1 -0.1)">
       <use xlink:href="#NotoSansCJKjp-Regular-36"/>
       <use xlink:href="#NotoSansCJKjp-Regular-35" transform="translate(55.499985 0)"/>
      </g>
     </g>
    </g>
    <g id="ytick_4">
     <g id="line2d_12">
      <path d="M 39.55 187.175401 
L 593.272 187.175401 
" clip-path="url(#p69dedcd033)" style="fill: none; stroke: #b0b0b0; stroke-opacity: 0.16; stroke-width: 0.8; stroke-linecap: square"/>
     </g>
     <g id="line2d_13">
      <g>
       <use xlink:href="#m9c3ccdf3b7" x="39.55" y="187.175401" style="stroke: #000000; stroke-width: 0.8"/>
      </g>
     </g>
     <g id="text_10">
      <!-- 70 -->
      <g transform="translate(21.45 191.155088) scale(0.1 -0.1)">
       <defs>
        <path id="NotoSansCJKjp-Regular-37" d="M 1267 0 
L 1875 0 
C 1952 1837 2150 2931 3251 4339 
L 3251 4691 
L 314 4691 
L 314 4192 
L 2592 4192 
C 1670 2912 1350 1779 1267 0 
z
" transform="scale(0.015625)"/>
       </defs>
       <use xlink:href="#NotoSansCJKjp-Regular-37"/>
       <use xlink:href="#NotoSansCJKjp-Regular-30" transform="translate(55.499985 0)"/>
      </g>
     </g>
    </g>
    <g id="ytick_5">
     <g id="line2d_14">
      <path d="M 39.55 130.014077 
L 593.272 130.014077 
" clip-path="url(#p69dedcd033)" style="fill: none; stroke: #b0b0b0; stroke-opacity: 0.16; stroke-width: 0.8; stroke-linecap: square"/>
     </g>
     <g id="line2d_15">
      <g>
       <use xlink:href="#m9c3ccdf3b7" x="39.55" y="130.014077" style="stroke: #000000; stroke-width: 0.8"/>
      </g>
     </g>
     <g id="text_11">
      <!-- 75 -->
      <g transform="translate(21.45 133.993764) scale(0.1 -0.1)">
       <use xlink:href="#NotoSansCJKjp-Regular-37"/>
       <use xlink:href="#NotoSansCJKjp-Regular-35" transform="translate(55.499985 0)"/>
      </g>
     </g>
    </g>
    <g id="ytick_6">
     <g id="line2d_16">
      <path d="M 39.55 72.852753 
L 593.272 72.852753 
" clip-path="url(#p69dedcd033)" style="fill: none; stroke: #b0b0b0; stroke-opacity: 0.16; stroke-width: 0.8; stroke-linecap: square"/>
     </g>
     <g id="line2d_17">
      <g>
       <use xlink:href="#m9c3ccdf3b7" x="39.55" y="72.852753" style="stroke: #000000; stroke-width: 0.8"/>
      </g>
     </g>
     <g id="text_12">
      <!-- 80 -->
      <g transform="translate(21.45 76.83244) scale(0.1 -0.1)">
       <use xlink:href="#NotoSansCJKjp-Regular-38"/>
       <use xlink:href="#NotoSansCJKjp-Regular-30" transform="translate(55.499985 0)"/>
      </g>
     </g>
    </g>
    <g id="text_13">
     <!-- 运输能耗（千瓦时） -->
     <g transform="translate(15.159375 249.685781) rotate(-90) scale(0.1 -0.1)">
      <defs>
       <path id="NotoSansCJKjp-Regular-80fd" d="M 2131 4774 
C 2278 4576 2432 4339 2560 4109 
L 1248 4058 
C 1446 4422 1651 4864 1824 5261 
L 1331 5382 
C 1197 4979 966 4442 742 4038 
L 256 4019 
L 294 3552 
C 960 3590 1882 3635 2784 3693 
C 2854 3552 2912 3424 2950 3309 
L 3366 3494 
C 3226 3891 2867 4486 2528 4928 
L 2131 4774 
z
M 2451 2688 
L 2451 2138 
L 1088 2138 
L 1088 2688 
L 2451 2688 
z
M 640 3098 
L 640 -506 
L 1088 -506 
L 1088 800 
L 2451 800 
L 2451 51 
C 2451 -32 2432 -58 2349 -58 
C 2253 -64 1984 -64 1683 -51 
C 1747 -179 1818 -365 1843 -493 
C 2246 -493 2522 -486 2701 -416 
C 2874 -339 2925 -205 2925 45 
L 2925 3098 
L 640 3098 
z
M 1088 1760 
L 2451 1760 
L 2451 1178 
L 1088 1178 
L 1088 1760 
z
M 5491 4896 
C 5126 4704 4550 4474 4006 4288 
L 4006 5363 
L 3526 5363 
L 3526 3238 
C 3526 2707 3686 2566 4307 2566 
C 4429 2566 5267 2566 5408 2566 
C 5920 2566 6061 2771 6118 3558 
C 5984 3590 5786 3661 5683 3744 
C 5658 3110 5613 3002 5363 3002 
C 5184 3002 4480 3002 4352 3002 
C 4058 3002 4006 3040 4006 3245 
L 4006 3904 
C 4621 4083 5306 4307 5811 4538 
L 5491 4896 
z
M 5568 2042 
C 5197 1805 4582 1555 4000 1363 
L 4000 2387 
L 3526 2387 
L 3526 224 
C 3526 -314 3693 -454 4320 -454 
C 4454 -454 5318 -454 5459 -454 
C 5997 -454 6138 -224 6195 634 
C 6061 666 5875 742 5760 819 
C 5734 96 5690 -26 5421 -26 
C 5229 -26 4506 -26 4365 -26 
C 4058 -26 4000 13 4000 224 
L 4000 966 
C 4646 1146 5382 1395 5882 1683 
L 5568 2042 
z
" transform="scale(0.015625)"/>
       <path id="NotoSansCJKjp-Regular-8017" d="M 1395 5376 
L 1395 4691 
L 397 4691 
L 397 4269 
L 1395 4269 
L 1395 3635 
L 525 3635 
L 525 3219 
L 1395 3219 
L 1395 2566 
L 294 2566 
L 294 2138 
L 1242 2138 
C 986 1594 582 1011 218 685 
C 294 576 397 384 448 256 
C 781 576 1126 1101 1395 1632 
L 1395 -506 
L 1843 -506 
L 1843 1626 
C 2086 1312 2368 922 2496 710 
L 2803 1094 
C 2675 1254 2176 1850 1920 2138 
L 2842 2138 
L 2842 2566 
L 1843 2566 
L 1843 3219 
L 2598 3219 
L 2598 3635 
L 1843 3635 
L 1843 4269 
L 2714 4269 
L 2714 4691 
L 1843 4691 
L 1843 5376 
L 1395 5376 
z
M 5344 5350 
C 4800 4966 3776 4589 2861 4326 
C 2925 4230 3002 4070 3027 3968 
C 3347 4058 3680 4154 4006 4262 
L 4006 3322 
L 2950 3155 
L 3021 2720 
L 4006 2880 
L 4006 1882 
L 2810 1702 
L 2880 1267 
L 4006 1440 
L 4006 326 
C 4006 -256 4147 -416 4685 -416 
C 4787 -416 5421 -416 5536 -416 
C 6022 -416 6138 -134 6189 736 
C 6061 768 5882 845 5773 934 
C 5747 173 5715 -6 5504 -6 
C 5370 -6 4851 -6 4749 -6 
C 4512 -6 4474 45 4474 320 
L 4474 1510 
L 6157 1766 
L 6093 2195 
L 4474 1952 
L 4474 2957 
L 5920 3187 
L 5850 3610 
L 4474 3392 
L 4474 4429 
C 4954 4608 5395 4806 5747 5030 
L 5344 5350 
z
" transform="scale(0.015625)"/>
       <path id="NotoSansCJKjp-Regular-5343" d="M 5075 5293 
C 4064 4973 2234 4717 678 4570 
C 730 4461 800 4269 813 4147 
C 1491 4205 2221 4288 2931 4384 
L 2931 2848 
L 333 2848 
L 333 2381 
L 2931 2381 
L 2931 -512 
L 3437 -512 
L 3437 2381 
L 6074 2381 
L 6074 2848 
L 3437 2848 
L 3437 4461 
C 4186 4582 4890 4723 5446 4890 
L 5075 5293 
z
" transform="scale(0.015625)"/>
       <path id="NotoSansCJKjp-Regular-74e6" d="M 2272 2227 
C 2739 1869 3238 1344 3450 960 
L 3840 1261 
C 3629 1645 3117 2157 2643 2496 
L 2272 2227 
z
M 288 109 
L 390 -371 
C 1274 -262 2560 -115 3776 38 
L 3770 480 
L 1773 262 
C 1882 1011 1997 2048 2106 3059 
L 4237 3059 
L 4237 269 
C 4237 -314 4384 -467 4864 -467 
C 4960 -467 5408 -467 5510 -467 
C 5990 -467 6112 -141 6157 947 
C 6022 979 5818 1069 5709 1158 
C 5690 186 5658 -6 5466 -6 
C 5370 -6 5011 -6 4934 -6 
C 4755 -6 4723 32 4723 269 
L 4723 3514 
L 2150 3514 
L 2240 4493 
L 5920 4493 
L 5920 4960 
L 442 4960 
L 442 4493 
L 1741 4493 
C 1632 3130 1427 1338 1248 205 
L 288 109 
z
" transform="scale(0.015625)"/>
      </defs>
      <use xlink:href="#NotoSansCJKjp-Regular-8fd0"/>
      <use xlink:href="#NotoSansCJKjp-Regular-8f93" transform="translate(99.999985 0)"/>
      <use xlink:href="#NotoSansCJKjp-Regular-80fd" transform="translate(199.999969 0)"/>
      <use xlink:href="#NotoSansCJKjp-Regular-8017" transform="translate(299.999954 0)"/>
      <use xlink:href="#NotoSansCJKjp-Regular-ff08" transform="translate(399.999939 0)"/>
      <use xlink:href="#NotoSansCJKjp-Regular-5343" transform="translate(499.999924 0)"/>
      <use xlink:href="#NotoSansCJKjp-Regular-74e6" transform="translate(599.999908 0)"/>
      <use xlink:href="#NotoSansCJKjp-Regular-65f6" transform="translate(699.999893 0)"/>
      <use xlink:href="#NotoSansCJKjp-Regular-ff09" transform="translate(799.999878 0)"/>
     </g>
    </g>
   </g>
   <g id="PathCollection_1">
    <defs>
     <path id="m71088fc764" d="M -4.031129 4.031129 
L 4.031129 -4.031129 
M -4.031129 -4.031129 
L 4.031129 4.031129 
" style="stroke: #1f77b4; stroke-width: 1.5"/>
    </defs>
    <g clip-path="url(#p69dedcd033)">
     <use xlink:href="#m71088fc764" x="485.228683" y="311.429303" style="fill: #1f77b4; stroke: #1f77b4; stroke-width: 1.5"/>
    </g>
   </g>
   <g id="PathCollection_2">
    <defs>
     <path id="me02de92b03" d="M 0 4.031129 
C 1.069068 4.031129 2.094493 3.606384 2.850439 2.850439 
C 3.606384 2.094493 4.031129 1.069068 4.031129 0 
C 4.031129 -1.069068 3.606384 -2.094493 2.850439 -2.850439 
C 2.094493 -3.606384 1.069068 -4.031129 0 -4.031129 
C -1.069068 -4.031129 -2.094493 -3.606384 -2.850439 -2.850439 
C -3.606384 -2.094493 -4.031129 -1.069068 -4.031129 0 
C -4.031129 1.069068 -3.606384 2.094493 -2.850439 2.850439 
C -2.094493 3.606384 -1.069068 4.031129 0 4.031129 
z
" style="stroke: #ff7f0e"/>
    </defs>
    <g clip-path="url(#p69dedcd033)">
     <use xlink:href="#me02de92b03" x="201.199775" y="97.94226" style="fill: #ff7f0e; stroke: #ff7f0e"/>
    </g>
   </g>
   <g id="PathCollection_3">
    <defs>
     <path id="m8b7ecd5766" d="M 0 4.031129 
C 1.069068 4.031129 2.094493 3.606384 2.850439 2.850439 
C 3.606384 2.094493 4.031129 1.069068 4.031129 0 
C 4.031129 -1.069068 3.606384 -2.094493 2.850439 -2.850439 
C 2.094493 -3.606384 1.069068 -4.031129 0 -4.031129 
C -1.069068 -4.031129 -2.094493 -3.606384 -2.850439 -2.850439 
C -3.606384 -2.094493 -4.031129 -1.069068 -4.031129 0 
C -4.031129 1.069068 -3.606384 2.094493 -2.850439 2.850439 
C -2.094493 3.606384 -1.069068 4.031129 0 4.031129 
z
" style="stroke: #2ca02c"/>
    </defs>
    <g clip-path="url(#p69dedcd033)">
     <use xlink:href="#m8b7ecd5766" x="147.593317" y="164.932076" style="fill: #2ca02c; stroke: #2ca02c"/>
    </g>
   </g>
   <g id="PathCollection_4">
    <defs>
     <path id="m1ad597d387" d="M 0 4.031129 
C 1.069068 4.031129 2.094493 3.606384 2.850439 2.850439 
C 3.606384 2.094493 4.031129 1.069068 4.031129 0 
C 4.031129 -1.069068 3.606384 -2.094493 2.850439 -2.850439 
C 2.094493 -3.606384 1.069068 -4.031129 0 -4.031129 
C -1.069068 -4.031129 -2.094493 -3.606384 -2.850439 -2.850439 
C -3.606384 -2.094493 -4.031129 -1.069068 -4.031129 0 
C -4.031129 1.069068 -3.606384 2.094493 -2.850439 2.850439 
C -2.094493 3.606384 -1.069068 4.031129 0 4.031129 
z
" style="stroke: #d62728"/>
    </defs>
    <g clip-path="url(#p69dedcd033)">
     <use xlink:href="#m1ad597d387" x="198.598387" y="218.871836" style="fill: #d62728; stroke: #d62728"/>
    </g>
   </g>
   <g id="patch_3">
    <path d="M 39.55 379.745156 
L 39.55 29.626406 
" style="fill: none; stroke: #000000; stroke-width: 0.8; stroke-linejoin: miter; stroke-linecap: square"/>
   </g>
   <g id="patch_4">
    <path d="M 593.272 379.745156 
L 593.272 29.626406 
" style="fill: none; stroke: #000000; stroke-width: 0.8; stroke-linejoin: miter; stroke-linecap: square"/>
   </g>
   <g id="patch_5">
    <path d="M 39.55 379.745156 
L 593.272 379.745156 
" style="fill: none; stroke: #000000; stroke-width: 0.8; stroke-linejoin: miter; stroke-linecap: square"/>
   </g>
   <g id="patch_6">
    <path d="M 39.55 29.626406 
L 593.272 29.626406 
" style="fill: none; stroke: #000000; stroke-width: 0.8; stroke-linejoin: miter; stroke-linecap: square"/>
   </g>
   <g id="text_14">
    <!-- Q2：实算备选方案的时间与能耗 -->
    <g transform="translate(223.480297 17.626406) scale(0.13 -0.13)">
     <defs>
      <path id="NotoSansCJKjp-Regular-51" d="M 2374 410 
C 1530 410 979 1165 979 2362 
C 979 3533 1530 4256 2374 4256 
C 3219 4256 3770 3533 3770 2362 
C 3770 1165 3219 410 2374 410 
z
M 3808 -1178 
C 4090 -1178 4339 -1133 4480 -1069 
L 4365 -614 
C 4243 -653 4083 -685 3872 -685 
C 3366 -685 2931 -474 2720 -58 
C 3712 115 4378 1011 4378 2362 
C 4378 3866 3552 4774 2374 4774 
C 1197 4774 371 3866 371 2362 
C 371 986 1062 77 2086 -64 
C 2349 -704 2944 -1178 3808 -1178 
z
" transform="scale(0.015625)"/>
      <path id="NotoSansCJKjp-Regular-ff1a" d="M 3200 3482 
C 3456 3482 3686 3667 3686 3962 
C 3686 4256 3456 4442 3200 4442 
C 2944 4442 2714 4256 2714 3962 
C 2714 3667 2944 3482 3200 3482 
z
M 3200 346 
C 3456 346 3686 538 3686 826 
C 3686 1120 3456 1312 3200 1312 
C 2944 1312 2714 1120 2714 826 
C 2714 538 2944 346 3200 346 
z
" transform="scale(0.015625)"/>
      <path id="NotoSansCJKjp-Regular-5b9e" d="M 3443 685 
C 4294 365 5146 -77 5664 -474 
L 5958 -96 
C 5427 282 4531 723 3674 1037 
L 3443 685 
z
M 1536 3565 
C 1882 3360 2291 3040 2477 2816 
L 2784 3162 
C 2586 3392 2170 3680 1824 3872 
L 1536 3565 
z
M 896 2566 
C 1261 2368 1690 2048 1894 1818 
L 2189 2182 
C 1978 2406 1542 2701 1184 2886 
L 896 2566 
z
M 576 4646 
L 576 3347 
L 1056 3347 
L 1056 4198 
L 5338 4198 
L 5338 3347 
L 5837 3347 
L 5837 4646 
L 3642 4646 
C 3546 4870 3379 5184 3219 5421 
L 2746 5274 
C 2861 5082 2982 4851 3072 4646 
L 576 4646 
z
M 454 1638 
L 454 1222 
L 2765 1222 
C 2406 602 1747 186 518 -70 
C 621 -179 742 -365 794 -493 
C 2234 -160 2950 397 3315 1222 
L 5984 1222 
L 5984 1638 
L 3462 1638 
C 3648 2259 3693 3002 3718 3878 
L 3219 3878 
C 3194 2970 3155 2234 2950 1638 
L 454 1638 
z
" transform="scale(0.015625)"/>
      <path id="NotoSansCJKjp-Regular-7b97" d="M 1613 2925 
L 4890 2925 
L 4890 2547 
L 1613 2547 
L 1613 2925 
z
M 1613 2240 
L 4890 2240 
L 4890 1856 
L 1613 1856 
L 1613 2240 
z
M 1613 3597 
L 4890 3597 
L 4890 3232 
L 1613 3232 
L 1613 3597 
z
M 3686 5408 
C 3507 4915 3181 4448 2790 4141 
C 2899 4096 3085 3994 3181 3923 
L 1894 3923 
L 2259 4058 
C 2214 4179 2118 4352 2016 4506 
L 3117 4506 
L 3117 4902 
L 1427 4902 
C 1498 5030 1562 5158 1619 5286 
L 1171 5408 
C 966 4909 614 4410 224 4083 
C 333 4019 525 3891 614 3814 
C 813 4000 1011 4243 1184 4506 
L 1517 4506 
C 1645 4314 1773 4077 1837 3923 
L 1133 3923 
L 1133 1530 
L 1990 1530 
L 1990 1114 
L 1984 973 
L 358 973 
L 358 576 
L 1830 576 
C 1651 307 1267 38 461 -160 
C 563 -250 698 -416 762 -518 
C 1786 -224 2214 179 2381 576 
L 4109 576 
L 4109 -499 
L 4602 -499 
L 4602 576 
L 6067 576 
L 6067 973 
L 4602 973 
L 4602 1530 
L 5389 1530 
L 5389 3923 
L 4749 3923 
L 5094 4083 
C 5030 4205 4915 4358 4787 4506 
L 6016 4506 
L 6016 4902 
L 3968 4902 
C 4038 5030 4096 5165 4147 5299 
L 3686 5408 
z
M 4109 973 
L 2470 973 
L 2477 1101 
L 2477 1530 
L 4109 1530 
L 4109 973 
z
M 3232 3923 
C 3405 4083 3578 4282 3731 4506 
L 4243 4506 
C 4416 4320 4595 4090 4678 3923 
L 3232 3923 
z
" transform="scale(0.015625)"/>
      <path id="NotoSansCJKjp-Regular-5907" d="M 4384 4403 
C 4077 4077 3661 3795 3187 3552 
C 2752 3770 2381 4032 2106 4333 
L 2176 4403 
L 4384 4403 
z
M 2362 5395 
C 2042 4838 1414 4198 486 3763 
C 595 3686 742 3526 819 3411 
C 1178 3597 1491 3808 1766 4032 
C 2029 3763 2336 3526 2688 3322 
C 1907 2995 1024 2771 192 2656 
C 275 2547 371 2336 410 2202 
C 1338 2355 2323 2630 3194 3053 
C 3994 2669 4941 2419 5926 2291 
C 5990 2426 6118 2624 6227 2733 
C 5318 2835 4442 3027 3699 3322 
C 4307 3680 4826 4122 5171 4653 
L 4858 4851 
L 4774 4826 
L 2554 4826 
C 2675 4979 2784 5133 2880 5293 
L 2362 5395 
z
M 1587 826 
L 2944 826 
L 2944 115 
L 1587 115 
L 1587 826 
z
M 1587 1216 
L 1587 1862 
L 2944 1862 
L 2944 1216 
L 1587 1216 
z
M 4774 826 
L 4774 115 
L 3437 115 
L 3437 826 
L 4774 826 
z
M 4774 1216 
L 3437 1216 
L 3437 1862 
L 4774 1862 
L 4774 1216 
z
M 1088 2285 
L 1088 -512 
L 1587 -512 
L 1587 -307 
L 4774 -307 
L 4774 -499 
L 5293 -499 
L 5293 2285 
L 1088 2285 
z
" transform="scale(0.015625)"/>
      <path id="NotoSansCJKjp-Regular-9009" d="M 390 4896 
C 762 4582 1197 4134 1382 3821 
L 1779 4122 
C 1574 4429 1133 4864 755 5158 
L 390 4896 
z
M 2854 5184 
C 2701 4614 2432 4051 2086 3674 
C 2202 3616 2406 3488 2496 3418 
C 2643 3597 2784 3821 2912 4070 
L 3859 4070 
L 3859 3136 
L 2048 3136 
L 2048 2707 
L 3206 2707 
C 3098 1869 2835 1261 1875 922 
C 1978 832 2118 653 2170 531 
C 3245 954 3565 1690 3686 2707 
L 4346 2707 
L 4346 1222 
C 4346 736 4454 595 4934 595 
C 5030 595 5466 595 5562 595 
C 5965 595 6093 800 6138 1613 
C 6003 1645 5805 1715 5715 1805 
C 5696 1133 5670 1043 5510 1043 
C 5421 1043 5069 1043 5005 1043 
C 4838 1043 4819 1062 4819 1222 
L 4819 2707 
L 6086 2707 
L 6086 3136 
L 4339 3136 
L 4339 4070 
L 5818 4070 
L 5818 4486 
L 4339 4486 
L 4339 5350 
L 3859 5350 
L 3859 4486 
L 3104 4486 
C 3187 4678 3258 4883 3315 5088 
L 2854 5184 
z
M 1606 2918 
L 358 2918 
L 358 2470 
L 1146 2470 
L 1146 531 
C 870 403 576 173 288 -96 
L 608 -512 
C 973 -115 1318 218 1555 218 
C 1696 218 1894 32 2144 -122 
C 2566 -371 3098 -435 3840 -435 
C 4467 -435 5549 -403 6048 -371 
C 6054 -230 6131 6 6182 128 
C 5549 64 4576 19 3846 19 
C 3168 19 2630 58 2234 294 
C 1926 474 1779 627 1606 640 
L 1606 2918 
z
" transform="scale(0.015625)"/>
      <path id="NotoSansCJKjp-Regular-65b9" d="M 2931 5395 
L 2931 4269 
L 339 4269 
L 339 3808 
L 2310 3808 
C 2240 2330 2054 666 269 -147 
C 397 -243 544 -416 621 -538 
C 1926 90 2438 1152 2669 2298 
L 4787 2298 
C 4685 819 4557 186 4371 19 
C 4294 -51 4211 -58 4064 -58 
C 3898 -58 3443 -51 2982 -13 
C 3078 -147 3142 -346 3155 -480 
C 3584 -506 4013 -512 4230 -499 
C 4480 -486 4634 -435 4781 -282 
C 5030 -26 5165 685 5293 2522 
C 5306 2598 5312 2758 5312 2758 
L 2746 2758 
C 2790 3110 2822 3462 2842 3808 
L 6067 3808 
L 6067 4269 
L 3424 4269 
L 3424 5395 
L 2931 5395 
z
" transform="scale(0.015625)"/>
      <path id="NotoSansCJKjp-Regular-6848" d="M 512 4896 
L 512 3974 
L 966 3974 
L 966 4486 
L 5453 4486 
L 5453 3974 
L 5920 3974 
L 5920 4896 
L 3430 4896 
L 3430 5376 
L 2950 5376 
L 2950 4896 
L 512 4896 
z
M 333 1472 
L 333 1062 
L 2566 1062 
C 1997 570 1069 154 218 -32 
C 314 -128 454 -307 518 -422 
C 1395 -192 2342 307 2944 902 
L 2944 -506 
L 3424 -506 
L 3424 934 
C 4038 320 5018 -192 5914 -435 
C 5978 -314 6118 -128 6221 -32 
C 5357 154 4416 570 3834 1062 
L 6074 1062 
L 6074 1472 
L 3424 1472 
L 3424 2003 
L 2944 2003 
L 2944 1472 
L 333 1472 
z
M 2618 4416 
L 2176 3814 
L 442 3814 
L 442 3424 
L 1875 3424 
C 1664 3155 1453 2899 1274 2701 
L 1722 2560 
L 1850 2714 
C 2182 2643 2541 2560 2893 2470 
C 2355 2310 1619 2202 614 2144 
C 672 2042 749 1869 768 1754 
C 2042 1850 2931 2016 3558 2298 
C 4275 2106 4941 1894 5389 1715 
L 5677 2067 
C 5254 2227 4672 2406 4045 2573 
C 4365 2803 4589 3078 4749 3424 
L 5990 3424 
L 5990 3814 
L 2726 3814 
L 3072 4275 
L 2618 4416 
z
M 2426 3424 
L 4230 3424 
C 4077 3136 3846 2899 3494 2714 
C 3021 2829 2534 2931 2099 3014 
L 2426 3424 
z
" transform="scale(0.015625)"/>
      <path id="NotoSansCJKjp-Regular-7684" d="M 3533 2707 
C 3885 2240 4320 1600 4512 1210 
L 4922 1466 
C 4710 1843 4269 2464 3904 2918 
L 3533 2707 
z
M 1536 5389 
C 1485 5082 1376 4659 1274 4346 
L 557 4346 
L 557 -346 
L 998 -346 
L 998 160 
L 2784 160 
L 2784 4346 
L 1715 4346 
C 1824 4621 1946 4979 2054 5299 
L 1536 5389 
z
M 998 3917 
L 2342 3917 
L 2342 2566 
L 998 2566 
L 998 3917 
z
M 998 595 
L 998 2144 
L 2342 2144 
L 2342 595 
L 998 595 
z
M 3827 5402 
C 3622 4518 3277 3635 2835 3066 
C 2950 3002 3149 2867 3238 2790 
C 3456 3098 3661 3488 3840 3923 
L 5478 3923 
C 5402 1357 5299 371 5094 154 
C 5018 64 4947 45 4819 45 
C 4672 45 4288 51 3866 83 
C 3955 -38 4013 -243 4026 -378 
C 4384 -397 4762 -410 4979 -390 
C 5210 -365 5350 -314 5498 -122 
C 5754 192 5843 1184 5939 4122 
C 5946 4186 5946 4365 5946 4365 
L 4013 4365 
C 4115 4666 4211 4986 4288 5299 
L 3827 5402 
z
" transform="scale(0.015625)"/>
      <path id="NotoSansCJKjp-Regular-4e0e" d="M 1939 5389 
C 1773 4429 1485 3098 1267 2317 
L 1760 2272 
L 1843 2605 
L 4525 2605 
C 4486 2246 4454 1939 4416 1664 
L 346 1664 
L 346 1210 
L 4346 1210 
C 4230 518 4102 160 3949 26 
C 3866 -45 3776 -51 3616 -51 
C 3437 -51 2957 -51 2470 0 
C 2560 -134 2624 -339 2637 -480 
C 3098 -512 3558 -518 3789 -506 
C 4045 -486 4198 -442 4365 -282 
C 4570 -83 4710 346 4845 1210 
L 6074 1210 
L 6074 1664 
L 4902 1664 
C 4947 1997 4986 2374 5030 2816 
C 5037 2886 5050 3053 5050 3053 
L 1952 3053 
L 2163 4000 
L 5402 4000 
L 5402 4461 
L 2259 4461 
L 2432 5338 
L 1939 5389 
z
" transform="scale(0.015625)"/>
     </defs>
     <use xlink:href="#NotoSansCJKjp-Regular-51"/>
     <use xlink:href="#NotoSansCJKjp-Regular-32" transform="translate(74.199982 0)"/>
     <use xlink:href="#NotoSansCJKjp-Regular-ff1a" transform="translate(129.699966 0)"/>
     <use xlink:href="#NotoSansCJKjp-Regular-5b9e" transform="translate(229.699951 0)"/>
     <use xlink:href="#NotoSansCJKjp-Regular-7b97" transform="translate(329.699936 0)"/>
     <use xlink:href="#NotoSansCJKjp-Regular-5907" transform="translate(429.699921 0)"/>
     <use xlink:href="#NotoSansCJKjp-Regular-9009" transform="translate(529.699905 0)"/>
     <use xlink:href="#NotoSansCJKjp-Regular-65b9" transform="translate(629.69989 0)"/>
     <use xlink:href="#NotoSansCJKjp-Regular-6848" transform="translate(729.699875 0)"/>
     <use xlink:href="#NotoSansCJKjp-Regular-7684" transform="translate(829.69986 0)"/>
     <use xlink:href="#NotoSansCJKjp-Regular-65f6" transform="translate(929.699844 0)"/>
     <use xlink:href="#NotoSansCJKjp-Regular-95f4" transform="translate(1029.699829 0)"/>
     <use xlink:href="#NotoSansCJKjp-Regular-4e0e" transform="translate(1129.699814 0)"/>
     <use xlink:href="#NotoSansCJKjp-Regular-80fd" transform="translate(1229.699799 0)"/>
     <use xlink:href="#NotoSansCJKjp-Regular-8017" transform="translate(1329.699783 0)"/>
    </g>
   </g>
   <g id="legend_1">
    <g id="patch_7">
     <path d="M 605.10922 106.476406 
L 768.90922 106.476406 
Q 770.70922 106.476406 770.70922 104.676406 
L 770.70922 35.926406 
Q 770.70922 34.126406 768.90922 34.126406 
L 605.10922 34.126406 
Q 603.30922 34.126406 603.30922 35.926406 
L 603.30922 104.676406 
Q 603.30922 106.476406 605.10922 106.476406 
z
" style="fill: #ffffff; opacity: 0.8; stroke: #cccccc; stroke-linejoin: miter"/>
    </g>
    <g id="text_15">
     <!-- 实算方案（同点合并） -->
     <g transform="translate(637.00922 45.685781) scale(0.1 -0.1)">
      <defs>
       <path id="NotoSansCJKjp-Regular-540c" d="M 1587 3917 
L 1587 3501 
L 4838 3501 
L 4838 3917 
L 1587 3917 
z
M 2355 2419 
L 4045 2419 
L 4045 1203 
L 2355 1203 
L 2355 2419 
z
M 1914 2829 
L 1914 326 
L 2355 326 
L 2355 794 
L 4493 794 
L 4493 2829 
L 1914 2829 
z
M 563 5043 
L 563 -525 
L 1030 -525 
L 1030 4589 
L 5376 4589 
L 5376 102 
C 5376 -13 5338 -51 5222 -58 
C 5114 -58 4742 -64 4339 -51 
C 4416 -173 4486 -390 4512 -518 
C 5062 -518 5389 -506 5581 -429 
C 5779 -352 5850 -198 5850 96 
L 5850 5043 
L 563 5043 
z
" transform="scale(0.015625)"/>
       <path id="NotoSansCJKjp-Regular-70b9" d="M 1517 2976 
L 4864 2976 
L 4864 1830 
L 1517 1830 
L 1517 2976 
z
M 2176 819 
C 2259 403 2310 -134 2310 -454 
L 2797 -390 
C 2790 -83 2726 448 2630 858 
L 2176 819 
z
M 3501 813 
C 3686 416 3878 -122 3949 -442 
L 4416 -320 
C 4339 0 4134 518 3936 909 
L 3501 813 
z
M 4806 864 
C 5126 461 5485 -109 5632 -461 
L 6086 -269 
C 5926 83 5555 627 5235 1030 
L 4806 864 
z
M 1133 992 
C 934 518 608 0 269 -294 
L 704 -506 
C 1056 -166 1382 371 1587 870 
L 1133 992 
z
M 1062 3430 
L 1062 1382 
L 5344 1382 
L 5344 3430 
L 3392 3430 
L 3392 4243 
L 5824 4243 
L 5824 4698 
L 3392 4698 
L 3392 5376 
L 2912 5376 
L 2912 3430 
L 1062 3430 
z
" transform="scale(0.015625)"/>
       <path id="NotoSansCJKjp-Regular-5408" d="M 1587 3283 
L 1587 2854 
L 4819 2854 
L 4819 3283 
L 1587 3283 
z
M 3187 4890 
C 3789 4070 4915 3168 5914 2637 
C 5997 2778 6118 2944 6234 3066 
C 5216 3520 4090 4410 3405 5363 
L 2912 5363 
C 2413 4531 1338 3552 218 2982 
C 320 2880 454 2714 518 2605 
C 1613 3194 2656 4109 3187 4890 
z
M 1254 2048 
L 1254 -518 
L 1728 -518 
L 1728 -250 
L 4685 -250 
L 4685 -518 
L 5171 -518 
L 5171 2048 
L 1254 2048 
z
M 1728 179 
L 1728 1613 
L 4685 1613 
L 4685 179 
L 1728 179 
z
" transform="scale(0.015625)"/>
       <path id="NotoSansCJKjp-Regular-5e76" d="M 4538 5395 
C 4390 5043 4109 4544 3885 4237 
L 4301 4083 
C 4531 4371 4826 4826 5069 5229 
L 4538 5395 
z
M 4109 3597 
L 4109 2202 
L 2304 2202 
L 2304 2355 
L 2304 3597 
L 4109 3597 
z
M 333 2202 
L 333 1741 
L 1792 1741 
C 1696 1024 1376 326 333 -192 
C 442 -275 602 -448 666 -557 
C 1843 45 2189 883 2278 1741 
L 4109 1741 
L 4109 -512 
L 4595 -512 
L 4595 1741 
L 6074 1741 
L 6074 2202 
L 4595 2202 
L 4595 3597 
L 5875 3597 
L 5875 4058 
L 570 4058 
L 570 3597 
L 1824 3597 
L 1824 2368 
L 1824 2202 
L 333 2202 
z
M 1395 5203 
C 1664 4851 1952 4371 2054 4058 
L 2509 4262 
C 2387 4570 2093 5030 1818 5376 
L 1395 5203 
z
" transform="scale(0.015625)"/>
      </defs>
      <use xlink:href="#NotoSansCJKjp-Regular-5b9e"/>
      <use xlink:href="#NotoSansCJKjp-Regular-7b97" transform="translate(99.999985 0)"/>
      <use xlink:href="#NotoSansCJKjp-Regular-65b9" transform="translate(199.999969 0)"/>
      <use xlink:href="#NotoSansCJKjp-Regular-6848" transform="translate(299.999954 0)"/>
      <use xlink:href="#NotoSansCJKjp-Regular-ff08" transform="translate(399.999939 0)"/>
      <use xlink:href="#NotoSansCJKjp-Regular-540c" transform="translate(499.999924 0)"/>
      <use xlink:href="#NotoSansCJKjp-Regular-70b9" transform="translate(599.999908 0)"/>
      <use xlink:href="#NotoSansCJKjp-Regular-5408" transform="translate(699.999893 0)"/>
      <use xlink:href="#NotoSansCJKjp-Regular-5e76" transform="translate(799.999878 0)"/>
      <use xlink:href="#NotoSansCJKjp-Regular-ff09" transform="translate(899.999863 0)"/>
     </g>
    </g>
    <g id="PathCollection_5">
     <g>
      <use xlink:href="#m71088fc764" x="615.90922" y="57.277344" style="fill: #1f77b4; stroke: #1f77b4; stroke-width: 1.5"/>
     </g>
    </g>
    <g id="text_16">
     <!-- 冻结第一问批次（硬时限不可行） -->
     <g transform="translate(632.10922 59.639844) scale(0.09 -0.09)">
      <defs>
       <path id="NotoSansCJKjp-Regular-51bb" d="M 4787 1421 
C 5114 934 5498 269 5677 -122 
L 6118 90 
C 5933 480 5523 1120 5197 1594 
L 4787 1421 
z
M 2630 1587 
C 2458 1107 2099 499 1728 109 
C 1837 45 2010 -83 2106 -179 
C 2496 250 2880 896 3123 1453 
L 2630 1587 
z
M 307 4870 
C 653 4410 1043 3776 1210 3379 
L 1626 3635 
C 1453 4026 1043 4640 698 5088 
L 307 4870 
z
M 250 58 
L 691 -192 
C 998 403 1370 1216 1645 1914 
L 1261 2170 
C 960 1427 544 570 250 58 
z
M 1830 4518 
L 1830 4077 
L 2874 4077 
C 2701 3584 2534 3187 2451 3034 
C 2317 2739 2208 2534 2080 2502 
C 2138 2374 2221 2131 2246 2029 
C 2310 2086 2528 2118 2848 2118 
L 3866 2118 
L 3866 90 
C 3866 -6 3834 -26 3744 -32 
C 3648 -38 3322 -38 2976 -26 
C 3040 -160 3110 -358 3130 -486 
C 3597 -486 3904 -480 4090 -403 
C 4282 -326 4339 -192 4339 83 
L 4339 2118 
L 5798 2118 
L 5798 2560 
L 4339 2560 
L 4339 3533 
L 3866 3533 
L 3866 2560 
L 2739 2560 
C 2970 3002 3194 3526 3398 4077 
L 6048 4077 
L 6048 4518 
L 3552 4518 
C 3635 4774 3712 5037 3782 5293 
L 3270 5421 
C 3200 5120 3117 4813 3021 4518 
L 1830 4518 
z
" transform="scale(0.015625)"/>
       <path id="NotoSansCJKjp-Regular-7ed3" d="M 224 339 
L 307 -154 
C 941 -13 1792 166 2598 352 
L 2560 794 
C 1702 621 819 435 224 339 
z
M 358 2733 
C 454 2778 614 2810 1427 2906 
C 1139 2502 870 2182 749 2061 
C 538 1830 390 1677 243 1645 
C 301 1517 378 1280 403 1178 
C 557 1261 787 1312 2573 1638 
C 2560 1741 2541 1933 2547 2061 
L 1120 1830 
C 1638 2387 2144 3066 2579 3757 
L 2138 4026 
C 2016 3795 1875 3565 1728 3341 
L 877 3270 
C 1254 3802 1626 4480 1914 5133 
L 1421 5338 
C 1165 4589 704 3795 557 3590 
C 422 3386 307 3238 192 3213 
C 250 3078 333 2835 358 2733 
z
M 4090 5382 
L 4090 4518 
L 2611 4518 
L 2611 4058 
L 4090 4058 
L 4090 3059 
L 2771 3059 
L 2771 2598 
L 5926 2598 
L 5926 3059 
L 4582 3059 
L 4582 4058 
L 6035 4058 
L 6035 4518 
L 4582 4518 
L 4582 5382 
L 4090 5382 
z
M 2938 1946 
L 2938 -506 
L 3405 -506 
L 3405 -230 
L 5286 -230 
L 5286 -480 
L 5766 -480 
L 5766 1946 
L 2938 1946 
z
M 3405 205 
L 3405 1510 
L 5286 1510 
L 5286 205 
L 3405 205 
z
" transform="scale(0.015625)"/>
       <path id="NotoSansCJKjp-Regular-7b2c" d="M 1133 2566 
C 1037 2061 877 1421 742 1005 
L 1216 934 
L 1280 1158 
L 2547 1158 
C 1965 640 1069 198 275 -26 
C 378 -115 518 -288 589 -410 
C 1414 -134 2342 390 2963 1005 
L 2963 -512 
L 3430 -512 
L 3430 1158 
L 5363 1158 
C 5299 576 5229 326 5139 237 
C 5082 192 5024 186 4909 186 
C 4794 179 4493 186 4179 218 
C 4256 96 4307 -90 4314 -224 
C 4646 -243 4960 -243 5120 -230 
C 5299 -218 5421 -179 5530 -70 
C 5690 90 5779 480 5869 1376 
C 5875 1440 5882 1568 5882 1568 
L 3430 1568 
L 3430 2163 
L 5510 2163 
L 5510 3622 
L 826 3622 
L 826 3213 
L 2963 3213 
L 2963 2566 
L 1133 2566 
z
M 1523 2163 
L 2963 2163 
L 2963 1568 
L 1382 1568 
L 1523 2163 
z
M 3430 3213 
L 5037 3213 
L 5037 2566 
L 3430 2566 
L 3430 3213 
z
M 1178 5408 
C 966 4838 614 4269 211 3898 
C 326 3834 518 3706 608 3635 
C 819 3846 1024 4128 1210 4435 
L 1446 4435 
C 1581 4179 1702 3878 1747 3674 
L 2170 3840 
C 2125 3994 2029 4224 1926 4435 
L 3110 4435 
L 3110 4819 
L 1421 4819 
C 1498 4973 1562 5126 1626 5286 
L 1178 5408 
z
M 3699 5408 
C 3488 4832 3104 4294 2650 3942 
C 2765 3885 2963 3744 3046 3667 
C 3283 3872 3507 4141 3706 4435 
L 4160 4435 
C 4352 4179 4544 3872 4621 3661 
L 5043 3827 
C 4973 4000 4826 4230 4672 4435 
L 6099 4435 
L 6099 4819 
L 3936 4819 
C 4019 4973 4090 5133 4154 5293 
L 3699 5408 
z
" transform="scale(0.015625)"/>
       <path id="NotoSansCJKjp-Regular-4e00" d="M 282 2758 
L 282 2234 
L 6144 2234 
L 6144 2758 
L 282 2758 
z
" transform="scale(0.015625)"/>
       <path id="NotoSansCJKjp-Regular-95ee" d="M 595 3936 
L 595 -512 
L 1069 -512 
L 1069 3936 
L 595 3936 
z
M 666 5062 
C 986 4730 1408 4262 1619 3987 
L 1984 4256 
C 1773 4525 1338 4973 1011 5293 
L 666 5062 
z
M 2272 5018 
L 2272 4563 
L 5325 4563 
L 5325 160 
C 5325 51 5286 13 5178 13 
C 5069 6 4685 0 4301 19 
C 4365 -115 4442 -326 4461 -467 
C 4979 -467 5325 -461 5536 -378 
C 5734 -294 5805 -154 5805 160 
L 5805 5018 
L 2272 5018 
z
M 2061 3430 
L 2061 659 
L 2502 659 
L 2502 1075 
L 4307 1075 
L 4307 3430 
L 2061 3430 
z
M 2502 2995 
L 3840 2995 
L 3840 1510 
L 2502 1510 
L 2502 2995 
z
" transform="scale(0.015625)"/>
       <path id="NotoSansCJKjp-Regular-6279" d="M 1888 70 
L 2022 -397 
C 2592 -275 3341 -109 4045 51 
L 4006 474 
L 2989 269 
L 2989 2854 
L 3987 2854 
L 3987 3315 
L 2989 3315 
L 2989 5306 
L 2522 5306 
L 2522 179 
L 1888 70 
z
M 5734 3859 
C 5478 3610 5082 3296 4717 3046 
L 4717 5312 
L 4243 5312 
L 4243 326 
C 4243 -269 4378 -435 4851 -435 
C 4947 -435 5466 -435 5562 -435 
C 6016 -435 6125 -122 6170 730 
C 6035 762 5850 851 5741 941 
C 5715 198 5696 0 5536 0 
C 5427 0 5005 0 4922 0 
C 4749 0 4717 51 4717 320 
L 4717 2566 
C 5139 2816 5670 3187 6074 3514 
L 5734 3859 
z
M 1069 5370 
L 1069 4083 
L 269 4083 
L 269 3635 
L 1069 3635 
L 1069 2323 
L 179 2054 
L 301 1594 
L 1069 1843 
L 1069 45 
C 1069 -45 1037 -70 960 -70 
C 883 -77 634 -77 358 -64 
C 416 -198 480 -397 493 -512 
C 902 -518 1146 -499 1299 -422 
C 1459 -352 1517 -218 1517 45 
L 1517 1990 
L 2221 2221 
L 2150 2662 
L 1517 2464 
L 1517 3635 
L 2208 3635 
L 2208 4083 
L 1517 4083 
L 1517 5370 
L 1069 5370 
z
" transform="scale(0.015625)"/>
       <path id="NotoSansCJKjp-Regular-6b21" d="M 243 806 
L 557 410 
C 986 826 1530 1382 2003 1901 
L 1734 2310 
C 1197 1741 614 1158 243 806 
z
M 448 4602 
C 858 4314 1363 3891 1606 3610 
L 1965 4006 
C 1715 4282 1197 4685 787 4947 
L 448 4602 
z
M 2854 5363 
C 2630 4339 2240 3334 1696 2707 
C 1824 2650 2054 2515 2157 2438 
C 2426 2797 2662 3245 2874 3750 
L 3654 3750 
L 3654 2931 
C 3654 2330 3322 653 1370 -115 
C 1459 -211 1606 -403 1664 -512 
C 3206 141 3795 1427 3904 2029 
C 4000 1434 4544 102 5894 -512 
C 5965 -397 6112 -198 6208 -83 
C 4461 672 4147 2368 4154 2931 
L 4154 3750 
L 5485 3750 
C 5350 3322 5152 2848 4986 2547 
C 5101 2502 5286 2400 5389 2349 
C 5626 2778 5926 3443 6099 4058 
L 5747 4250 
L 5651 4224 
L 3053 4224 
C 3168 4557 3270 4915 3354 5274 
L 2854 5363 
z
" transform="scale(0.015625)"/>
       <path id="NotoSansCJKjp-Regular-786c" d="M 2752 4051 
L 2752 1638 
L 4051 1638 
C 4013 1318 3917 1011 3725 730 
C 3488 934 3302 1171 3168 1453 
L 2758 1350 
C 2931 979 3155 672 3443 422 
C 3181 192 2816 -6 2304 -147 
C 2400 -237 2534 -422 2592 -525 
C 3123 -346 3514 -115 3795 154 
C 4339 -205 5050 -422 5914 -525 
C 5971 -397 6093 -211 6189 -109 
C 5325 -32 4614 160 4077 480 
C 4333 832 4448 1229 4506 1638 
L 5952 1638 
L 5952 4051 
L 4544 4051 
L 4544 4659 
L 6086 4659 
L 6086 5094 
L 2624 5094 
L 2624 4659 
L 4090 4659 
L 4090 4051 
L 2752 4051 
z
M 3181 2669 
L 4090 2669 
L 4090 2336 
L 4083 2016 
L 3181 2016 
L 3181 2669 
z
M 4538 2016 
L 4544 2336 
L 4544 2669 
L 5510 2669 
L 5510 2016 
L 4538 2016 
z
M 3181 3667 
L 4090 3667 
L 4090 3034 
L 3181 3034 
L 3181 3667 
z
M 4544 3667 
L 5510 3667 
L 5510 3034 
L 4544 3034 
L 4544 3667 
z
M 320 5037 
L 320 4595 
L 1126 4595 
C 947 3616 659 2714 198 2099 
C 282 1978 390 1690 422 1574 
C 544 1734 659 1907 762 2099 
L 762 -218 
L 1178 -218 
L 1178 294 
L 2438 294 
L 2438 3066 
L 1184 3066 
C 1350 3546 1485 4064 1581 4595 
L 2483 4595 
L 2483 5037 
L 320 5037 
z
M 1178 2630 
L 2029 2630 
L 2029 723 
L 1178 723 
L 1178 2630 
z
" transform="scale(0.015625)"/>
       <path id="NotoSansCJKjp-Regular-9650" d="M 3309 3482 
L 5261 3482 
L 5261 2675 
L 3309 2675 
L 3309 3482 
z
M 3309 3885 
L 3309 4672 
L 5261 4672 
L 5261 3885 
L 3309 3885 
z
M 5632 2106 
C 5414 1862 5082 1562 4774 1325 
C 4634 1613 4518 1926 4422 2253 
L 5734 2253 
L 5734 5094 
L 2842 5094 
L 2842 179 
L 2118 45 
L 2278 -422 
C 2906 -282 3757 -90 4570 96 
L 4531 512 
L 3309 269 
L 3309 2253 
L 4000 2253 
C 4314 992 4896 -6 5850 -493 
C 5920 -371 6061 -186 6170 -96 
C 5670 128 5274 506 4966 986 
C 5299 1222 5696 1536 6003 1830 
L 5632 2106 
z
M 525 5101 
L 525 -512 
L 979 -512 
L 979 4666 
L 1920 4666 
C 1766 4224 1555 3635 1350 3168 
C 1856 2662 1990 2240 1990 1888 
C 1990 1696 1952 1530 1850 1459 
C 1779 1414 1702 1402 1619 1389 
C 1504 1389 1363 1389 1197 1408 
C 1274 1280 1318 1088 1325 966 
C 1485 960 1664 954 1805 973 
C 1939 992 2067 1024 2163 1094 
C 2349 1222 2438 1485 2432 1843 
C 2432 2240 2310 2694 1792 3226 
C 2035 3731 2298 4390 2502 4922 
L 2182 5120 
L 2106 5101 
L 525 5101 
z
" transform="scale(0.015625)"/>
       <path id="NotoSansCJKjp-Regular-4e0d" d="M 3578 3059 
C 4339 2547 5299 1792 5754 1299 
L 6144 1670 
C 5664 2163 4691 2880 3936 3366 
L 3578 3059 
z
M 442 4928 
L 442 4435 
L 3290 4435 
C 2656 3341 1555 2259 282 1632 
C 384 1523 531 1331 608 1210 
C 1498 1677 2291 2336 2938 3078 
L 2938 -499 
L 3456 -499 
L 3456 3738 
C 3622 3962 3770 4198 3904 4435 
L 5958 4435 
L 5958 4928 
L 442 4928 
z
" transform="scale(0.015625)"/>
       <path id="NotoSansCJKjp-Regular-53ef" d="M 358 4922 
L 358 4442 
L 4781 4442 
L 4781 186 
C 4781 51 4736 13 4595 0 
C 4442 0 3917 -6 3405 19 
C 3482 -122 3571 -358 3603 -499 
C 4237 -499 4685 -499 4941 -416 
C 5190 -333 5280 -166 5280 179 
L 5280 4442 
L 6067 4442 
L 6067 4922 
L 358 4922 
z
M 1478 3040 
L 3162 3040 
L 3162 1568 
L 1478 1568 
L 1478 3040 
z
M 1011 3501 
L 1011 595 
L 1478 595 
L 1478 1107 
L 3635 1107 
L 3635 3501 
L 1011 3501 
z
" transform="scale(0.015625)"/>
       <path id="NotoSansCJKjp-Regular-884c" d="M 2784 4992 
L 2784 4531 
L 5933 4531 
L 5933 4992 
L 2784 4992 
z
M 1709 5382 
C 1382 4915 762 4346 224 3981 
C 307 3891 442 3706 506 3597 
C 1082 4006 1741 4634 2170 5190 
L 1709 5382 
z
M 2502 3226 
L 2502 2765 
L 4659 2765 
L 4659 109 
C 4659 6 4614 -26 4493 -32 
C 4378 -38 3942 -38 3488 -19 
C 3558 -160 3629 -358 3648 -493 
C 4275 -493 4640 -493 4858 -422 
C 5069 -339 5146 -192 5146 102 
L 5146 2765 
L 6112 2765 
L 6112 3226 
L 2502 3226 
z
M 1965 4006 
C 1523 3277 819 2534 160 2061 
C 256 1965 429 1754 499 1658 
C 736 1850 986 2080 1229 2330 
L 1229 -531 
L 1702 -531 
L 1702 2854 
C 1971 3174 2214 3507 2419 3840 
L 1965 4006 
z
" transform="scale(0.015625)"/>
      </defs>
      <use xlink:href="#NotoSansCJKjp-Regular-51bb"/>
      <use xlink:href="#NotoSansCJKjp-Regular-7ed3" transform="translate(99.999985 0)"/>
      <use xlink:href="#NotoSansCJKjp-Regular-7b2c" transform="translate(199.999969 0)"/>
      <use xlink:href="#NotoSansCJKjp-Regular-4e00" transform="translate(299.999954 0)"/>
      <use xlink:href="#NotoSansCJKjp-Regular-95ee" transform="translate(399.999939 0)"/>
      <use xlink:href="#NotoSansCJKjp-Regular-6279" transform="translate(499.999924 0)"/>
      <use xlink:href="#NotoSansCJKjp-Regular-6b21" transform="translate(599.999908 0)"/>
      <use xlink:href="#NotoSansCJKjp-Regular-ff08" transform="translate(699.999893 0)"/>
      <use xlink:href="#NotoSansCJKjp-Regular-786c" transform="translate(799.999878 0)"/>
      <use xlink:href="#NotoSansCJKjp-Regular-65f6" transform="translate(899.999863 0)"/>
      <use xlink:href="#NotoSansCJKjp-Regular-9650" transform="translate(999.999847 0)"/>
      <use xlink:href="#NotoSansCJKjp-Regular-4e0d" transform="translate(1099.999832 0)"/>
      <use xlink:href="#NotoSansCJKjp-Regular-53ef" transform="translate(1199.999817 0)"/>
      <use xlink:href="#NotoSansCJKjp-Regular-884c" transform="translate(1299.999802 0)"/>
      <use xlink:href="#NotoSansCJKjp-Regular-ff09" transform="translate(1399.999786 0)"/>
     </g>
    </g>
    <g id="PathCollection_6">
     <g>
      <use xlink:href="#me02de92b03" x="615.90922" y="71.002344" style="fill: #ff7f0e; stroke: #ff7f0e"/>
     </g>
    </g>
    <g id="text_17">
     <!-- 单点对照 -->
     <g transform="translate(632.10922 73.364844) scale(0.09 -0.09)">
      <defs>
       <path id="NotoSansCJKjp-Regular-5355" d="M 1414 2797 
L 2938 2797 
L 2938 2106 
L 1414 2106 
L 1414 2797 
z
M 3430 2797 
L 5024 2797 
L 5024 2106 
L 3430 2106 
L 3430 2797 
z
M 1414 3859 
L 2938 3859 
L 2938 3181 
L 1414 3181 
L 1414 3859 
z
M 3430 3859 
L 5024 3859 
L 5024 3181 
L 3430 3181 
L 3430 3859 
z
M 4538 5350 
C 4390 5024 4128 4576 3898 4269 
L 2342 4269 
L 2605 4397 
C 2477 4666 2176 5062 1914 5350 
L 1510 5158 
C 1741 4890 1990 4525 2131 4269 
L 947 4269 
L 947 1696 
L 2938 1696 
L 2938 1088 
L 346 1088 
L 346 640 
L 2938 640 
L 2938 -506 
L 3430 -506 
L 3430 640 
L 6074 640 
L 6074 1088 
L 3430 1088 
L 3430 1696 
L 5510 1696 
L 5510 4269 
L 4435 4269 
C 4640 4538 4864 4870 5056 5178 
L 4538 5350 
z
" transform="scale(0.015625)"/>
       <path id="NotoSansCJKjp-Regular-5bf9" d="M 3213 2522 
C 3514 2067 3802 1459 3904 1075 
L 4326 1286 
C 4224 1670 3917 2259 3603 2701 
L 3213 2522 
z
M 582 2899 
C 973 2547 1389 2131 1760 1709 
C 1376 890 870 269 288 -109 
C 403 -205 550 -384 627 -499 
C 1216 -77 1715 512 2106 1299 
C 2394 941 2630 602 2784 314 
L 3168 666 
C 2982 998 2682 1395 2330 1798 
C 2624 2534 2835 3411 2944 4448 
L 2630 4538 
L 2547 4518 
L 448 4518 
L 448 4064 
L 2419 4064 
C 2323 3373 2170 2752 1965 2202 
C 1626 2554 1267 2899 922 3200 
L 582 2899 
z
M 4896 5376 
L 4896 3834 
L 3085 3834 
L 3085 3373 
L 4896 3373 
L 4896 141 
C 4896 26 4851 -6 4742 -13 
C 4634 -13 4275 -19 3872 0 
C 3936 -147 4006 -371 4032 -506 
C 4576 -506 4902 -493 5094 -410 
C 5293 -326 5370 -179 5370 141 
L 5370 3373 
L 6138 3373 
L 6138 3834 
L 5370 3834 
L 5370 5376 
L 4896 5376 
z
" transform="scale(0.015625)"/>
       <path id="NotoSansCJKjp-Regular-7167" d="M 3379 2605 
L 5254 2605 
L 5254 1632 
L 3379 1632 
L 3379 2605 
z
M 2931 3008 
L 2931 1229 
L 5728 1229 
L 5728 3008 
L 2931 3008 
z
M 2176 800 
C 2253 378 2304 -160 2310 -486 
L 2778 -416 
C 2771 -96 2701 435 2618 845 
L 2176 800 
z
M 3546 819 
C 3712 403 3872 -147 3936 -474 
L 4410 -371 
C 4346 -32 4166 499 3994 902 
L 3546 819 
z
M 4851 851 
C 5158 429 5510 -160 5664 -525 
L 6118 -320 
C 5958 45 5594 614 5286 1030 
L 4851 851 
z
M 1114 986 
C 902 512 563 -19 275 -339 
L 736 -544 
C 1030 -179 1350 378 1574 851 
L 1114 986 
z
M 1050 4672 
L 2010 4672 
L 2010 3546 
L 1050 3546 
L 1050 4672 
z
M 1050 1869 
L 1050 3123 
L 2010 3123 
L 2010 1869 
L 1050 1869 
z
M 595 5101 
L 595 1107 
L 1050 1107 
L 1050 1434 
L 2458 1434 
L 2458 5101 
L 595 5101 
z
M 2739 5114 
L 2739 4685 
L 3808 4685 
C 3680 4090 3379 3680 2534 3450 
C 2630 3373 2752 3200 2803 3091 
C 3776 3392 4141 3910 4282 4685 
L 5427 4685 
C 5382 4077 5338 3827 5254 3744 
C 5210 3699 5152 3693 5062 3693 
C 4960 3693 4698 3693 4416 3718 
C 4486 3610 4531 3443 4538 3322 
C 4832 3302 5120 3309 5267 3315 
C 5434 3328 5542 3366 5645 3469 
C 5779 3616 5843 3994 5901 4928 
C 5907 4992 5914 5114 5914 5114 
L 2739 5114 
z
" transform="scale(0.015625)"/>
      </defs>
      <use xlink:href="#NotoSansCJKjp-Regular-5355"/>
      <use xlink:href="#NotoSansCJKjp-Regular-70b9" transform="translate(99.999985 0)"/>
      <use xlink:href="#NotoSansCJKjp-Regular-5bf9" transform="translate(199.999969 0)"/>
      <use xlink:href="#NotoSansCJKjp-Regular-7167" transform="translate(299.999954 0)"/>
     </g>
    </g>
    <g id="PathCollection_7">
     <g>
      <use xlink:href="#m8b7ecd5766" x="615.90922" y="84.727344" style="fill: #2ca02c; stroke: #2ca02c"/>
     </g>
    </g>
    <g id="text_18">
     <!-- 多点主方案 -->
     <g transform="translate(632.10922 87.089844) scale(0.09 -0.09)">
      <defs>
       <path id="NotoSansCJKjp-Regular-591a" d="M 2899 5389 
C 2458 4845 1619 4243 461 3840 
C 570 3763 723 3597 794 3482 
C 1120 3610 1427 3757 1709 3910 
C 2106 3706 2554 3424 2835 3187 
C 2086 2778 1222 2483 416 2336 
C 499 2227 602 2035 640 1907 
C 2336 2278 4224 3181 5056 4672 
L 4749 4858 
L 4666 4838 
L 3014 4838 
C 3174 4979 3315 5126 3443 5274 
L 2899 5389 
z
M 3251 3437 
C 2989 3661 2528 3942 2118 4154 
C 2259 4243 2394 4333 2522 4429 
L 4352 4429 
C 4070 4058 3686 3725 3251 3437 
z
M 3936 3194 
C 3443 2586 2464 1920 1114 1498 
C 1216 1414 1350 1242 1408 1126 
C 1798 1267 2157 1421 2490 1587 
C 2925 1344 3418 998 3712 723 
C 2893 288 1901 32 896 -90 
C 979 -198 1069 -390 1107 -525 
C 3194 -224 5190 582 6003 2445 
L 5690 2618 
L 5600 2598 
L 4006 2598 
C 4179 2752 4333 2912 4474 3072 
L 3936 3194 
z
M 4147 973 
C 3853 1242 3360 1574 2925 1818 
C 3123 1933 3309 2054 3488 2182 
L 5325 2182 
C 5043 1696 4634 1293 4147 973 
z
" transform="scale(0.015625)"/>
       <path id="NotoSansCJKjp-Regular-4e3b" d="M 2394 5088 
C 2784 4800 3232 4390 3488 4096 
L 659 4096 
L 659 3629 
L 2938 3629 
L 2938 2221 
L 954 2221 
L 954 1754 
L 2938 1754 
L 2938 173 
L 358 173 
L 358 -294 
L 6067 -294 
L 6067 173 
L 3456 173 
L 3456 1754 
L 5478 1754 
L 5478 2221 
L 3456 2221 
L 3456 3629 
L 5741 3629 
L 5741 4096 
L 3661 4096 
L 3968 4320 
C 3712 4621 3194 5056 2784 5350 
L 2394 5088 
z
" transform="scale(0.015625)"/>
      </defs>
      <use xlink:href="#NotoSansCJKjp-Regular-591a"/>
      <use xlink:href="#NotoSansCJKjp-Regular-70b9" transform="translate(99.999985 0)"/>
      <use xlink:href="#NotoSansCJKjp-Regular-4e3b" transform="translate(199.999969 0)"/>
      <use xlink:href="#NotoSansCJKjp-Regular-65b9" transform="translate(299.999954 0)"/>
      <use xlink:href="#NotoSansCJKjp-Regular-6848" transform="translate(399.999939 0)"/>
     </g>
    </g>
    <g id="PathCollection_8">
     <g>
      <use xlink:href="#m1ad597d387" x="615.90922" y="98.452344" style="fill: #d62728; stroke: #d62728"/>
     </g>
    </g>
    <g id="text_19">
     <!-- 节能对照 -->
     <g transform="translate(632.10922 100.814844) scale(0.09 -0.09)">
      <defs>
       <path id="NotoSansCJKjp-Regular-8282" d="M 627 3110 
L 627 2650 
L 2304 2650 
L 2304 -499 
L 2810 -499 
L 2810 2650 
L 4941 2650 
L 4941 986 
C 4941 890 4902 864 4781 858 
C 4653 851 4218 851 3750 864 
C 3814 717 3878 512 3898 365 
C 4506 365 4902 365 5139 442 
C 5370 525 5434 678 5434 973 
L 5434 3110 
L 627 3110 
z
M 4058 5376 
L 4058 4653 
L 2342 4653 
L 2342 5376 
L 1850 5376 
L 1850 4653 
L 352 4653 
L 352 4192 
L 1850 4192 
L 1850 3456 
L 2342 3456 
L 2342 4192 
L 4058 4192 
L 4058 3456 
L 4557 3456 
L 4557 4192 
L 6054 4192 
L 6054 4653 
L 4557 4653 
L 4557 5376 
L 4058 5376 
z
" transform="scale(0.015625)"/>
      </defs>
      <use xlink:href="#NotoSansCJKjp-Regular-8282"/>
      <use xlink:href="#NotoSansCJKjp-Regular-80fd" transform="translate(99.999985 0)"/>
      <use xlink:href="#NotoSansCJKjp-Regular-5bf9" transform="translate(199.999969 0)"/>
      <use xlink:href="#NotoSansCJKjp-Regular-7167" transform="translate(299.999954 0)"/>
     </g>
    </g>
   </g>
  </g>
 </g>
 <defs>
  <clipPath id="p69dedcd033">
   <rect x="39.55" y="29.626406" width="553.722" height="350.11875"/>
  </clipPath>
 </defs>
</svg>
