<?xml version="1.0" encoding="utf-8" standalone="no"?>
<!DOCTYPE svg PUBLIC "-//W3C//DTD SVG 1.1//EN"
  "http://www.w3.org/Graphics/SVG/1.1/DTD/svg11.dtd">
<svg xmlns:xlink="http://www.w3.org/1999/xlink" width="522pt" height="262.8pt" viewBox="0 0 522 262.8" xmlns="http://www.w3.org/2000/svg" version="1.1">
 <metadata>
  <rdf:RDF xmlns:dc="http://purl.org/dc/elements/1.1/" xmlns:cc="http://creativecommons.org/ns#" xmlns:rdf="http://www.w3.org/1999/02/22-rdf-syntax-ns#">
   <cc:Work>
    <dc:type rdf:resource="http://purl.org/dc/dcmitype/StillImage"/>
    <dc:format>image/svg+xml</dc:format>
    <dc:creator>
     <cc:Agent>
      <dc:title>D题数值图原生重绘</dc:title>
     </cc:Agent>
    </dc:creator>
   </cc:Work>
  </rdf:RDF>
 </metadata>
 <defs>
  <style type="text/css">*{stroke-linejoin: round; stroke-linecap: butt}</style>
 </defs>
 <g id="figure_1">
  <g id="patch_1">
   <path d="M 0 262.8 
L 522 262.8 
L 522 0 
L 0 0 
z
" style="fill: #ffffff"/>
  </g>
  <g id="axes_1">
   <g id="patch_2">
    <path d="M 52.4 229.26 
L 518.4 229.26 
L 518.4 22.96 
L 52.4 22.96 
z
" style="fill: #ffffff"/>
   </g>
   <g id="matplotlib.axis_1">
    <g id="xtick_1">
     <g id="line2d_1">
      <path d="M 69.659259 229.26 
L 69.659259 22.96 
" clip-path="url(#p41982bfd6a)" style="fill: none; stroke: #e6eaed; stroke-width: 0.55; stroke-linecap: square"/>
     </g>
     <g id="line2d_2">
      <defs>
       <path id="m769a893297" d="M 0 0 
L 0 3 
" style="stroke: #667582; stroke-width: 0.6"/>
      </defs>
      <g>
       <use xlink:href="#m769a893297" x="69.659259" y="229.26" style="fill: #667582; stroke: #667582; stroke-width: 0.6"/>
      </g>
     </g>
     <g id="text_1">
      <!-- 0.0 -->
      <g style="fill: #667582" transform="translate(63.760392 242.525469) scale(0.085 -0.085)">
       <defs>
        <path id="NotoSansCJKjp-Regular-30" d="M 1779 -83 
C 2669 -83 3238 723 3238 2362 
C 3238 3987 2669 4774 1779 4774 
C 883 4774 320 3987 320 2362 
C 320 723 883 -83 1779 -83 
z
M 1779 390 
C 1248 390 883 986 883 2362 
C 883 3731 1248 4314 1779 4314 
C 2310 4314 2675 3731 2675 2362 
C 2675 986 2310 390 1779 390 
z
" transform="scale(0.015625)"/>
        <path id="NotoSansCJKjp-Regular-2e" d="M 890 -83 
C 1120 -83 1312 96 1312 358 
C 1312 627 1120 806 890 806 
C 653 806 467 627 467 358 
C 467 96 653 -83 890 -83 
z
" transform="scale(0.015625)"/>
       </defs>
       <use xlink:href="#NotoSansCJKjp-Regular-30"/>
       <use xlink:href="#NotoSansCJKjp-Regular-2e" transform="translate(55.499985 0)"/>
       <use xlink:href="#NotoSansCJKjp-Regular-30" transform="translate(83.299973 0)"/>
      </g>
     </g>
    </g>
    <g id="xtick_2">
     <g id="line2d_3">
      <path d="M 155.955556 229.26 
L 155.955556 22.96 
" clip-path="url(#p41982bfd6a)" style="fill: none; stroke: #e6eaed; stroke-width: 0.55; stroke-linecap: square"/>
     </g>
     <g id="line2d_4">
      <g>
       <use xlink:href="#m769a893297" x="155.955556" y="229.26" style="fill: #667582; stroke: #667582; stroke-width: 0.6"/>
      </g>
     </g>
     <g id="text_2">
      <!-- 0.2 -->
      <g style="fill: #667582" transform="translate(150.056688 242.525469) scale(0.085 -0.085)">
       <defs>
        <path id="NotoSansCJKjp-Regular-32" d="M 282 0 
L 3232 0 
L 3232 506 
L 1933 506 
C 1696 506 1408 480 1165 461 
C 2266 1504 3008 2458 3008 3398 
C 3008 4230 2477 4774 1638 4774 
C 1043 4774 634 4506 256 4090 
L 595 3757 
C 858 4070 1184 4301 1568 4301 
C 2150 4301 2432 3910 2432 3373 
C 2432 2566 1754 1632 282 346 
L 282 0 
z
" transform="scale(0.015625)"/>
       </defs>
       <use xlink:href="#NotoSansCJKjp-Regular-30"/>
       <use xlink:href="#NotoSansCJKjp-Regular-2e" transform="translate(55.499985 0)"/>
       <use xlink:href="#NotoSansCJKjp-Regular-32" transform="translate(83.299973 0)"/>
      </g>
     </g>
    </g>
    <g id="xtick_3">
     <g id="line2d_5">
      <path d="M 242.251852 229.26 
L 242.251852 22.96 
" clip-path="url(#p41982bfd6a)" style="fill: none; stroke: #e6eaed; stroke-width: 0.55; stroke-linecap: square"/>
     </g>
     <g id="line2d_6">
      <g>
       <use xlink:href="#m769a893297" x="242.251852" y="229.26" style="fill: #667582; stroke: #667582; stroke-width: 0.6"/>
      </g>
     </g>
     <g id="text_3">
      <!-- 0.4 -->
      <g style="fill: #667582" transform="translate(236.352985 242.525469) scale(0.085 -0.085)">
       <defs>
        <path id="NotoSansCJKjp-Regular-34" d="M 2176 0 
L 2726 0 
L 2726 1293 
L 3354 1293 
L 3354 1760 
L 2726 1760 
L 2726 4691 
L 2080 4691 
L 128 1677 
L 128 1293 
L 2176 1293 
L 2176 0 
z
M 2176 1760 
L 736 1760 
L 1805 3360 
C 1939 3590 2067 3827 2182 4051 
L 2208 4051 
C 2195 3814 2176 3430 2176 3200 
L 2176 1760 
z
" transform="scale(0.015625)"/>
       </defs>
       <use xlink:href="#NotoSansCJKjp-Regular-30"/>
       <use xlink:href="#NotoSansCJKjp-Regular-2e" transform="translate(55.499985 0)"/>
       <use xlink:href="#NotoSansCJKjp-Regular-34" transform="translate(83.299973 0)"/>
      </g>
     </g>
    </g>
    <g id="xtick_4">
     <g id="line2d_7">
      <path d="M 328.548148 229.26 
L 328.548148 22.96 
" clip-path="url(#p41982bfd6a)" style="fill: none; stroke: #e6eaed; stroke-width: 0.55; stroke-linecap: square"/>
     </g>
     <g id="line2d_8">
      <g>
       <use xlink:href="#m769a893297" x="328.548148" y="229.26" style="fill: #667582; stroke: #667582; stroke-width: 0.6"/>
      </g>
     </g>
     <g id="text_4">
      <!-- 0.6 -->
      <g style="fill: #667582" transform="translate(322.649281 242.525469) scale(0.085 -0.085)">
       <defs>
        <path id="NotoSansCJKjp-Regular-36" d="M 1926 -83 
C 2656 -83 3277 531 3277 1440 
C 3277 2426 2765 2912 1971 2912 
C 1606 2912 1197 2701 909 2349 
C 934 3802 1466 4294 2118 4294 
C 2400 4294 2682 4154 2861 3936 
L 3194 4294 
C 2931 4576 2579 4774 2093 4774 
C 1184 4774 358 4077 358 2240 
C 358 691 1030 -83 1926 -83 
z
M 922 1882 
C 1229 2317 1587 2477 1875 2477 
C 2445 2477 2720 2074 2720 1440 
C 2720 800 2374 378 1926 378 
C 1338 378 986 909 922 1882 
z
" transform="scale(0.015625)"/>
       </defs>
       <use xlink:href="#NotoSansCJKjp-Regular-30"/>
       <use xlink:href="#NotoSansCJKjp-Regular-2e" transform="translate(55.499985 0)"/>
       <use xlink:href="#NotoSansCJKjp-Regular-36" transform="translate(83.299973 0)"/>
      </g>
     </g>
    </g>
    <g id="xtick_5">
     <g id="line2d_9">
      <path d="M 414.844444 229.26 
L 414.844444 22.96 
" clip-path="url(#p41982bfd6a)" style="fill: none; stroke: #e6eaed; stroke-width: 0.55; stroke-linecap: square"/>
     </g>
     <g id="line2d_10">
      <g>
       <use xlink:href="#m769a893297" x="414.844444" y="229.26" style="fill: #667582; stroke: #667582; stroke-width: 0.6"/>
      </g>
     </g>
     <g id="text_5">
      <!-- 0.8 -->
      <g style="fill: #667582" transform="translate(408.945577 242.525469) scale(0.085 -0.085)">
       <defs>
        <path id="NotoSansCJKjp-Regular-38" d="M 1792 -83 
C 2669 -83 3258 448 3258 1126 
C 3258 1773 2880 2125 2470 2362 
L 2470 2394 
C 2746 2611 3091 3034 3091 3526 
C 3091 4250 2605 4762 1805 4762 
C 1075 4762 518 4282 518 3571 
C 518 3078 813 2726 1152 2490 
L 1152 2464 
C 723 2234 294 1792 294 1165 
C 294 442 922 -83 1792 -83 
z
M 2112 2547 
C 1555 2765 1050 3014 1050 3571 
C 1050 4026 1363 4326 1798 4326 
C 2298 4326 2592 3962 2592 3494 
C 2592 3149 2426 2829 2112 2547 
z
M 1798 352 
C 1235 352 813 717 813 1216 
C 813 1664 1082 2035 1459 2278 
C 2125 2010 2701 1779 2701 1146 
C 2701 678 2342 352 1798 352 
z
" transform="scale(0.015625)"/>
       </defs>
       <use xlink:href="#NotoSansCJKjp-Regular-30"/>
       <use xlink:href="#NotoSansCJKjp-Regular-2e" transform="translate(55.499985 0)"/>
       <use xlink:href="#NotoSansCJKjp-Regular-38" transform="translate(83.299973 0)"/>
      </g>
     </g>
    </g>
    <g id="xtick_6">
     <g id="line2d_11">
      <path d="M 501.140741 229.26 
L 501.140741 22.96 
" clip-path="url(#p41982bfd6a)" style="fill: none; stroke: #e6eaed; stroke-width: 0.55; stroke-linecap: square"/>
     </g>
     <g id="line2d_12">
      <g>
       <use xlink:href="#m769a893297" x="501.140741" y="229.26" style="fill: #667582; stroke: #667582; stroke-width: 0.6"/>
      </g>
     </g>
     <g id="text_6">
      <!-- 1.0 -->
      <g style="fill: #667582" transform="translate(495.241874 242.525469) scale(0.085 -0.085)">
       <defs>
        <path id="NotoSansCJKjp-Regular-31" d="M 563 0 
L 3136 0 
L 3136 486 
L 2195 486 
L 2195 4691 
L 1747 4691 
C 1491 4544 1190 4435 774 4358 
L 774 3987 
L 1613 3987 
L 1613 486 
L 563 486 
L 563 0 
z
" transform="scale(0.015625)"/>
       </defs>
       <use xlink:href="#NotoSansCJKjp-Regular-31"/>
       <use xlink:href="#NotoSansCJKjp-Regular-2e" transform="translate(55.499985 0)"/>
       <use xlink:href="#NotoSansCJKjp-Regular-30" transform="translate(83.299973 0)"/>
      </g>
     </g>
    </g>
    <g id="text_7">
     <!-- 需要增补的分类型件数 -->
     <g style="fill: #253342" transform="translate(235.4 256.431875) scale(0.1 -0.1)">
      <defs>
       <path id="NotoSansCJKjp-Regular-9700" d="M 1242 3654 
L 1242 3334 
L 2618 3334 
L 2618 3654 
L 1242 3654 
z
M 1101 2982 
L 1101 2662 
L 2624 2662 
L 2624 2982 
L 1101 2982 
z
M 3744 2982 
L 3744 2656 
L 5312 2656 
L 5312 2982 
L 3744 2982 
z
M 3744 3654 
L 3744 3334 
L 5158 3334 
L 5158 3654 
L 3744 3654 
z
M 486 4358 
L 486 3136 
L 922 3136 
L 922 4006 
L 2950 4006 
L 2950 2490 
L 3411 2490 
L 3411 4006 
L 5472 4006 
L 5472 3136 
L 5920 3136 
L 5920 4358 
L 3411 4358 
L 3411 4736 
L 5536 4736 
L 5536 5120 
L 858 5120 
L 858 4736 
L 2950 4736 
L 2950 4358 
L 486 4358 
z
M 915 1434 
L 915 -499 
L 1370 -499 
L 1370 1037 
L 2317 1037 
L 2317 -461 
L 2758 -461 
L 2758 1037 
L 3738 1037 
L 3738 -461 
L 4179 -461 
L 4179 1037 
L 5178 1037 
L 5178 -26 
C 5178 -90 5165 -109 5088 -109 
C 5024 -115 4806 -115 4544 -109 
C 4602 -224 4672 -390 4698 -512 
C 5043 -512 5286 -512 5446 -435 
C 5606 -371 5645 -256 5645 -32 
L 5645 1434 
L 3226 1434 
L 3398 1888 
L 6003 1888 
L 6003 2278 
L 416 2278 
L 416 1888 
L 2899 1888 
C 2861 1741 2816 1581 2765 1434 
L 915 1434 
z
" transform="scale(0.015625)"/>
       <path id="NotoSansCJKjp-Regular-8981" d="M 762 4128 
L 762 2470 
L 2458 2470 
L 2074 1882 
L 294 1882 
L 294 1478 
L 1792 1478 
C 1549 1133 1306 800 1107 550 
L 1562 390 
L 1696 563 
C 2086 486 2470 403 2848 314 
C 2214 90 1395 -32 378 -83 
C 461 -192 538 -371 570 -506 
C 1837 -416 2816 -224 3546 141 
C 4358 -70 5082 -307 5626 -525 
L 5920 -134 
C 5421 58 4768 262 4038 454 
C 4384 723 4653 1056 4838 1478 
L 6112 1478 
L 6112 1882 
L 2624 1882 
L 2982 2426 
L 2810 2470 
L 5683 2470 
L 5683 4128 
L 4141 4128 
L 4141 4672 
L 5952 4672 
L 5952 5101 
L 442 5101 
L 442 4672 
L 2189 4672 
L 2189 4128 
L 762 4128 
z
M 2355 1478 
L 4307 1478 
C 4102 1114 3821 819 3450 595 
C 2963 710 2458 819 1952 915 
L 2355 1478 
z
M 2643 4672 
L 3686 4672 
L 3686 4128 
L 2643 4128 
L 2643 4672 
z
M 1216 3731 
L 2189 3731 
L 2189 2861 
L 1216 2861 
L 1216 3731 
z
M 2643 3731 
L 3686 3731 
L 3686 2861 
L 2643 2861 
L 2643 3731 
z
M 4141 3731 
L 5210 3731 
L 5210 2861 
L 4141 2861 
L 4141 3731 
z
" transform="scale(0.015625)"/>
       <path id="NotoSansCJKjp-Regular-589e" d="M 2995 3405 
C 3110 3174 3219 2861 3264 2662 
L 3571 2765 
C 3533 2957 3411 3264 3290 3488 
L 2995 3405 
z
M 4768 3494 
C 4710 3290 4582 2970 4486 2758 
L 4742 2662 
C 4858 2854 4986 3123 5107 3386 
L 4768 3494 
z
M 3002 5030 
C 2765 4576 2374 4128 1978 3808 
L 1427 3808 
L 1427 5286 
L 960 5286 
L 960 3808 
L 282 3808 
L 282 3354 
L 960 3354 
L 960 1293 
L 179 986 
L 352 512 
C 896 742 1581 1050 2240 1338 
L 2125 1773 
L 1427 1485 
L 1427 3354 
L 1997 3354 
L 1997 3616 
C 2074 3539 2157 3450 2202 3392 
L 2368 3533 
L 2368 2182 
L 5805 2182 
L 5805 3571 
L 5952 3462 
C 6029 3578 6170 3744 6266 3834 
C 5786 4122 5235 4672 4934 5210 
L 3539 5210 
L 3539 4787 
L 4685 4787 
C 4864 4512 5088 4243 5331 4000 
L 2816 4000 
C 3053 4282 3270 4589 3430 4902 
L 3002 5030 
z
M 2675 1824 
L 2675 -512 
L 3130 -512 
L 3130 -269 
L 5030 -269 
L 5030 -493 
L 5504 -493 
L 5504 1824 
L 2675 1824 
z
M 3130 102 
L 3130 614 
L 5030 614 
L 5030 102 
L 3130 102 
z
M 3130 954 
L 3130 1453 
L 5030 1453 
L 5030 954 
L 3130 954 
z
M 2752 3635 
L 3872 3635 
L 3872 2554 
L 2752 2554 
L 2752 3635 
z
M 4237 3635 
L 5395 3635 
L 5395 2554 
L 4237 2554 
L 4237 3635 
z
" transform="scale(0.015625)"/>
       <path id="NotoSansCJKjp-Regular-8865" d="M 1062 5082 
C 1312 4838 1594 4493 1709 4256 
L 2080 4538 
C 1946 4762 1670 5094 1408 5331 
L 1062 5082 
z
M 346 4237 
L 346 3795 
L 2253 3795 
C 1786 2918 947 2035 179 1542 
C 262 1453 397 1229 454 1101 
C 787 1338 1139 1645 1472 1997 
L 1472 -506 
L 1952 -506 
L 1952 2138 
C 2285 1779 2726 1274 2912 1018 
L 3206 1389 
L 2598 2022 
C 2822 2221 3085 2490 3322 2726 
L 2950 3027 
C 2803 2810 2560 2515 2342 2278 
L 2003 2611 
C 2355 3066 2662 3565 2886 4064 
L 2605 4256 
L 2515 4237 
L 346 4237 
z
M 3789 5376 
L 3789 -493 
L 4301 -493 
L 4301 3008 
C 4858 2598 5491 2074 5818 1715 
L 6195 2080 
C 5824 2464 5056 3053 4474 3456 
L 4301 3302 
L 4301 5376 
L 3789 5376 
z
" transform="scale(0.015625)"/>
       <path id="NotoSansCJKjp-Regular-7684" d="M 3533 2707 
C 3885 2240 4320 1600 4512 1210 
L 4922 1466 
C 4710 1843 4269 2464 3904 2918 
L 3533 2707 
z
M 1536 5389 
C 1485 5082 1376 4659 1274 4346 
L 557 4346 
L 557 -346 
L 998 -346 
L 998 160 
L 2784 160 
L 2784 4346 
L 1715 4346 
C 1824 4621 1946 4979 2054 5299 
L 1536 5389 
z
M 998 3917 
L 2342 3917 
L 2342 2566 
L 998 2566 
L 998 3917 
z
M 998 595 
L 998 2144 
L 2342 2144 
L 2342 595 
L 998 595 
z
M 3827 5402 
C 3622 4518 3277 3635 2835 3066 
C 2950 3002 3149 2867 3238 2790 
C 3456 3098 3661 3488 3840 3923 
L 5478 3923 
C 5402 1357 5299 371 5094 154 
C 5018 64 4947 45 4819 45 
C 4672 45 4288 51 3866 83 
C 3955 -38 4013 -243 4026 -378 
C 4384 -397 4762 -410 4979 -390 
C 5210 -365 5350 -314 5498 -122 
C 5754 192 5843 1184 5939 4122 
C 5946 4186 5946 4365 5946 4365 
L 4013 4365 
C 4115 4666 4211 4986 4288 5299 
L 3827 5402 
z
" transform="scale(0.015625)"/>
       <path id="NotoSansCJKjp-Regular-5206" d="M 2074 5248 
C 1677 4256 966 3373 147 2829 
C 262 2739 474 2554 563 2451 
C 1363 3059 2118 4019 2586 5101 
L 2074 5248 
z
M 4307 5261 
L 3846 5075 
C 4326 4122 5139 3085 5850 2509 
C 5939 2643 6118 2829 6253 2931 
C 5549 3424 4723 4397 4307 5261 
z
M 1197 2957 
L 1197 2490 
L 2509 2490 
C 2368 1402 2010 378 486 -122 
C 595 -224 736 -416 800 -544 
C 2445 51 2854 1216 3027 2490 
L 4685 2490 
C 4608 864 4512 224 4346 58 
C 4282 -6 4205 -26 4077 -26 
C 3923 -26 3533 -19 3110 19 
C 3200 -115 3258 -320 3270 -461 
C 3674 -486 4070 -493 4288 -474 
C 4506 -454 4653 -410 4781 -243 
C 5005 0 5094 736 5190 2726 
C 5197 2790 5197 2957 5197 2957 
L 1197 2957 
z
" transform="scale(0.015625)"/>
       <path id="NotoSansCJKjp-Regular-7c7b" d="M 1171 5011 
C 1434 4749 1709 4397 1843 4141 
L 474 4141 
L 474 3693 
L 2541 3693 
C 2016 3162 1171 2726 339 2528 
C 448 2432 589 2246 653 2125 
C 1517 2374 2387 2880 2944 3520 
L 2944 2426 
L 3424 2426 
L 3424 3539 
C 3981 2906 4851 2419 5766 2195 
C 5837 2323 5965 2502 6067 2592 
C 5197 2778 4358 3181 3834 3693 
L 5984 3693 
L 5984 4141 
L 4486 4141 
C 4730 4384 5037 4742 5286 5082 
L 4774 5242 
C 4602 4947 4294 4525 4058 4262 
L 4371 4141 
L 3424 4141 
L 3424 5370 
L 2944 5370 
L 2944 4141 
L 1958 4141 
L 2291 4307 
C 2163 4563 1856 4941 1574 5197 
L 1171 5011 
z
M 2970 2285 
C 2944 2035 2906 1805 2854 1594 
L 442 1594 
L 442 1146 
L 2688 1146 
C 2381 531 1741 141 294 -70 
C 390 -179 506 -384 544 -512 
C 2150 -243 2854 256 3194 1050 
C 3667 134 4518 -339 5862 -506 
C 5926 -365 6061 -160 6170 -51 
C 4915 58 4077 435 3648 1146 
L 6010 1146 
L 6010 1594 
L 4973 1594 
L 5242 1837 
C 4986 2003 4493 2227 4122 2374 
L 3840 2131 
C 4198 1978 4659 1760 4909 1594 
L 3366 1594 
C 3411 1805 3450 2035 3475 2285 
L 2970 2285 
z
" transform="scale(0.015625)"/>
       <path id="NotoSansCJKjp-Regular-578b" d="M 4064 5011 
L 4064 2867 
L 4506 2867 
L 4506 5011 
L 4064 5011 
z
M 5261 5338 
L 5261 2477 
C 5261 2394 5235 2368 5133 2362 
C 5037 2355 4717 2355 4352 2368 
C 4422 2240 4486 2054 4512 1926 
C 4966 1926 5280 1933 5472 2010 
C 5664 2080 5715 2202 5715 2470 
L 5715 5338 
L 5261 5338 
z
M 2483 4691 
L 2483 3808 
L 1690 3808 
L 1690 3846 
L 1690 4691 
L 2483 4691 
z
M 429 3808 
L 429 3379 
L 1210 3379 
C 1139 2950 928 2515 378 2176 
C 467 2112 627 1933 691 1843 
C 1344 2246 1587 2822 1658 3379 
L 2483 3379 
L 2483 2003 
L 2938 2003 
L 2938 3379 
L 3667 3379 
L 3667 3808 
L 2938 3808 
L 2938 4691 
L 3533 4691 
L 3533 5114 
L 640 5114 
L 640 4691 
L 1248 4691 
L 1248 3853 
L 1248 3808 
L 429 3808 
z
M 2989 2125 
L 2989 1414 
L 966 1414 
L 966 973 
L 2989 973 
L 2989 160 
L 301 160 
L 301 -288 
L 6093 -288 
L 6093 160 
L 3482 160 
L 3482 973 
L 5427 973 
L 5427 1414 
L 3482 1414 
L 3482 2125 
L 2989 2125 
z
" transform="scale(0.015625)"/>
       <path id="NotoSansCJKjp-Regular-4ef6" d="M 2029 2182 
L 2029 1715 
L 3866 1715 
L 3866 -512 
L 4346 -512 
L 4346 1715 
L 6099 1715 
L 6099 2182 
L 4346 2182 
L 4346 3597 
L 5818 3597 
L 5818 4064 
L 4346 4064 
L 4346 5299 
L 3866 5299 
L 3866 4064 
L 3008 4064 
C 3091 4352 3162 4659 3226 4960 
L 2765 5056 
C 2618 4218 2349 3392 1978 2861 
C 2093 2803 2298 2688 2387 2618 
C 2560 2886 2720 3226 2854 3597 
L 3866 3597 
L 3866 2182 
L 2029 2182 
z
M 1715 5350 
C 1370 4384 806 3424 205 2797 
C 288 2688 429 2438 480 2323 
C 685 2541 877 2797 1069 3072 
L 1069 -499 
L 1530 -499 
L 1530 3821 
C 1773 4269 1990 4742 2170 5216 
L 1715 5350 
z
" transform="scale(0.015625)"/>
       <path id="NotoSansCJKjp-Regular-6570" d="M 2803 5254 
C 2688 4998 2483 4627 2317 4403 
L 2643 4243 
C 2816 4454 3027 4781 3219 5075 
L 2803 5254 
z
M 531 5075 
C 704 4806 870 4454 928 4230 
L 1312 4397 
C 1248 4627 1075 4973 890 5222 
L 531 5075 
z
M 4026 5382 
C 3846 4243 3507 3162 2970 2490 
C 3078 2413 3283 2246 3360 2163 
C 3533 2394 3693 2669 3827 2970 
C 3974 2310 4160 1709 4410 1184 
C 4090 698 3667 314 3110 19 
C 2912 166 2656 326 2374 480 
C 2598 774 2746 1126 2829 1562 
L 3398 1562 
L 3398 1958 
L 1677 1958 
L 1894 2413 
L 1779 2438 
L 2061 2438 
L 2061 3398 
C 2374 3168 2771 2854 2938 2701 
L 3206 3046 
C 3034 3174 2336 3616 2061 3776 
L 2061 3802 
L 3373 3802 
L 3373 4198 
L 2061 4198 
L 2061 5382 
L 1613 5382 
L 1613 4198 
L 288 4198 
L 288 3802 
L 1485 3802 
C 1171 3379 678 2982 218 2784 
C 314 2694 422 2528 480 2419 
C 870 2637 1293 2989 1613 3373 
L 1613 2477 
L 1440 2515 
L 1178 1958 
L 250 1958 
L 250 1562 
L 979 1562 
C 806 1222 627 896 486 653 
L 909 506 
L 1005 678 
C 1222 589 1434 493 1638 384 
C 1306 147 858 -13 269 -109 
C 352 -211 448 -384 480 -512 
C 1171 -365 1683 -154 2061 160 
C 2355 -13 2611 -186 2810 -352 
L 2963 -192 
C 3046 -301 3136 -448 3174 -531 
C 3802 -205 4288 205 4666 710 
C 4979 192 5370 -224 5862 -512 
C 5939 -378 6093 -192 6208 -96 
C 5690 173 5280 614 4960 1165 
C 5350 1856 5594 2707 5754 3750 
L 6144 3750 
L 6144 4198 
L 4262 4198 
C 4358 4557 4442 4928 4506 5312 
L 4026 5382 
z
M 1478 1562 
L 2368 1562 
C 2285 1216 2157 928 1965 698 
C 1715 819 1459 934 1197 1030 
L 1478 1562 
z
M 4134 3750 
L 5254 3750 
C 5139 2950 4966 2266 4698 1696 
C 4435 2298 4250 3002 4134 3750 
z
" transform="scale(0.015625)"/>
      </defs>
      <use xlink:href="#NotoSansCJKjp-Regular-9700"/>
      <use xlink:href="#NotoSansCJKjp-Regular-8981" transform="translate(99.999985 0)"/>
      <use xlink:href="#NotoSansCJKjp-Regular-589e" transform="translate(199.999969 0)"/>
      <use xlink:href="#NotoSansCJKjp-Regular-8865" transform="translate(299.999954 0)"/>
      <use xlink:href="#NotoSansCJKjp-Regular-7684" transform="translate(399.999939 0)"/>
      <use xlink:href="#NotoSansCJKjp-Regular-5206" transform="translate(499.999924 0)"/>
      <use xlink:href="#NotoSansCJKjp-Regular-7c7b" transform="translate(599.999908 0)"/>
      <use xlink:href="#NotoSansCJKjp-Regular-578b" transform="translate(699.999893 0)"/>
      <use xlink:href="#NotoSansCJKjp-Regular-4ef6" transform="translate(799.999878 0)"/>
      <use xlink:href="#NotoSansCJKjp-Regular-6570" transform="translate(899.999863 0)"/>
     </g>
    </g>
   </g>
   <g id="matplotlib.axis_2">
    <g id="ytick_1">
     <g id="line2d_13">
      <defs>
       <path id="m06ea2e67d2" d="M 0 0 
L -3 0 
" style="stroke: #667582; stroke-width: 0.6"/>
      </defs>
      <g>
       <use xlink:href="#m06ea2e67d2" x="52.4" y="42.924516" style="fill: #667582; stroke: #667582; stroke-width: 0.6"/>
      </g>
     </g>
     <g id="text_8">
      <!-- A型运输机 -->
      <g style="fill: #667582" transform="translate(6.732266 46.307251) scale(0.085 -0.085)">
       <defs>
        <path id="NotoSansCJKjp-Regular-41" d="M 26 0 
L 621 0 
L 1075 1434 
L 2790 1434 
L 3238 0 
L 3866 0 
L 2272 4691 
L 1613 4691 
L 26 0 
z
M 1222 1901 
L 1453 2624 
C 1619 3155 1773 3661 1920 4211 
L 1946 4211 
C 2099 3667 2246 3155 2419 2624 
L 2643 1901 
L 1222 1901 
z
" transform="scale(0.015625)"/>
        <path id="NotoSansCJKjp-Regular-8fd0" d="M 576 4998 
C 960 4787 1408 4448 1619 4198 
L 1958 4525 
C 1741 4774 1280 5094 896 5299 
L 576 4998 
z
M 326 3699 
C 730 3494 1210 3174 1434 2925 
L 1766 3270 
C 1530 3514 1043 3821 640 4013 
L 326 3699 
z
M 2458 5011 
L 2458 4557 
L 5677 4557 
L 5677 5011 
L 2458 5011 
z
M 1606 2400 
L 294 2400 
L 294 1952 
L 1139 1952 
L 1139 749 
C 832 480 493 218 211 19 
L 461 -461 
C 794 -179 1107 96 1402 371 
C 1811 -134 2394 -358 3238 -390 
C 3955 -416 5299 -403 6010 -371 
C 6035 -230 6112 -6 6170 109 
C 5402 58 3942 38 3232 64 
C 2483 96 1920 314 1606 781 
L 1606 2400 
z
M 4506 2490 
C 4749 2195 4998 1843 5216 1498 
L 3149 1338 
C 3392 1837 3667 2496 3885 3059 
L 6144 3059 
L 6144 3514 
L 2042 3514 
L 2042 3059 
L 3322 3059 
C 3155 2490 2893 1792 2662 1299 
L 2093 1261 
L 2170 781 
C 3021 858 4262 966 5453 1082 
C 5555 890 5638 710 5696 557 
L 6118 787 
C 5914 1312 5382 2099 4890 2682 
L 4506 2490 
z
" transform="scale(0.015625)"/>
        <path id="NotoSansCJKjp-Regular-8f93" d="M 4698 2861 
L 4698 544 
L 5075 544 
L 5075 2861 
L 4698 2861 
z
M 5510 3098 
L 5510 32 
C 5510 -38 5485 -58 5414 -64 
C 5331 -64 5075 -64 4781 -58 
C 4845 -173 4896 -346 4909 -454 
C 5286 -454 5542 -448 5696 -384 
C 5856 -314 5901 -198 5901 32 
L 5901 3098 
L 5510 3098 
z
M 454 2112 
C 506 2163 691 2202 896 2202 
L 1402 2202 
L 1402 1318 
C 973 1216 576 1126 269 1069 
L 378 614 
L 1402 877 
L 1402 -506 
L 1824 -506 
L 1824 986 
L 2355 1126 
L 2317 1530 
L 1824 1414 
L 1824 2202 
L 2336 2202 
L 2336 2643 
L 1824 2643 
L 1824 3616 
L 1402 3616 
L 1402 2643 
L 845 2643 
C 1011 3091 1171 3622 1299 4173 
L 2349 4173 
L 2349 4608 
L 1389 4608 
C 1440 4838 1478 5069 1510 5293 
L 1062 5370 
C 1037 5120 1005 4858 960 4608 
L 301 4608 
L 301 4173 
L 877 4173 
C 762 3642 640 3206 582 3040 
C 493 2752 416 2547 307 2515 
C 358 2406 429 2202 454 2112 
z
M 4218 5395 
C 3795 4723 3002 4090 2227 3731 
C 2342 3635 2470 3488 2541 3373 
C 2714 3462 2886 3565 3053 3674 
L 3053 3405 
L 5421 3405 
L 5421 3718 
C 5581 3622 5754 3526 5926 3437 
C 5984 3565 6118 3718 6234 3814 
C 5562 4102 4954 4467 4467 5011 
L 4608 5222 
L 4218 5395 
z
M 3238 3802 
C 3597 4064 3936 4371 4218 4698 
C 4544 4339 4896 4051 5286 3802 
L 3238 3802 
z
M 3930 2598 
L 3930 2093 
L 3053 2093 
L 3053 2598 
L 3930 2598 
z
M 2656 2982 
L 2656 -486 
L 3053 -486 
L 3053 832 
L 3930 832 
L 3930 -6 
C 3930 -64 3917 -77 3866 -83 
C 3802 -83 3635 -83 3437 -77 
C 3494 -192 3546 -365 3558 -474 
C 3834 -474 4032 -474 4166 -403 
C 4301 -333 4333 -211 4333 -6 
L 4333 2982 
L 2656 2982 
z
M 3053 1722 
L 3930 1722 
L 3930 1197 
L 3053 1197 
L 3053 1722 
z
" transform="scale(0.015625)"/>
        <path id="NotoSansCJKjp-Regular-673a" d="M 3187 5011 
L 3187 2957 
C 3187 1965 3098 691 2234 -205 
C 2342 -262 2528 -422 2598 -512 
C 3520 435 3654 1888 3654 2957 
L 3654 4557 
L 4858 4557 
L 4858 435 
C 4858 -115 4896 -230 5005 -326 
C 5101 -410 5242 -448 5370 -448 
C 5453 -448 5600 -448 5696 -448 
C 5830 -448 5946 -422 6035 -358 
C 6131 -294 6182 -186 6214 0 
C 6240 160 6266 634 6266 998 
C 6144 1037 5997 1114 5901 1203 
C 5894 774 5888 435 5869 288 
C 5862 141 5843 83 5805 45 
C 5779 13 5728 0 5677 0 
C 5613 0 5536 0 5491 0 
C 5440 0 5408 13 5376 38 
C 5344 64 5331 186 5331 397 
L 5331 5011 
L 3187 5011 
z
M 1395 5376 
L 1395 4006 
L 333 4006 
L 333 3546 
L 1331 3546 
C 1101 2656 634 1658 179 1120 
C 256 1005 378 813 429 685 
C 787 1126 1133 1850 1395 2598 
L 1395 -506 
L 1862 -506 
L 1862 2432 
C 2112 2112 2413 1715 2541 1498 
L 2842 1894 
C 2694 2061 2086 2746 1862 2970 
L 1862 3546 
L 2810 3546 
L 2810 4006 
L 1862 4006 
L 1862 5376 
L 1395 5376 
z
" transform="scale(0.015625)"/>
       </defs>
       <use xlink:href="#NotoSansCJKjp-Regular-41"/>
       <use xlink:href="#NotoSansCJKjp-Regular-578b" transform="translate(60.799988 0)"/>
       <use xlink:href="#NotoSansCJKjp-Regular-8fd0" transform="translate(160.799973 0)"/>
       <use xlink:href="#NotoSansCJKjp-Regular-8f93" transform="translate(260.799957 0)"/>
       <use xlink:href="#NotoSansCJKjp-Regular-673a" transform="translate(360.799942 0)"/>
      </g>
     </g>
    </g>
    <g id="ytick_2">
     <g id="line2d_14">
      <g>
       <use xlink:href="#m06ea2e67d2" x="52.4" y="66.691797" style="fill: #667582; stroke: #667582; stroke-width: 0.6"/>
      </g>
     </g>
     <g id="text_9">
      <!-- B型运输机 -->
      <g style="fill: #667582" transform="translate(6.315234 70.074532) scale(0.085 -0.085)">
       <defs>
        <path id="NotoSansCJKjp-Regular-42" d="M 646 0 
L 2138 0 
C 3187 0 3917 454 3917 1376 
C 3917 2016 3520 2387 2963 2496 
L 2963 2528 
C 3405 2669 3648 3078 3648 3546 
C 3648 4371 2982 4691 2035 4691 
L 646 4691 
L 646 0 
z
M 1235 2701 
L 1235 4224 
L 1958 4224 
C 2694 4224 3066 4019 3066 3469 
C 3066 2989 2739 2701 1933 2701 
L 1235 2701 
z
M 1235 474 
L 1235 2240 
L 2054 2240 
C 2880 2240 3334 1978 3334 1395 
C 3334 762 2861 474 2054 474 
L 1235 474 
z
" transform="scale(0.015625)"/>
       </defs>
       <use xlink:href="#NotoSansCJKjp-Regular-42"/>
       <use xlink:href="#NotoSansCJKjp-Regular-578b" transform="translate(65.699997 0)"/>
       <use xlink:href="#NotoSansCJKjp-Regular-8fd0" transform="translate(165.699982 0)"/>
       <use xlink:href="#NotoSansCJKjp-Regular-8f93" transform="translate(265.699966 0)"/>
       <use xlink:href="#NotoSansCJKjp-Regular-673a" transform="translate(365.699951 0)"/>
      </g>
     </g>
    </g>
    <g id="ytick_3">
     <g id="line2d_15">
      <g>
       <use xlink:href="#m06ea2e67d2" x="52.4" y="90.459078" style="fill: #667582; stroke: #667582; stroke-width: 0.6"/>
      </g>
     </g>
     <g id="text_10">
      <!-- C型运输机 -->
      <g style="fill: #667582" transform="translate(6.477266 93.841813) scale(0.085 -0.085)">
       <defs>
        <path id="NotoSansCJKjp-Regular-43" d="M 2413 -83 
C 3021 -83 3482 160 3853 589 
L 3526 966 
C 3226 634 2886 435 2438 435 
C 1542 435 979 1178 979 2362 
C 979 3533 1574 4256 2458 4256 
C 2861 4256 3168 4077 3418 3814 
L 3738 4198 
C 3469 4499 3021 4774 2451 4774 
C 1261 4774 371 3859 371 2342 
C 371 819 1242 -83 2413 -83 
z
" transform="scale(0.015625)"/>
       </defs>
       <use xlink:href="#NotoSansCJKjp-Regular-43"/>
       <use xlink:href="#NotoSansCJKjp-Regular-578b" transform="translate(63.799988 0)"/>
       <use xlink:href="#NotoSansCJKjp-Regular-8fd0" transform="translate(163.799973 0)"/>
       <use xlink:href="#NotoSansCJKjp-Regular-8f93" transform="translate(263.799957 0)"/>
       <use xlink:href="#NotoSansCJKjp-Regular-673a" transform="translate(363.799942 0)"/>
      </g>
     </g>
    </g>
    <g id="ytick_4">
     <g id="line2d_16">
      <g>
       <use xlink:href="#m06ea2e67d2" x="52.4" y="114.226359" style="fill: #667582; stroke: #667582; stroke-width: 0.6"/>
      </g>
     </g>
     <g id="text_11">
      <!-- A型电池组 -->
      <g style="fill: #667582" transform="translate(6.732266 117.609094) scale(0.085 -0.085)">
       <defs>
        <path id="NotoSansCJKjp-Regular-7535" d="M 2893 2611 
L 2893 1690 
L 1306 1690 
L 1306 2611 
L 2893 2611 
z
M 3398 2611 
L 5043 2611 
L 5043 1690 
L 3398 1690 
L 3398 2611 
z
M 2893 3059 
L 1306 3059 
L 1306 3974 
L 2893 3974 
L 2893 3059 
z
M 3398 3059 
L 3398 3974 
L 5043 3974 
L 5043 3059 
L 3398 3059 
z
M 806 4448 
L 806 826 
L 1306 826 
L 1306 1222 
L 2893 1222 
L 2893 544 
C 2893 -205 3104 -403 3821 -403 
C 3981 -403 5062 -403 5235 -403 
C 5920 -403 6074 -64 6157 909 
C 6010 947 5805 1037 5677 1126 
C 5632 294 5568 83 5210 83 
C 4979 83 4045 83 3853 83 
C 3469 83 3398 160 3398 531 
L 3398 1222 
L 5536 1222 
L 5536 4448 
L 3398 4448 
L 3398 5363 
L 2893 5363 
L 2893 4448 
L 806 4448 
z
" transform="scale(0.015625)"/>
        <path id="NotoSansCJKjp-Regular-6c60" d="M 595 4954 
C 1011 4774 1523 4467 1779 4250 
L 2054 4653 
C 1792 4864 1267 5133 858 5306 
L 595 4954 
z
M 256 3194 
C 659 3014 1152 2726 1402 2522 
L 1664 2918 
C 1414 3117 909 3386 512 3552 
L 256 3194 
z
M 467 -102 
L 883 -416 
C 1248 186 1670 986 1997 1658 
L 1632 1958 
C 1280 1235 794 390 467 -102 
z
M 2534 4749 
L 2534 3034 
L 1766 2733 
L 1952 2304 
L 2534 2534 
L 2534 461 
C 2534 -256 2758 -442 3533 -442 
C 3706 -442 5030 -442 5216 -442 
C 5926 -442 6086 -147 6163 742 
C 6029 768 5830 851 5715 934 
C 5664 179 5594 0 5203 0 
C 4922 0 3770 0 3546 0 
C 3091 0 3008 83 3008 454 
L 3008 2714 
L 3942 3085 
L 3942 915 
L 4416 915 
L 4416 3264 
L 5414 3654 
C 5408 2643 5395 1971 5350 1798 
C 5312 1632 5242 1606 5133 1606 
C 5056 1606 4819 1606 4640 1619 
C 4704 1504 4749 1299 4762 1165 
C 4960 1158 5242 1165 5421 1210 
C 5619 1261 5747 1382 5798 1677 
C 5856 1946 5875 2874 5875 4038 
L 5901 4128 
L 5555 4262 
L 5472 4186 
L 5434 4154 
L 4416 3763 
L 4416 5363 
L 3942 5363 
L 3942 3578 
L 3008 3213 
L 3008 4749 
L 2534 4749 
z
" transform="scale(0.015625)"/>
        <path id="NotoSansCJKjp-Regular-7ec4" d="M 307 371 
L 403 -90 
C 1005 64 1805 269 2566 467 
L 2522 877 
C 1702 678 858 486 307 371 
z
M 3078 5056 
L 3078 70 
L 2432 70 
L 2432 -371 
L 6138 -371 
L 6138 70 
L 5581 70 
L 5581 5056 
L 3078 5056 
z
M 3539 70 
L 3539 1325 
L 5107 1325 
L 5107 70 
L 3539 70 
z
M 3539 2982 
L 5107 2982 
L 5107 1754 
L 3539 1754 
L 3539 2982 
z
M 3539 3424 
L 3539 4614 
L 5107 4614 
L 5107 3424 
L 3539 3424 
z
M 422 2707 
C 518 2752 672 2797 1549 2906 
C 1242 2483 960 2144 832 2016 
C 621 1779 454 1619 314 1594 
C 371 1478 442 1261 467 1165 
C 602 1242 826 1306 2566 1658 
C 2560 1754 2560 1933 2573 2054 
L 1165 1798 
C 1696 2368 2214 3072 2656 3782 
L 2272 4019 
C 2138 3782 1990 3552 1843 3328 
L 915 3226 
C 1325 3776 1722 4486 2035 5178 
L 1600 5376 
C 1312 4602 806 3763 653 3552 
C 506 3334 384 3181 269 3155 
C 320 3027 397 2803 422 2707 
z
" transform="scale(0.015625)"/>
       </defs>
       <use xlink:href="#NotoSansCJKjp-Regular-41"/>
       <use xlink:href="#NotoSansCJKjp-Regular-578b" transform="translate(60.799988 0)"/>
       <use xlink:href="#NotoSansCJKjp-Regular-7535" transform="translate(160.799973 0)"/>
       <use xlink:href="#NotoSansCJKjp-Regular-6c60" transform="translate(260.799957 0)"/>
       <use xlink:href="#NotoSansCJKjp-Regular-7ec4" transform="translate(360.799942 0)"/>
      </g>
     </g>
    </g>
    <g id="ytick_5">
     <g id="line2d_17">
      <g>
       <use xlink:href="#m06ea2e67d2" x="52.4" y="137.993641" style="fill: #667582; stroke: #667582; stroke-width: 0.6"/>
      </g>
     </g>
     <g id="text_12">
      <!-- B型电池组 -->
      <g style="fill: #667582" transform="translate(6.315234 141.376375) scale(0.085 -0.085)">
       <use xlink:href="#NotoSansCJKjp-Regular-42"/>
       <use xlink:href="#NotoSansCJKjp-Regular-578b" transform="translate(65.699997 0)"/>
       <use xlink:href="#NotoSansCJKjp-Regular-7535" transform="translate(165.699982 0)"/>
       <use xlink:href="#NotoSansCJKjp-Regular-6c60" transform="translate(265.699966 0)"/>
       <use xlink:href="#NotoSansCJKjp-Regular-7ec4" transform="translate(365.699951 0)"/>
      </g>
     </g>
    </g>
    <g id="ytick_6">
     <g id="line2d_18">
      <g>
       <use xlink:href="#m06ea2e67d2" x="52.4" y="161.760922" style="fill: #667582; stroke: #667582; stroke-width: 0.6"/>
      </g>
     </g>
     <g id="text_13">
      <!-- C型电池组 -->
      <g style="fill: #667582" transform="translate(6.477266 165.143656) scale(0.085 -0.085)">
       <use xlink:href="#NotoSansCJKjp-Regular-43"/>
       <use xlink:href="#NotoSansCJKjp-Regular-578b" transform="translate(63.799988 0)"/>
       <use xlink:href="#NotoSansCJKjp-Regular-7535" transform="translate(163.799973 0)"/>
       <use xlink:href="#NotoSansCJKjp-Regular-6c60" transform="translate(263.799957 0)"/>
       <use xlink:href="#NotoSansCJKjp-Regular-7ec4" transform="translate(363.799942 0)"/>
      </g>
     </g>
    </g>
    <g id="ytick_7">
     <g id="line2d_19">
      <g>
       <use xlink:href="#m06ea2e67d2" x="52.4" y="185.528203" style="fill: #667582; stroke: #667582; stroke-width: 0.6"/>
      </g>
     </g>
     <g id="text_14">
      <!-- 中继无人机 -->
      <g style="fill: #667582" transform="translate(3.4 188.910937) scale(0.085 -0.085)">
       <defs>
        <path id="NotoSansCJKjp-Regular-4e2d" d="M 2931 5376 
L 2931 4230 
L 614 4230 
L 614 1190 
L 1094 1190 
L 1094 1587 
L 2931 1587 
L 2931 -506 
L 3437 -506 
L 3437 1587 
L 5280 1587 
L 5280 1222 
L 5773 1222 
L 5773 4230 
L 3437 4230 
L 3437 5376 
L 2931 5376 
z
M 1094 2061 
L 1094 3763 
L 2931 3763 
L 2931 2061 
L 1094 2061 
z
M 5280 2061 
L 3437 2061 
L 3437 3763 
L 5280 3763 
L 5280 2061 
z
" transform="scale(0.015625)"/>
        <path id="NotoSansCJKjp-Regular-7ee7" d="M 269 365 
L 358 -83 
C 934 58 1709 250 2445 435 
L 2406 838 
C 1606 653 800 467 269 365 
z
M 5549 4928 
C 5446 4563 5242 4038 5082 3712 
L 5382 3603 
C 5555 3917 5766 4403 5939 4813 
L 5549 4928 
z
M 3392 4832 
C 3539 4442 3712 3936 3782 3603 
L 4128 3712 
C 4051 4032 3872 4531 3718 4922 
L 3392 4832 
z
M 2656 5120 
L 2656 -173 
L 6099 -173 
L 6099 256 
L 3098 256 
L 3098 5120 
L 2656 5120 
z
M 384 2707 
C 480 2752 627 2790 1408 2893 
C 1126 2477 870 2144 755 2016 
C 563 1786 416 1619 282 1594 
C 326 1478 403 1261 429 1165 
C 557 1242 774 1306 2368 1626 
C 2362 1722 2355 1907 2368 2029 
L 1088 1798 
C 1581 2374 2054 3078 2458 3789 
L 2067 4019 
C 1952 3782 1811 3539 1677 3315 
L 858 3226 
C 1222 3782 1581 4499 1843 5178 
L 1389 5382 
C 1158 4608 723 3770 576 3558 
C 448 3334 339 3187 230 3155 
C 288 3034 358 2803 384 2707 
z
M 4442 5325 
L 4442 3334 
L 3277 3334 
L 3277 2918 
L 4307 2918 
C 4051 2336 3654 1722 3283 1376 
C 3354 1267 3456 1094 3494 979 
C 3840 1312 4186 1875 4442 2451 
L 4442 499 
L 4851 499 
L 4851 2451 
C 5158 2042 5568 1466 5722 1184 
L 6022 1517 
C 5856 1741 5152 2611 4870 2918 
L 6048 2918 
L 6048 3334 
L 4851 3334 
L 4851 5325 
L 4442 5325 
z
" transform="scale(0.015625)"/>
        <path id="NotoSansCJKjp-Regular-65e0" d="M 3277 2330 
L 3277 294 
C 3277 -282 3456 -448 4128 -448 
C 4269 -448 5190 -448 5338 -448 
C 5965 -448 6112 -179 6176 851 
C 6042 883 5824 960 5715 1050 
C 5677 173 5626 26 5306 26 
C 5101 26 4326 26 4173 26 
C 3840 26 3776 70 3776 288 
L 3776 2330 
L 3277 2330 
z
M 730 4947 
L 730 4486 
L 2861 4486 
C 2854 3981 2848 3501 2803 3053 
L 333 3053 
L 333 2598 
L 2746 2598 
C 2534 1350 1958 397 256 -122 
C 365 -224 506 -397 563 -525 
C 2400 70 3008 1171 3226 2598 
L 6074 2598 
L 6074 3053 
L 3283 3053 
C 3328 3507 3341 3981 3347 4486 
L 5709 4486 
L 5709 4947 
L 730 4947 
z
" transform="scale(0.015625)"/>
        <path id="NotoSansCJKjp-Regular-4eba" d="M 2867 5178 
C 2829 4333 2829 1254 211 -83 
C 365 -186 518 -333 602 -454 
C 2234 429 2893 1978 3174 3270 
C 3488 1978 4205 339 5856 -454 
C 5933 -326 6080 -160 6227 -51 
C 3782 1062 3443 4064 3386 4890 
L 3405 5178 
L 2867 5178 
z
" transform="scale(0.015625)"/>
       </defs>
       <use xlink:href="#NotoSansCJKjp-Regular-4e2d"/>
       <use xlink:href="#NotoSansCJKjp-Regular-7ee7" transform="translate(99.999985 0)"/>
       <use xlink:href="#NotoSansCJKjp-Regular-65e0" transform="translate(199.999969 0)"/>
       <use xlink:href="#NotoSansCJKjp-Regular-4eba" transform="translate(299.999954 0)"/>
       <use xlink:href="#NotoSansCJKjp-Regular-673a" transform="translate(399.999939 0)"/>
      </g>
     </g>
    </g>
    <g id="ytick_8">
     <g id="line2d_20">
      <g>
       <use xlink:href="#m06ea2e67d2" x="52.4" y="209.295484" style="fill: #667582; stroke: #667582; stroke-width: 0.6"/>
      </g>
     </g>
     <g id="text_15">
      <!-- 中继能源 -->
      <g style="fill: #667582" transform="translate(11.9 212.678218) scale(0.085 -0.085)">
       <defs>
        <path id="NotoSansCJKjp-Regular-80fd" d="M 2131 4774 
C 2278 4576 2432 4339 2560 4109 
L 1248 4058 
C 1446 4422 1651 4864 1824 5261 
L 1331 5382 
C 1197 4979 966 4442 742 4038 
L 256 4019 
L 294 3552 
C 960 3590 1882 3635 2784 3693 
C 2854 3552 2912 3424 2950 3309 
L 3366 3494 
C 3226 3891 2867 4486 2528 4928 
L 2131 4774 
z
M 2451 2688 
L 2451 2138 
L 1088 2138 
L 1088 2688 
L 2451 2688 
z
M 640 3098 
L 640 -506 
L 1088 -506 
L 1088 800 
L 2451 800 
L 2451 51 
C 2451 -32 2432 -58 2349 -58 
C 2253 -64 1984 -64 1683 -51 
C 1747 -179 1818 -365 1843 -493 
C 2246 -493 2522 -486 2701 -416 
C 2874 -339 2925 -205 2925 45 
L 2925 3098 
L 640 3098 
z
M 1088 1760 
L 2451 1760 
L 2451 1178 
L 1088 1178 
L 1088 1760 
z
M 5491 4896 
C 5126 4704 4550 4474 4006 4288 
L 4006 5363 
L 3526 5363 
L 3526 3238 
C 3526 2707 3686 2566 4307 2566 
C 4429 2566 5267 2566 5408 2566 
C 5920 2566 6061 2771 6118 3558 
C 5984 3590 5786 3661 5683 3744 
C 5658 3110 5613 3002 5363 3002 
C 5184 3002 4480 3002 4352 3002 
C 4058 3002 4006 3040 4006 3245 
L 4006 3904 
C 4621 4083 5306 4307 5811 4538 
L 5491 4896 
z
M 5568 2042 
C 5197 1805 4582 1555 4000 1363 
L 4000 2387 
L 3526 2387 
L 3526 224 
C 3526 -314 3693 -454 4320 -454 
C 4454 -454 5318 -454 5459 -454 
C 5997 -454 6138 -224 6195 634 
C 6061 666 5875 742 5760 819 
C 5734 96 5690 -26 5421 -26 
C 5229 -26 4506 -26 4365 -26 
C 4058 -26 4000 13 4000 224 
L 4000 966 
C 4646 1146 5382 1395 5882 1683 
L 5568 2042 
z
" transform="scale(0.015625)"/>
        <path id="NotoSansCJKjp-Regular-6e90" d="M 3437 2650 
L 5395 2650 
L 5395 2080 
L 3437 2080 
L 3437 2650 
z
M 3437 3558 
L 5395 3558 
L 5395 3002 
L 3437 3002 
L 3437 3558 
z
M 3232 1357 
C 3053 896 2771 429 2451 109 
C 2560 51 2746 -77 2835 -147 
C 3142 198 3462 730 3661 1248 
L 3232 1357 
z
M 5043 1242 
C 5344 832 5658 282 5773 -64 
L 6214 134 
C 6080 486 5754 1018 5453 1408 
L 5043 1242 
z
M 557 4973 
C 941 4781 1395 4467 1619 4237 
L 1907 4621 
C 1683 4851 1216 5133 832 5312 
L 557 4973 
z
M 243 3245 
C 634 3072 1094 2784 1318 2566 
L 1600 2950 
C 1370 3162 896 3437 512 3597 
L 243 3245 
z
M 378 -154 
L 806 -422 
C 1114 179 1472 973 1734 1651 
L 1350 1920 
C 1062 1190 659 346 378 -154 
z
M 3002 3930 
L 3002 1709 
L 4154 1709 
L 4154 0 
C 4154 -70 4128 -96 4051 -102 
C 3968 -102 3686 -102 3386 -96 
C 3443 -218 3501 -390 3520 -506 
C 3942 -512 4224 -512 4397 -442 
C 4570 -371 4614 -250 4614 -13 
L 4614 1709 
L 5843 1709 
L 5843 3930 
L 4499 3930 
L 4704 4621 
L 4672 4627 
L 6086 4627 
L 6086 5062 
L 2163 5062 
L 2163 3309 
C 2163 2253 2093 800 1370 -230 
C 1478 -282 1683 -403 1766 -486 
C 2528 589 2630 2189 2630 3309 
L 2630 4627 
L 4166 4627 
C 4141 4416 4083 4147 4032 3930 
L 3002 3930 
z
" transform="scale(0.015625)"/>
       </defs>
       <use xlink:href="#NotoSansCJKjp-Regular-4e2d"/>
       <use xlink:href="#NotoSansCJKjp-Regular-7ee7" transform="translate(99.999985 0)"/>
       <use xlink:href="#NotoSansCJKjp-Regular-80fd" transform="translate(199.999969 0)"/>
       <use xlink:href="#NotoSansCJKjp-Regular-6e90" transform="translate(299.999954 0)"/>
      </g>
     </g>
    </g>
   </g>
   <g id="LineCollection_1">
    <path d="M 69.659259 42.924516 
L 69.659259 42.924516 
" clip-path="url(#p41982bfd6a)" style="fill: none; stroke: #667582; stroke-opacity: 0.45; stroke-width: 2"/>
    <path d="M 69.659259 66.691797 
L 69.659259 66.691797 
" clip-path="url(#p41982bfd6a)" style="fill: none; stroke: #667582; stroke-opacity: 0.45; stroke-width: 2"/>
    <path d="M 69.659259 90.459078 
L 501.140741 90.459078 
" clip-path="url(#p41982bfd6a)" style="fill: none; stroke: #bb6b64; stroke-opacity: 0.45; stroke-width: 2"/>
    <path d="M 69.659259 114.226359 
L 69.659259 114.226359 
" clip-path="url(#p41982bfd6a)" style="fill: none; stroke: #667582; stroke-opacity: 0.45; stroke-width: 2"/>
    <path d="M 69.659259 137.993641 
L 69.659259 137.993641 
" clip-path="url(#p41982bfd6a)" style="fill: none; stroke: #667582; stroke-opacity: 0.45; stroke-width: 2"/>
    <path d="M 69.659259 161.760922 
L 501.140741 161.760922 
" clip-path="url(#p41982bfd6a)" style="fill: none; stroke: #bb6b64; stroke-opacity: 0.45; stroke-width: 2"/>
    <path d="M 69.659259 185.528203 
L 69.659259 185.528203 
" clip-path="url(#p41982bfd6a)" style="fill: none; stroke: #667582; stroke-opacity: 0.45; stroke-width: 2"/>
    <path d="M 69.659259 209.295484 
L 69.659259 209.295484 
" clip-path="url(#p41982bfd6a)" style="fill: none; stroke: #667582; stroke-opacity: 0.45; stroke-width: 2"/>
   </g>
   <g id="line2d_21">
    <path d="M 69.659259 229.26 
L 69.659259 22.96 
" clip-path="url(#p41982bfd6a)" style="fill: none; stroke: #667582; stroke-width: 0.7; stroke-linecap: square"/>
   </g>
   <g id="patch_3">
    <path d="M 52.4 229.26 
L 52.4 22.96 
" style="fill: none; stroke: #86919a; stroke-width: 0.65; stroke-linejoin: miter; stroke-linecap: square"/>
   </g>
   <g id="patch_4">
    <path d="M 52.4 229.26 
L 518.4 229.26 
" style="fill: none; stroke: #86919a; stroke-width: 0.65; stroke-linejoin: miter; stroke-linecap: square"/>
   </g>
   <g id="PathCollection_1">
    <defs>
     <path id="C0_0_3e2902a352" d="M 0 3.041381 
C 0.806584 3.041381 1.58024 2.720922 2.150581 2.150581 
C 2.720922 1.58024 3.041381 0.806584 3.041381 -0 
C 3.041381 -0.806584 2.720922 -1.58024 2.150581 -2.150581 
C 1.58024 -2.720922 0.806584 -3.041381 0 -3.041381 
C -0.806584 -3.041381 -1.58024 -2.720922 -2.150581 -2.150581 
C -2.720922 -1.58024 -3.041381 -0.806584 -3.041381 0 
C -3.041381 0.806584 -2.720922 1.58024 -2.150581 2.150581 
C -1.58024 2.720922 -0.806584 3.041381 0 3.041381 
z
"/>
    </defs>
    <g clip-path="url(#p41982bfd6a)">
     <use xlink:href="#C0_0_3e2902a352" x="69.659259" y="42.924516" style="fill: #667582; stroke: #ffffff; stroke-width: 0.7"/>
    </g>
    <g clip-path="url(#p41982bfd6a)">
     <use xlink:href="#C0_0_3e2902a352" x="69.659259" y="66.691797" style="fill: #667582; stroke: #ffffff; stroke-width: 0.7"/>
    </g>
    <g clip-path="url(#p41982bfd6a)">
     <use xlink:href="#C0_0_3e2902a352" x="501.140741" y="90.459078" style="fill: #bb6b64; stroke: #ffffff; stroke-width: 0.7"/>
    </g>
    <g clip-path="url(#p41982bfd6a)">
     <use xlink:href="#C0_0_3e2902a352" x="69.659259" y="114.226359" style="fill: #667582; stroke: #ffffff; stroke-width: 0.7"/>
    </g>
    <g clip-path="url(#p41982bfd6a)">
     <use xlink:href="#C0_0_3e2902a352" x="69.659259" y="137.993641" style="fill: #667582; stroke: #ffffff; stroke-width: 0.7"/>
    </g>
    <g clip-path="url(#p41982bfd6a)">
     <use xlink:href="#C0_0_3e2902a352" x="501.140741" y="161.760922" style="fill: #bb6b64; stroke: #ffffff; stroke-width: 0.7"/>
    </g>
    <g clip-path="url(#p41982bfd6a)">
     <use xlink:href="#C0_0_3e2902a352" x="69.659259" y="185.528203" style="fill: #667582; stroke: #ffffff; stroke-width: 0.7"/>
    </g>
    <g clip-path="url(#p41982bfd6a)">
     <use xlink:href="#C0_0_3e2902a352" x="69.659259" y="209.295484" style="fill: #667582; stroke: #ffffff; stroke-width: 0.7"/>
    </g>
   </g>
   <g id="text_16">
    <!-- 0 -->
    <g style="fill: #253342" transform="translate(74.659259 45.192016) scale(0.08 -0.08)">
     <use xlink:href="#NotoSansCJKjp-Regular-30"/>
    </g>
   </g>
   <g id="text_17">
    <!-- 0 -->
    <g style="fill: #253342" transform="translate(74.659259 68.959297) scale(0.08 -0.08)">
     <use xlink:href="#NotoSansCJKjp-Regular-30"/>
    </g>
   </g>
   <g id="text_18">
    <!-- 1 -->
    <g style="fill: #253342" transform="translate(506.140741 92.726578) scale(0.08 -0.08)">
     <use xlink:href="#NotoSansCJKjp-Regular-31"/>
    </g>
   </g>
   <g id="text_19">
    <!-- 0 -->
    <g style="fill: #253342" transform="translate(74.659259 116.493859) scale(0.08 -0.08)">
     <use xlink:href="#NotoSansCJKjp-Regular-30"/>
    </g>
   </g>
   <g id="text_20">
    <!-- 0 -->
    <g style="fill: #253342" transform="translate(74.659259 140.261141) scale(0.08 -0.08)">
     <use xlink:href="#NotoSansCJKjp-Regular-30"/>
    </g>
   </g>
   <g id="text_21">
    <!-- 1 -->
    <g style="fill: #253342" transform="translate(506.140741 164.028422) scale(0.08 -0.08)">
     <use xlink:href="#NotoSansCJKjp-Regular-31"/>
    </g>
   </g>
   <g id="text_22">
    <!-- 0 -->
    <g style="fill: #253342" transform="translate(74.659259 187.795703) scale(0.08 -0.08)">
     <use xlink:href="#NotoSansCJKjp-Regular-30"/>
    </g>
   </g>
   <g id="text_23">
    <!-- 0 -->
    <g style="fill: #253342" transform="translate(74.659259 211.562984) scale(0.08 -0.08)">
     <use xlink:href="#NotoSansCJKjp-Regular-30"/>
    </g>
   </g>
   <g id="text_24">
    <!-- 第四问：2组分类型资源缺口 -->
    <g style="fill: #253342" transform="translate(52.4 12.96) scale(0.115 -0.115)">
     <defs>
      <path id="NotoSansCJKjp-Regular-7b2c" d="M 1133 2566 
C 1037 2061 877 1421 742 1005 
L 1216 934 
L 1280 1158 
L 2547 1158 
C 1965 640 1069 198 275 -26 
C 378 -115 518 -288 589 -410 
C 1414 -134 2342 390 2963 1005 
L 2963 -512 
L 3430 -512 
L 3430 1158 
L 5363 1158 
C 5299 576 5229 326 5139 237 
C 5082 192 5024 186 4909 186 
C 4794 179 4493 186 4179 218 
C 4256 96 4307 -90 4314 -224 
C 4646 -243 4960 -243 5120 -230 
C 5299 -218 5421 -179 5530 -70 
C 5690 90 5779 480 5869 1376 
C 5875 1440 5882 1568 5882 1568 
L 3430 1568 
L 3430 2163 
L 5510 2163 
L 5510 3622 
L 826 3622 
L 826 3213 
L 2963 3213 
L 2963 2566 
L 1133 2566 
z
M 1523 2163 
L 2963 2163 
L 2963 1568 
L 1382 1568 
L 1523 2163 
z
M 3430 3213 
L 5037 3213 
L 5037 2566 
L 3430 2566 
L 3430 3213 
z
M 1178 5408 
C 966 4838 614 4269 211 3898 
C 326 3834 518 3706 608 3635 
C 819 3846 1024 4128 1210 4435 
L 1446 4435 
C 1581 4179 1702 3878 1747 3674 
L 2170 3840 
C 2125 3994 2029 4224 1926 4435 
L 3110 4435 
L 3110 4819 
L 1421 4819 
C 1498 4973 1562 5126 1626 5286 
L 1178 5408 
z
M 3699 5408 
C 3488 4832 3104 4294 2650 3942 
C 2765 3885 2963 3744 3046 3667 
C 3283 3872 3507 4141 3706 4435 
L 4160 4435 
C 4352 4179 4544 3872 4621 3661 
L 5043 3827 
C 4973 4000 4826 4230 4672 4435 
L 6099 4435 
L 6099 4819 
L 3936 4819 
C 4019 4973 4090 5133 4154 5293 
L 3699 5408 
z
" transform="scale(0.015625)"/>
      <path id="NotoSansCJKjp-Regular-56db" d="M 576 4787 
L 576 -326 
L 1062 -326 
L 1062 128 
L 5344 128 
L 5344 -275 
L 5843 -275 
L 5843 4787 
L 576 4787 
z
M 1062 595 
L 1062 4326 
L 2259 4326 
C 2202 3130 2035 2234 1158 1741 
C 1267 1658 1402 1498 1459 1389 
C 2451 1965 2656 2970 2726 4326 
L 3571 4326 
L 3571 2483 
C 3571 2093 3616 1984 3731 1907 
C 3834 1824 4006 1792 4154 1792 
C 4243 1792 4499 1792 4589 1792 
C 4723 1792 4890 1811 4986 1850 
C 5088 1894 5165 1965 5203 2080 
C 5242 2195 5261 2502 5274 2765 
C 5152 2803 4992 2880 4902 2963 
C 4896 2682 4890 2470 4870 2374 
C 4851 2278 4813 2240 4774 2214 
C 4736 2202 4640 2195 4557 2195 
C 4474 2195 4320 2195 4262 2195 
C 4186 2195 4128 2202 4090 2221 
C 4051 2246 4038 2317 4038 2445 
L 4038 4326 
L 5344 4326 
L 5344 595 
L 1062 595 
z
" transform="scale(0.015625)"/>
      <path id="NotoSansCJKjp-Regular-95ee" d="M 595 3936 
L 595 -512 
L 1069 -512 
L 1069 3936 
L 595 3936 
z
M 666 5062 
C 986 4730 1408 4262 1619 3987 
L 1984 4256 
C 1773 4525 1338 4973 1011 5293 
L 666 5062 
z
M 2272 5018 
L 2272 4563 
L 5325 4563 
L 5325 160 
C 5325 51 5286 13 5178 13 
C 5069 6 4685 0 4301 19 
C 4365 -115 4442 -326 4461 -467 
C 4979 -467 5325 -461 5536 -378 
C 5734 -294 5805 -154 5805 160 
L 5805 5018 
L 2272 5018 
z
M 2061 3430 
L 2061 659 
L 2502 659 
L 2502 1075 
L 4307 1075 
L 4307 3430 
L 2061 3430 
z
M 2502 2995 
L 3840 2995 
L 3840 1510 
L 2502 1510 
L 2502 2995 
z
" transform="scale(0.015625)"/>
      <path id="NotoSansCJKjp-Regular-ff1a" d="M 3200 3482 
C 3456 3482 3686 3667 3686 3962 
C 3686 4256 3456 4442 3200 4442 
C 2944 4442 2714 4256 2714 3962 
C 2714 3667 2944 3482 3200 3482 
z
M 3200 346 
C 3456 346 3686 538 3686 826 
C 3686 1120 3456 1312 3200 1312 
C 2944 1312 2714 1120 2714 826 
C 2714 538 2944 346 3200 346 
z
" transform="scale(0.015625)"/>
      <path id="NotoSansCJKjp-Regular-8d44" d="M 544 4813 
C 1011 4640 1594 4339 1882 4115 
L 2138 4486 
C 1837 4710 1248 4986 787 5146 
L 544 4813 
z
M 314 3168 
L 454 2726 
C 966 2899 1626 3110 2246 3322 
L 2170 3744 
C 1478 3520 787 3302 314 3168 
z
M 1165 2381 
L 1165 595 
L 1638 595 
L 1638 1933 
L 4813 1933 
L 4813 640 
L 5312 640 
L 5312 2381 
L 1165 2381 
z
M 3027 1747 
C 2842 685 2349 122 320 -128 
C 397 -230 499 -410 531 -525 
C 2694 -218 3283 467 3501 1747 
L 3027 1747 
z
M 3302 480 
C 4102 218 5165 -205 5702 -486 
L 5984 -90 
C 5427 192 4358 589 3565 832 
L 3302 480 
z
M 3098 5350 
C 2931 4902 2605 4365 2080 3974 
C 2189 3917 2342 3776 2419 3674 
C 2694 3898 2912 4147 3098 4410 
L 3853 4410 
C 3654 3738 3232 3149 2086 2842 
C 2176 2765 2298 2605 2342 2496 
C 3226 2758 3738 3181 4045 3699 
C 4448 3155 5069 2739 5786 2541 
C 5850 2662 5978 2829 6074 2918 
C 5280 3091 4582 3520 4230 4070 
C 4269 4179 4307 4294 4339 4410 
L 5293 4410 
C 5197 4198 5088 3987 4998 3840 
L 5414 3718 
C 5574 3968 5766 4358 5933 4710 
L 5581 4806 
L 5504 4781 
L 3322 4781 
C 3418 4947 3494 5120 3558 5286 
L 3098 5350 
z
" transform="scale(0.015625)"/>
      <path id="NotoSansCJKjp-Regular-7f3a" d="M 5210 2496 
L 4486 2496 
C 4499 2726 4506 2950 4506 3181 
L 4506 3898 
L 5210 3898 
L 5210 2496 
z
M 4045 5376 
L 4045 4352 
L 3104 4352 
L 3104 3898 
L 4045 3898 
L 4045 3181 
C 4045 2950 4038 2720 4019 2496 
L 2995 2496 
L 2995 2048 
L 3968 2048 
C 3827 1216 3456 435 2490 -173 
C 2598 -250 2765 -416 2842 -518 
C 3776 83 4192 851 4371 1670 
C 4672 704 5158 -83 5862 -525 
C 5946 -397 6099 -218 6214 -122 
C 5485 282 4986 1094 4723 2048 
L 6150 2048 
L 6150 2496 
L 5664 2496 
L 5664 4352 
L 4506 4352 
L 4506 5376 
L 4045 5376 
z
M 787 5389 
C 685 4691 493 3974 224 3494 
C 339 3443 550 3328 640 3258 
C 768 3501 883 3808 986 4141 
L 1408 4141 
L 1408 3187 
L 269 3187 
L 269 2752 
L 1408 2752 
L 1408 845 
L 864 845 
L 864 2310 
L 461 2310 
L 461 -141 
L 864 -141 
L 864 410 
L 2413 410 
L 2413 96 
L 2822 96 
L 2822 2310 
L 2413 2310 
L 2413 845 
L 1856 845 
L 1856 2752 
L 2938 2752 
L 2938 3187 
L 1856 3187 
L 1856 4141 
L 2848 4141 
L 2848 4582 
L 1107 4582 
C 1165 4813 1216 5056 1254 5293 
L 787 5389 
z
" transform="scale(0.015625)"/>
      <path id="NotoSansCJKjp-Regular-53e3" d="M 813 4704 
L 813 -352 
L 1312 -352 
L 1312 192 
L 5094 192 
L 5094 -326 
L 5606 -326 
L 5606 4704 
L 813 4704 
z
M 1312 685 
L 1312 4224 
L 5094 4224 
L 5094 685 
L 1312 685 
z
" transform="scale(0.015625)"/>
     </defs>
     <use xlink:href="#NotoSansCJKjp-Regular-7b2c"/>
     <use xlink:href="#NotoSansCJKjp-Regular-56db" transform="translate(99.999985 0)"/>
     <use xlink:href="#NotoSansCJKjp-Regular-95ee" transform="translate(199.999969 0)"/>
     <use xlink:href="#NotoSansCJKjp-Regular-ff1a" transform="translate(299.999954 0)"/>
     <use xlink:href="#NotoSansCJKjp-Regular-32" transform="translate(399.999939 0)"/>
     <use xlink:href="#NotoSansCJKjp-Regular-7ec4" transform="translate(455.499924 0)"/>
     <use xlink:href="#NotoSansCJKjp-Regular-5206" transform="translate(555.499908 0)"/>
     <use xlink:href="#NotoSansCJKjp-Regular-7c7b" transform="translate(655.499893 0)"/>
     <use xlink:href="#NotoSansCJKjp-Regular-578b" transform="translate(755.499878 0)"/>
     <use xlink:href="#NotoSansCJKjp-Regular-8d44" transform="translate(855.499863 0)"/>
     <use xlink:href="#NotoSansCJKjp-Regular-6e90" transform="translate(955.499847 0)"/>
     <use xlink:href="#NotoSansCJKjp-Regular-7f3a" transform="translate(1055.499832 0)"/>
     <use xlink:href="#NotoSansCJKjp-Regular-53e3" transform="translate(1155.499817 0)"/>
    </g>
   </g>
  </g>
 </g>
 <defs>
  <clipPath id="p41982bfd6a">
   <rect x="52.4" y="22.96" width="466" height="206.3"/>
  </clipPath>
 </defs>
</svg>
