<?xml version="1.0" encoding="utf-8" standalone="no"?>
<!DOCTYPE svg PUBLIC "-//W3C//DTD SVG 1.1//EN"
  "http://www.w3.org/Graphics/SVG/1.1/DTD/svg11.dtd">
<svg xmlns:xlink="http://www.w3.org/1999/xlink" width="507.6pt" height="309.6pt" viewBox="0 0 507.6 309.6" xmlns="http://www.w3.org/2000/svg" version="1.1">
 <metadata>
  <rdf:RDF xmlns:dc="http://purl.org/dc/elements/1.1/" xmlns:cc="http://creativecommons.org/ns#" xmlns:rdf="http://www.w3.org/1999/02/22-rdf-syntax-ns#">
   <cc:Work>
    <dc:type rdf:resource="http://purl.org/dc/dcmitype/StillImage"/>
    <dc:format>image/svg+xml</dc:format>
    <dc:creator>
     <cc:Agent>
      <dc:title>D题数值图原生重绘</dc:title>
     </cc:Agent>
    </dc:creator>
   </cc:Work>
  </rdf:RDF>
 </metadata>
 <defs>
  <style type="text/css">*{stroke-linejoin: round; stroke-linecap: butt}</style>
 </defs>
 <g id="figure_1">
  <g id="patch_1">
   <path d="M 0 309.6 
L 507.6 309.6 
L 507.6 0 
L 0 0 
z
" style="fill: #ffffff"/>
  </g>
  <g id="axes_1">
   <g id="patch_2">
    <path d="M 28.95 276.06 
L 504 276.06 
L 504 22.96 
L 28.95 22.96 
z
" style="fill: #ffffff"/>
   </g>
   <g id="matplotlib.axis_1">
    <g id="xtick_1">
     <g id="line2d_1">
      <defs>
       <path id="m769a893297" d="M 0 0 
L 0 3 
" style="stroke: #667582; stroke-width: 0.6"/>
      </defs>
      <g>
       <use xlink:href="#m769a893297" x="46.544444" y="276.06" style="fill: #667582; stroke: #667582; stroke-width: 0.6"/>
      </g>
     </g>
     <g id="text_1">
      <!-- 0.90 -->
      <g style="fill: #667582" transform="translate(38.286827 289.325469) scale(0.085 -0.085)">
       <defs>
        <path id="NotoSansCJKjp-Regular-30" d="M 1779 -83 
C 2669 -83 3238 723 3238 2362 
C 3238 3987 2669 4774 1779 4774 
C 883 4774 320 3987 320 2362 
C 320 723 883 -83 1779 -83 
z
M 1779 390 
C 1248 390 883 986 883 2362 
C 883 3731 1248 4314 1779 4314 
C 2310 4314 2675 3731 2675 2362 
C 2675 986 2310 390 1779 390 
z
" transform="scale(0.015625)"/>
        <path id="NotoSansCJKjp-Regular-2e" d="M 890 -83 
C 1120 -83 1312 96 1312 358 
C 1312 627 1120 806 890 806 
C 653 806 467 627 467 358 
C 467 96 653 -83 890 -83 
z
" transform="scale(0.015625)"/>
        <path id="NotoSansCJKjp-Regular-39" d="M 1504 -83 
C 2381 -83 3206 646 3206 2547 
C 3206 4038 2528 4774 1626 4774 
C 896 4774 282 4166 282 3251 
C 282 2285 794 1779 1574 1779 
C 1965 1779 2368 2003 2656 2349 
C 2611 896 2086 403 1485 403 
C 1178 403 896 538 691 762 
L 371 397 
C 634 122 992 -83 1504 -83 
z
M 2650 2842 
C 2336 2394 1984 2214 1670 2214 
C 1114 2214 832 2624 832 3251 
C 832 3898 1178 4320 1632 4320 
C 2227 4320 2586 3808 2650 2842 
z
" transform="scale(0.015625)"/>
       </defs>
       <use xlink:href="#NotoSansCJKjp-Regular-30"/>
       <use xlink:href="#NotoSansCJKjp-Regular-2e" transform="translate(55.499985 0)"/>
       <use xlink:href="#NotoSansCJKjp-Regular-39" transform="translate(83.299973 0)"/>
       <use xlink:href="#NotoSansCJKjp-Regular-30" transform="translate(138.799957 0)"/>
      </g>
     </g>
    </g>
    <g id="xtick_2">
     <g id="line2d_2">
      <g>
       <use xlink:href="#m769a893297" x="119.85463" y="276.06" style="fill: #667582; stroke: #667582; stroke-width: 0.6"/>
      </g>
     </g>
     <g id="text_2">
      <!-- 0.95 -->
      <g style="fill: #667582" transform="translate(111.597012 289.325469) scale(0.085 -0.085)">
       <defs>
        <path id="NotoSansCJKjp-Regular-35" d="M 1677 -83 
C 2464 -83 3213 499 3213 1523 
C 3213 2560 2573 3021 1798 3021 
C 1517 3021 1306 2950 1094 2835 
L 1216 4192 
L 2982 4192 
L 2982 4691 
L 704 4691 
L 550 2502 
L 864 2304 
C 1133 2483 1331 2579 1645 2579 
C 2234 2579 2618 2182 2618 1510 
C 2618 826 2176 403 1619 403 
C 1075 403 730 653 467 922 
L 173 538 
C 493 224 941 -83 1677 -83 
z
" transform="scale(0.015625)"/>
       </defs>
       <use xlink:href="#NotoSansCJKjp-Regular-30"/>
       <use xlink:href="#NotoSansCJKjp-Regular-2e" transform="translate(55.499985 0)"/>
       <use xlink:href="#NotoSansCJKjp-Regular-39" transform="translate(83.299973 0)"/>
       <use xlink:href="#NotoSansCJKjp-Regular-35" transform="translate(138.799957 0)"/>
      </g>
     </g>
    </g>
    <g id="xtick_3">
     <g id="line2d_3">
      <g>
       <use xlink:href="#m769a893297" x="193.164815" y="276.06" style="fill: #667582; stroke: #667582; stroke-width: 0.6"/>
      </g>
     </g>
     <g id="text_3">
      <!-- 1.00 -->
      <g style="fill: #667582" transform="translate(184.907198 289.325469) scale(0.085 -0.085)">
       <defs>
        <path id="NotoSansCJKjp-Regular-31" d="M 563 0 
L 3136 0 
L 3136 486 
L 2195 486 
L 2195 4691 
L 1747 4691 
C 1491 4544 1190 4435 774 4358 
L 774 3987 
L 1613 3987 
L 1613 486 
L 563 486 
L 563 0 
z
" transform="scale(0.015625)"/>
       </defs>
       <use xlink:href="#NotoSansCJKjp-Regular-31"/>
       <use xlink:href="#NotoSansCJKjp-Regular-2e" transform="translate(55.499985 0)"/>
       <use xlink:href="#NotoSansCJKjp-Regular-30" transform="translate(83.299973 0)"/>
       <use xlink:href="#NotoSansCJKjp-Regular-30" transform="translate(138.799957 0)"/>
      </g>
     </g>
    </g>
    <g id="xtick_4">
     <g id="line2d_4">
      <g>
       <use xlink:href="#m769a893297" x="266.475" y="276.06" style="fill: #667582; stroke: #667582; stroke-width: 0.6"/>
      </g>
     </g>
     <g id="text_4">
      <!-- 1.05 -->
      <g style="fill: #667582" transform="translate(258.217383 289.325469) scale(0.085 -0.085)">
       <use xlink:href="#NotoSansCJKjp-Regular-31"/>
       <use xlink:href="#NotoSansCJKjp-Regular-2e" transform="translate(55.499985 0)"/>
       <use xlink:href="#NotoSansCJKjp-Regular-30" transform="translate(83.299973 0)"/>
       <use xlink:href="#NotoSansCJKjp-Regular-35" transform="translate(138.799957 0)"/>
      </g>
     </g>
    </g>
    <g id="xtick_5">
     <g id="line2d_5">
      <g>
       <use xlink:href="#m769a893297" x="339.785185" y="276.06" style="fill: #667582; stroke: #667582; stroke-width: 0.6"/>
      </g>
     </g>
     <g id="text_5">
      <!-- 1.10 -->
      <g style="fill: #667582" transform="translate(331.527568 289.325469) scale(0.085 -0.085)">
       <use xlink:href="#NotoSansCJKjp-Regular-31"/>
       <use xlink:href="#NotoSansCJKjp-Regular-2e" transform="translate(55.499985 0)"/>
       <use xlink:href="#NotoSansCJKjp-Regular-31" transform="translate(83.299973 0)"/>
       <use xlink:href="#NotoSansCJKjp-Regular-30" transform="translate(138.799957 0)"/>
      </g>
     </g>
    </g>
    <g id="xtick_6">
     <g id="line2d_6">
      <g>
       <use xlink:href="#m769a893297" x="413.09537" y="276.06" style="fill: #667582; stroke: #667582; stroke-width: 0.6"/>
      </g>
     </g>
     <g id="text_6">
      <!-- 1.15 -->
      <g style="fill: #667582" transform="translate(404.837753 289.325469) scale(0.085 -0.085)">
       <use xlink:href="#NotoSansCJKjp-Regular-31"/>
       <use xlink:href="#NotoSansCJKjp-Regular-2e" transform="translate(55.499985 0)"/>
       <use xlink:href="#NotoSansCJKjp-Regular-31" transform="translate(83.299973 0)"/>
       <use xlink:href="#NotoSansCJKjp-Regular-35" transform="translate(138.799957 0)"/>
      </g>
     </g>
    </g>
    <g id="xtick_7">
     <g id="line2d_7">
      <g>
       <use xlink:href="#m769a893297" x="486.405556" y="276.06" style="fill: #667582; stroke: #667582; stroke-width: 0.6"/>
      </g>
     </g>
     <g id="text_7">
      <!-- 1.20 -->
      <g style="fill: #667582" transform="translate(478.147938 289.325469) scale(0.085 -0.085)">
       <defs>
        <path id="NotoSansCJKjp-Regular-32" d="M 282 0 
L 3232 0 
L 3232 506 
L 1933 506 
C 1696 506 1408 480 1165 461 
C 2266 1504 3008 2458 3008 3398 
C 3008 4230 2477 4774 1638 4774 
C 1043 4774 634 4506 256 4090 
L 595 3757 
C 858 4070 1184 4301 1568 4301 
C 2150 4301 2432 3910 2432 3373 
C 2432 2566 1754 1632 282 346 
L 282 0 
z
" transform="scale(0.015625)"/>
       </defs>
       <use xlink:href="#NotoSansCJKjp-Regular-31"/>
       <use xlink:href="#NotoSansCJKjp-Regular-2e" transform="translate(55.499985 0)"/>
       <use xlink:href="#NotoSansCJKjp-Regular-32" transform="translate(83.299973 0)"/>
       <use xlink:href="#NotoSansCJKjp-Regular-30" transform="translate(138.799957 0)"/>
      </g>
     </g>
    </g>
    <g id="text_8">
     <!-- 运输能耗倍率 -->
     <g style="fill: #253342" transform="translate(236.475 303.231875) scale(0.1 -0.1)">
      <defs>
       <path id="NotoSansCJKjp-Regular-8fd0" d="M 576 4998 
C 960 4787 1408 4448 1619 4198 
L 1958 4525 
C 1741 4774 1280 5094 896 5299 
L 576 4998 
z
M 326 3699 
C 730 3494 1210 3174 1434 2925 
L 1766 3270 
C 1530 3514 1043 3821 640 4013 
L 326 3699 
z
M 2458 5011 
L 2458 4557 
L 5677 4557 
L 5677 5011 
L 2458 5011 
z
M 1606 2400 
L 294 2400 
L 294 1952 
L 1139 1952 
L 1139 749 
C 832 480 493 218 211 19 
L 461 -461 
C 794 -179 1107 96 1402 371 
C 1811 -134 2394 -358 3238 -390 
C 3955 -416 5299 -403 6010 -371 
C 6035 -230 6112 -6 6170 109 
C 5402 58 3942 38 3232 64 
C 2483 96 1920 314 1606 781 
L 1606 2400 
z
M 4506 2490 
C 4749 2195 4998 1843 5216 1498 
L 3149 1338 
C 3392 1837 3667 2496 3885 3059 
L 6144 3059 
L 6144 3514 
L 2042 3514 
L 2042 3059 
L 3322 3059 
C 3155 2490 2893 1792 2662 1299 
L 2093 1261 
L 2170 781 
C 3021 858 4262 966 5453 1082 
C 5555 890 5638 710 5696 557 
L 6118 787 
C 5914 1312 5382 2099 4890 2682 
L 4506 2490 
z
" transform="scale(0.015625)"/>
       <path id="NotoSansCJKjp-Regular-8f93" d="M 4698 2861 
L 4698 544 
L 5075 544 
L 5075 2861 
L 4698 2861 
z
M 5510 3098 
L 5510 32 
C 5510 -38 5485 -58 5414 -64 
C 5331 -64 5075 -64 4781 -58 
C 4845 -173 4896 -346 4909 -454 
C 5286 -454 5542 -448 5696 -384 
C 5856 -314 5901 -198 5901 32 
L 5901 3098 
L 5510 3098 
z
M 454 2112 
C 506 2163 691 2202 896 2202 
L 1402 2202 
L 1402 1318 
C 973 1216 576 1126 269 1069 
L 378 614 
L 1402 877 
L 1402 -506 
L 1824 -506 
L 1824 986 
L 2355 1126 
L 2317 1530 
L 1824 1414 
L 1824 2202 
L 2336 2202 
L 2336 2643 
L 1824 2643 
L 1824 3616 
L 1402 3616 
L 1402 2643 
L 845 2643 
C 1011 3091 1171 3622 1299 4173 
L 2349 4173 
L 2349 4608 
L 1389 4608 
C 1440 4838 1478 5069 1510 5293 
L 1062 5370 
C 1037 5120 1005 4858 960 4608 
L 301 4608 
L 301 4173 
L 877 4173 
C 762 3642 640 3206 582 3040 
C 493 2752 416 2547 307 2515 
C 358 2406 429 2202 454 2112 
z
M 4218 5395 
C 3795 4723 3002 4090 2227 3731 
C 2342 3635 2470 3488 2541 3373 
C 2714 3462 2886 3565 3053 3674 
L 3053 3405 
L 5421 3405 
L 5421 3718 
C 5581 3622 5754 3526 5926 3437 
C 5984 3565 6118 3718 6234 3814 
C 5562 4102 4954 4467 4467 5011 
L 4608 5222 
L 4218 5395 
z
M 3238 3802 
C 3597 4064 3936 4371 4218 4698 
C 4544 4339 4896 4051 5286 3802 
L 3238 3802 
z
M 3930 2598 
L 3930 2093 
L 3053 2093 
L 3053 2598 
L 3930 2598 
z
M 2656 2982 
L 2656 -486 
L 3053 -486 
L 3053 832 
L 3930 832 
L 3930 -6 
C 3930 -64 3917 -77 3866 -83 
C 3802 -83 3635 -83 3437 -77 
C 3494 -192 3546 -365 3558 -474 
C 3834 -474 4032 -474 4166 -403 
C 4301 -333 4333 -211 4333 -6 
L 4333 2982 
L 2656 2982 
z
M 3053 1722 
L 3930 1722 
L 3930 1197 
L 3053 1197 
L 3053 1722 
z
" transform="scale(0.015625)"/>
       <path id="NotoSansCJKjp-Regular-80fd" d="M 2131 4774 
C 2278 4576 2432 4339 2560 4109 
L 1248 4058 
C 1446 4422 1651 4864 1824 5261 
L 1331 5382 
C 1197 4979 966 4442 742 4038 
L 256 4019 
L 294 3552 
C 960 3590 1882 3635 2784 3693 
C 2854 3552 2912 3424 2950 3309 
L 3366 3494 
C 3226 3891 2867 4486 2528 4928 
L 2131 4774 
z
M 2451 2688 
L 2451 2138 
L 1088 2138 
L 1088 2688 
L 2451 2688 
z
M 640 3098 
L 640 -506 
L 1088 -506 
L 1088 800 
L 2451 800 
L 2451 51 
C 2451 -32 2432 -58 2349 -58 
C 2253 -64 1984 -64 1683 -51 
C 1747 -179 1818 -365 1843 -493 
C 2246 -493 2522 -486 2701 -416 
C 2874 -339 2925 -205 2925 45 
L 2925 3098 
L 640 3098 
z
M 1088 1760 
L 2451 1760 
L 2451 1178 
L 1088 1178 
L 1088 1760 
z
M 5491 4896 
C 5126 4704 4550 4474 4006 4288 
L 4006 5363 
L 3526 5363 
L 3526 3238 
C 3526 2707 3686 2566 4307 2566 
C 4429 2566 5267 2566 5408 2566 
C 5920 2566 6061 2771 6118 3558 
C 5984 3590 5786 3661 5683 3744 
C 5658 3110 5613 3002 5363 3002 
C 5184 3002 4480 3002 4352 3002 
C 4058 3002 4006 3040 4006 3245 
L 4006 3904 
C 4621 4083 5306 4307 5811 4538 
L 5491 4896 
z
M 5568 2042 
C 5197 1805 4582 1555 4000 1363 
L 4000 2387 
L 3526 2387 
L 3526 224 
C 3526 -314 3693 -454 4320 -454 
C 4454 -454 5318 -454 5459 -454 
C 5997 -454 6138 -224 6195 634 
C 6061 666 5875 742 5760 819 
C 5734 96 5690 -26 5421 -26 
C 5229 -26 4506 -26 4365 -26 
C 4058 -26 4000 13 4000 224 
L 4000 966 
C 4646 1146 5382 1395 5882 1683 
L 5568 2042 
z
" transform="scale(0.015625)"/>
       <path id="NotoSansCJKjp-Regular-8017" d="M 1395 5376 
L 1395 4691 
L 397 4691 
L 397 4269 
L 1395 4269 
L 1395 3635 
L 525 3635 
L 525 3219 
L 1395 3219 
L 1395 2566 
L 294 2566 
L 294 2138 
L 1242 2138 
C 986 1594 582 1011 218 685 
C 294 576 397 384 448 256 
C 781 576 1126 1101 1395 1632 
L 1395 -506 
L 1843 -506 
L 1843 1626 
C 2086 1312 2368 922 2496 710 
L 2803 1094 
C 2675 1254 2176 1850 1920 2138 
L 2842 2138 
L 2842 2566 
L 1843 2566 
L 1843 3219 
L 2598 3219 
L 2598 3635 
L 1843 3635 
L 1843 4269 
L 2714 4269 
L 2714 4691 
L 1843 4691 
L 1843 5376 
L 1395 5376 
z
M 5344 5350 
C 4800 4966 3776 4589 2861 4326 
C 2925 4230 3002 4070 3027 3968 
C 3347 4058 3680 4154 4006 4262 
L 4006 3322 
L 2950 3155 
L 3021 2720 
L 4006 2880 
L 4006 1882 
L 2810 1702 
L 2880 1267 
L 4006 1440 
L 4006 326 
C 4006 -256 4147 -416 4685 -416 
C 4787 -416 5421 -416 5536 -416 
C 6022 -416 6138 -134 6189 736 
C 6061 768 5882 845 5773 934 
C 5747 173 5715 -6 5504 -6 
C 5370 -6 4851 -6 4749 -6 
C 4512 -6 4474 45 4474 320 
L 4474 1510 
L 6157 1766 
L 6093 2195 
L 4474 1952 
L 4474 2957 
L 5920 3187 
L 5850 3610 
L 4474 3392 
L 4474 4429 
C 4954 4608 5395 4806 5747 5030 
L 5344 5350 
z
" transform="scale(0.015625)"/>
       <path id="NotoSansCJKjp-Regular-500d" d="M 1875 2950 
L 1875 2502 
L 6176 2502 
L 6176 2950 
L 1875 2950 
z
M 2675 4051 
C 2829 3706 2970 3264 3002 2989 
L 3450 3117 
C 3411 3386 3258 3821 3091 4154 
L 2675 4051 
z
M 4979 4160 
C 4890 3840 4730 3366 4589 3078 
L 5011 2982 
C 5152 3258 5318 3674 5459 4058 
L 4979 4160 
z
M 2144 4653 
L 2144 4211 
L 6042 4211 
L 6042 4653 
L 4307 4653 
L 4307 5376 
L 3821 5376 
L 3821 4653 
L 2144 4653 
z
M 2477 1901 
L 2477 -518 
L 2950 -518 
L 2950 -218 
L 5216 -218 
L 5216 -480 
L 5702 -480 
L 5702 1901 
L 2477 1901 
z
M 2950 230 
L 2950 1459 
L 5216 1459 
L 5216 230 
L 2950 230 
z
M 1690 5350 
C 1331 4378 736 3418 102 2797 
C 192 2688 326 2438 371 2323 
C 595 2554 813 2822 1024 3117 
L 1024 -499 
L 1485 -499 
L 1485 3840 
C 1734 4282 1965 4749 2144 5216 
L 1690 5350 
z
" transform="scale(0.015625)"/>
       <path id="NotoSansCJKjp-Regular-7387" d="M 5376 4038 
C 5139 3782 4704 3437 4384 3226 
L 4736 3014 
C 5056 3226 5472 3520 5798 3821 
L 5376 4038 
z
M 320 1997 
L 557 1613 
C 986 1798 1517 2048 2022 2291 
L 1933 2656 
C 1338 2406 730 2150 320 1997 
z
M 544 3680 
C 902 3482 1344 3174 1555 2957 
L 1888 3258 
C 1670 3469 1222 3757 864 3949 
L 544 3680 
z
M 4262 2458 
C 4768 2202 5408 1811 5715 1542 
L 6067 1850 
C 5734 2112 5094 2490 4595 2733 
L 4262 2458 
z
M 3526 2707 
C 3654 2566 3782 2400 3904 2227 
L 2810 2176 
C 3264 2618 3763 3168 4147 3642 
L 3770 3827 
C 3590 3571 3347 3270 3091 2976 
C 2957 3098 2784 3226 2598 3347 
C 2810 3578 3046 3878 3251 4154 
L 3110 4211 
L 5882 4211 
L 5882 4659 
L 3424 4659 
L 3424 5376 
L 2938 5376 
L 2938 4659 
L 538 4659 
L 538 4211 
L 2771 4211 
C 2643 4000 2470 3750 2310 3546 
L 2131 3654 
L 1894 3373 
C 2202 3174 2579 2906 2822 2682 
C 2650 2490 2470 2310 2304 2150 
L 1811 2131 
L 1882 1715 
L 4128 1882 
C 4211 1747 4275 1626 4320 1517 
L 4691 1709 
C 4550 2035 4192 2515 3872 2874 
L 3526 2707 
z
M 346 1222 
L 346 774 
L 2938 774 
L 2938 -531 
L 3424 -531 
L 3424 774 
L 6061 774 
L 6061 1222 
L 3424 1222 
L 3424 1722 
L 2938 1722 
L 2938 1222 
L 346 1222 
z
" transform="scale(0.015625)"/>
      </defs>
      <use xlink:href="#NotoSansCJKjp-Regular-8fd0"/>
      <use xlink:href="#NotoSansCJKjp-Regular-8f93" transform="translate(99.999985 0)"/>
      <use xlink:href="#NotoSansCJKjp-Regular-80fd" transform="translate(199.999969 0)"/>
      <use xlink:href="#NotoSansCJKjp-Regular-8017" transform="translate(299.999954 0)"/>
      <use xlink:href="#NotoSansCJKjp-Regular-500d" transform="translate(399.999939 0)"/>
      <use xlink:href="#NotoSansCJKjp-Regular-7387" transform="translate(499.999924 0)"/>
     </g>
    </g>
   </g>
   <g id="matplotlib.axis_2">
    <g id="ytick_1">
     <g id="line2d_8">
      <path d="M 28.95 251.566452 
L 504 251.566452 
" clip-path="url(#pd282161d94)" style="fill: none; stroke: #e6eaed; stroke-width: 0.55; stroke-linecap: square"/>
     </g>
     <g id="line2d_9">
      <defs>
       <path id="m06ea2e67d2" d="M 0 0 
L -3 0 
" style="stroke: #667582; stroke-width: 0.6"/>
      </defs>
      <g>
       <use xlink:href="#m06ea2e67d2" x="28.95" y="251.566452" style="fill: #667582; stroke: #667582; stroke-width: 0.6"/>
      </g>
     </g>
     <g id="text_9">
      <!-- 0 -->
      <g style="fill: #667582" transform="translate(17.7325 254.949186) scale(0.085 -0.085)">
       <use xlink:href="#NotoSansCJKjp-Regular-30"/>
      </g>
     </g>
    </g>
    <g id="ytick_2">
     <g id="line2d_10">
      <path d="M 28.95 217.547634 
L 504 217.547634 
" clip-path="url(#pd282161d94)" style="fill: none; stroke: #e6eaed; stroke-width: 0.55; stroke-linecap: square"/>
     </g>
     <g id="line2d_11">
      <g>
       <use xlink:href="#m06ea2e67d2" x="28.95" y="217.547634" style="fill: #667582; stroke: #667582; stroke-width: 0.6"/>
      </g>
     </g>
     <g id="text_10">
      <!-- 1 -->
      <g style="fill: #667582" transform="translate(17.7325 220.930369) scale(0.085 -0.085)">
       <use xlink:href="#NotoSansCJKjp-Regular-31"/>
      </g>
     </g>
    </g>
    <g id="ytick_3">
     <g id="line2d_12">
      <path d="M 28.95 183.528817 
L 504 183.528817 
" clip-path="url(#pd282161d94)" style="fill: none; stroke: #e6eaed; stroke-width: 0.55; stroke-linecap: square"/>
     </g>
     <g id="line2d_13">
      <g>
       <use xlink:href="#m06ea2e67d2" x="28.95" y="183.528817" style="fill: #667582; stroke: #667582; stroke-width: 0.6"/>
      </g>
     </g>
     <g id="text_11">
      <!-- 2 -->
      <g style="fill: #667582" transform="translate(17.7325 186.911552) scale(0.085 -0.085)">
       <use xlink:href="#NotoSansCJKjp-Regular-32"/>
      </g>
     </g>
    </g>
    <g id="ytick_4">
     <g id="line2d_14">
      <path d="M 28.95 149.51 
L 504 149.51 
" clip-path="url(#pd282161d94)" style="fill: none; stroke: #e6eaed; stroke-width: 0.55; stroke-linecap: square"/>
     </g>
     <g id="line2d_15">
      <g>
       <use xlink:href="#m06ea2e67d2" x="28.95" y="149.51" style="fill: #667582; stroke: #667582; stroke-width: 0.6"/>
      </g>
     </g>
     <g id="text_12">
      <!-- 3 -->
      <g style="fill: #667582" transform="translate(17.7325 152.892734) scale(0.085 -0.085)">
       <defs>
        <path id="NotoSansCJKjp-Regular-33" d="M 1683 -83 
C 2522 -83 3194 416 3194 1254 
C 3194 1901 2752 2310 2202 2445 
L 2202 2477 
C 2701 2650 3034 3034 3034 3603 
C 3034 4346 2458 4774 1664 4774 
C 1126 4774 710 4538 358 4218 
L 672 3846 
C 941 4115 1267 4301 1645 4301 
C 2138 4301 2438 4006 2438 3558 
C 2438 3053 2112 2662 1139 2662 
L 1139 2214 
C 2227 2214 2598 1843 2598 1274 
C 2598 736 2208 403 1645 403 
C 1114 403 762 659 486 941 
L 186 563 
C 493 224 954 -83 1683 -83 
z
" transform="scale(0.015625)"/>
       </defs>
       <use xlink:href="#NotoSansCJKjp-Regular-33"/>
      </g>
     </g>
    </g>
    <g id="ytick_5">
     <g id="line2d_16">
      <path d="M 28.95 115.491183 
L 504 115.491183 
" clip-path="url(#pd282161d94)" style="fill: none; stroke: #e6eaed; stroke-width: 0.55; stroke-linecap: square"/>
     </g>
     <g id="line2d_17">
      <g>
       <use xlink:href="#m06ea2e67d2" x="28.95" y="115.491183" style="fill: #667582; stroke: #667582; stroke-width: 0.6"/>
      </g>
     </g>
     <g id="text_13">
      <!-- 4 -->
      <g style="fill: #667582" transform="translate(17.7325 118.873917) scale(0.085 -0.085)">
       <defs>
        <path id="NotoSansCJKjp-Regular-34" d="M 2176 0 
L 2726 0 
L 2726 1293 
L 3354 1293 
L 3354 1760 
L 2726 1760 
L 2726 4691 
L 2080 4691 
L 128 1677 
L 128 1293 
L 2176 1293 
L 2176 0 
z
M 2176 1760 
L 736 1760 
L 1805 3360 
C 1939 3590 2067 3827 2182 4051 
L 2208 4051 
C 2195 3814 2176 3430 2176 3200 
L 2176 1760 
z
" transform="scale(0.015625)"/>
       </defs>
       <use xlink:href="#NotoSansCJKjp-Regular-34"/>
      </g>
     </g>
    </g>
    <g id="ytick_6">
     <g id="line2d_18">
      <path d="M 28.95 81.472366 
L 504 81.472366 
" clip-path="url(#pd282161d94)" style="fill: none; stroke: #e6eaed; stroke-width: 0.55; stroke-linecap: square"/>
     </g>
     <g id="line2d_19">
      <g>
       <use xlink:href="#m06ea2e67d2" x="28.95" y="81.472366" style="fill: #667582; stroke: #667582; stroke-width: 0.6"/>
      </g>
     </g>
     <g id="text_14">
      <!-- 5 -->
      <g style="fill: #667582" transform="translate(17.7325 84.8551) scale(0.085 -0.085)">
       <use xlink:href="#NotoSansCJKjp-Regular-35"/>
      </g>
     </g>
    </g>
    <g id="ytick_7">
     <g id="line2d_20">
      <path d="M 28.95 47.453548 
L 504 47.453548 
" clip-path="url(#pd282161d94)" style="fill: none; stroke: #e6eaed; stroke-width: 0.55; stroke-linecap: square"/>
     </g>
     <g id="line2d_21">
      <g>
       <use xlink:href="#m06ea2e67d2" x="28.95" y="47.453548" style="fill: #667582; stroke: #667582; stroke-width: 0.6"/>
      </g>
     </g>
     <g id="text_15">
      <!-- 6 -->
      <g style="fill: #667582" transform="translate(17.7325 50.836283) scale(0.085 -0.085)">
       <defs>
        <path id="NotoSansCJKjp-Regular-36" d="M 1926 -83 
C 2656 -83 3277 531 3277 1440 
C 3277 2426 2765 2912 1971 2912 
C 1606 2912 1197 2701 909 2349 
C 934 3802 1466 4294 2118 4294 
C 2400 4294 2682 4154 2861 3936 
L 3194 4294 
C 2931 4576 2579 4774 2093 4774 
C 1184 4774 358 4077 358 2240 
C 358 691 1030 -83 1926 -83 
z
M 922 1882 
C 1229 2317 1587 2477 1875 2477 
C 2445 2477 2720 2074 2720 1440 
C 2720 800 2374 378 1926 378 
C 1338 378 986 909 922 1882 
z
" transform="scale(0.015625)"/>
       </defs>
       <use xlink:href="#NotoSansCJKjp-Regular-36"/>
      </g>
     </g>
    </g>
    <g id="text_16">
     <!-- 电池复用冲突数 -->
     <g style="fill: #253342" transform="translate(11.441875 184.51) rotate(-90) scale(0.1 -0.1)">
      <defs>
       <path id="NotoSansCJKjp-Regular-7535" d="M 2893 2611 
L 2893 1690 
L 1306 1690 
L 1306 2611 
L 2893 2611 
z
M 3398 2611 
L 5043 2611 
L 5043 1690 
L 3398 1690 
L 3398 2611 
z
M 2893 3059 
L 1306 3059 
L 1306 3974 
L 2893 3974 
L 2893 3059 
z
M 3398 3059 
L 3398 3974 
L 5043 3974 
L 5043 3059 
L 3398 3059 
z
M 806 4448 
L 806 826 
L 1306 826 
L 1306 1222 
L 2893 1222 
L 2893 544 
C 2893 -205 3104 -403 3821 -403 
C 3981 -403 5062 -403 5235 -403 
C 5920 -403 6074 -64 6157 909 
C 6010 947 5805 1037 5677 1126 
C 5632 294 5568 83 5210 83 
C 4979 83 4045 83 3853 83 
C 3469 83 3398 160 3398 531 
L 3398 1222 
L 5536 1222 
L 5536 4448 
L 3398 4448 
L 3398 5363 
L 2893 5363 
L 2893 4448 
L 806 4448 
z
" transform="scale(0.015625)"/>
       <path id="NotoSansCJKjp-Regular-6c60" d="M 595 4954 
C 1011 4774 1523 4467 1779 4250 
L 2054 4653 
C 1792 4864 1267 5133 858 5306 
L 595 4954 
z
M 256 3194 
C 659 3014 1152 2726 1402 2522 
L 1664 2918 
C 1414 3117 909 3386 512 3552 
L 256 3194 
z
M 467 -102 
L 883 -416 
C 1248 186 1670 986 1997 1658 
L 1632 1958 
C 1280 1235 794 390 467 -102 
z
M 2534 4749 
L 2534 3034 
L 1766 2733 
L 1952 2304 
L 2534 2534 
L 2534 461 
C 2534 -256 2758 -442 3533 -442 
C 3706 -442 5030 -442 5216 -442 
C 5926 -442 6086 -147 6163 742 
C 6029 768 5830 851 5715 934 
C 5664 179 5594 0 5203 0 
C 4922 0 3770 0 3546 0 
C 3091 0 3008 83 3008 454 
L 3008 2714 
L 3942 3085 
L 3942 915 
L 4416 915 
L 4416 3264 
L 5414 3654 
C 5408 2643 5395 1971 5350 1798 
C 5312 1632 5242 1606 5133 1606 
C 5056 1606 4819 1606 4640 1619 
C 4704 1504 4749 1299 4762 1165 
C 4960 1158 5242 1165 5421 1210 
C 5619 1261 5747 1382 5798 1677 
C 5856 1946 5875 2874 5875 4038 
L 5901 4128 
L 5555 4262 
L 5472 4186 
L 5434 4154 
L 4416 3763 
L 4416 5363 
L 3942 5363 
L 3942 3578 
L 3008 3213 
L 3008 4749 
L 2534 4749 
z
" transform="scale(0.015625)"/>
       <path id="NotoSansCJKjp-Regular-590d" d="M 2272 2835 
L 4186 2835 
L 4186 2387 
L 2272 2387 
L 2272 2835 
z
M 2272 3590 
L 4186 3590 
L 4186 3155 
L 2272 3155 
L 2272 3590 
z
M 2221 5389 
C 1965 4730 1517 4102 1011 3699 
C 1120 3629 1306 3450 1382 3366 
C 1536 3501 1683 3661 1830 3834 
L 1830 2048 
L 2547 2048 
C 2195 1549 1626 1120 1043 838 
C 1152 762 1312 595 1382 506 
C 1651 653 1920 838 2176 1050 
C 2368 806 2598 582 2861 390 
C 2330 122 1715 -58 1107 -154 
C 1190 -250 1293 -422 1331 -538 
C 2003 -410 2675 -198 3251 122 
C 3763 -179 4365 -397 5011 -518 
C 5082 -397 5203 -205 5312 -102 
C 4717 -19 4154 147 3667 384 
C 4102 691 4461 1075 4698 1555 
L 4397 1709 
L 4307 1690 
L 2810 1690 
C 2906 1805 2989 1926 3066 2048 
L 4640 2048 
L 4640 3930 
L 1907 3930 
C 2003 4051 2099 4186 2189 4320 
L 4960 4320 
L 4960 4736 
L 2438 4736 
C 2534 4909 2618 5082 2688 5261 
L 2221 5389 
z
M 2458 1299 
L 2483 1325 
L 4032 1325 
C 3834 1050 3565 813 3251 608 
C 2925 806 2656 1043 2458 1299 
z
" transform="scale(0.015625)"/>
       <path id="NotoSansCJKjp-Regular-7528" d="M 979 4928 
L 979 2605 
C 979 1702 915 570 205 -230 
C 314 -288 506 -448 576 -544 
C 1069 0 1286 736 1382 1453 
L 2989 1453 
L 2989 -454 
L 3475 -454 
L 3475 1453 
L 5203 1453 
L 5203 141 
C 5203 26 5158 -13 5030 -19 
C 4909 -26 4474 -32 4026 -13 
C 4090 -141 4166 -352 4192 -474 
C 4794 -480 5165 -474 5382 -397 
C 5600 -320 5677 -173 5677 141 
L 5677 4928 
L 979 4928 
z
M 1453 4467 
L 2989 4467 
L 2989 3437 
L 1453 3437 
L 1453 4467 
z
M 5203 4467 
L 5203 3437 
L 3475 3437 
L 3475 4467 
L 5203 4467 
z
M 1453 2982 
L 2989 2982 
L 2989 1907 
L 1427 1907 
C 1446 2150 1453 2387 1453 2605 
L 1453 2982 
z
M 5203 2982 
L 5203 1907 
L 3475 1907 
L 3475 2982 
L 5203 2982 
z
" transform="scale(0.015625)"/>
       <path id="NotoSansCJKjp-Regular-51b2" d="M 339 4672 
C 736 4371 1203 3923 1421 3629 
L 1786 3994 
C 1562 4288 1069 4704 678 4992 
L 339 4672 
z
M 237 410 
L 678 109 
C 1043 704 1472 1504 1805 2195 
L 1421 2483 
C 1062 1754 576 902 237 410 
z
M 3776 3699 
L 3776 2157 
L 2630 2157 
L 2630 3699 
L 3776 3699 
z
M 4256 3699 
L 5472 3699 
L 5472 2157 
L 4256 2157 
L 4256 3699 
z
M 3776 5370 
L 3776 4179 
L 2157 4179 
L 2157 1274 
L 2630 1274 
L 2630 1677 
L 3776 1677 
L 3776 -512 
L 4256 -512 
L 4256 1677 
L 5472 1677 
L 5472 1299 
L 5958 1299 
L 5958 4179 
L 4256 4179 
L 4256 5370 
L 3776 5370 
z
" transform="scale(0.015625)"/>
       <path id="NotoSansCJKjp-Regular-7a81" d="M 493 4730 
L 493 3565 
L 979 3565 
L 979 4294 
L 2189 4294 
C 2067 3418 1747 2912 416 2650 
C 506 2554 627 2374 672 2259 
C 2150 2586 2547 3219 2694 4294 
L 3654 4294 
L 3654 3174 
C 3654 2720 3789 2598 4346 2598 
C 4461 2598 5152 2598 5267 2598 
C 5677 2598 5811 2739 5862 3309 
C 5734 3334 5549 3398 5446 3462 
C 5427 3059 5389 2995 5216 2995 
C 5075 2995 4512 2995 4403 2995 
C 4166 2995 4122 3021 4122 3168 
L 4122 4294 
L 5453 4294 
L 5453 3648 
L 5952 3648 
L 5952 4730 
L 3443 4730 
L 3443 5382 
L 2950 5382 
L 2950 4730 
L 493 4730 
z
M 2906 2688 
C 2886 2387 2854 2106 2810 1856 
L 358 1856 
L 358 1408 
L 2688 1408 
C 2413 640 1798 160 275 -90 
C 365 -198 486 -390 525 -518 
C 2221 -205 2893 403 3194 1357 
C 3603 243 4397 -307 5843 -512 
C 5907 -365 6042 -154 6150 -45 
C 4813 96 4032 531 3654 1408 
L 6048 1408 
L 6048 1856 
L 3315 1856 
C 3360 2112 3392 2387 3418 2688 
L 2906 2688 
z
" transform="scale(0.015625)"/>
       <path id="NotoSansCJKjp-Regular-6570" d="M 2803 5254 
C 2688 4998 2483 4627 2317 4403 
L 2643 4243 
C 2816 4454 3027 4781 3219 5075 
L 2803 5254 
z
M 531 5075 
C 704 4806 870 4454 928 4230 
L 1312 4397 
C 1248 4627 1075 4973 890 5222 
L 531 5075 
z
M 4026 5382 
C 3846 4243 3507 3162 2970 2490 
C 3078 2413 3283 2246 3360 2163 
C 3533 2394 3693 2669 3827 2970 
C 3974 2310 4160 1709 4410 1184 
C 4090 698 3667 314 3110 19 
C 2912 166 2656 326 2374 480 
C 2598 774 2746 1126 2829 1562 
L 3398 1562 
L 3398 1958 
L 1677 1958 
L 1894 2413 
L 1779 2438 
L 2061 2438 
L 2061 3398 
C 2374 3168 2771 2854 2938 2701 
L 3206 3046 
C 3034 3174 2336 3616 2061 3776 
L 2061 3802 
L 3373 3802 
L 3373 4198 
L 2061 4198 
L 2061 5382 
L 1613 5382 
L 1613 4198 
L 288 4198 
L 288 3802 
L 1485 3802 
C 1171 3379 678 2982 218 2784 
C 314 2694 422 2528 480 2419 
C 870 2637 1293 2989 1613 3373 
L 1613 2477 
L 1440 2515 
L 1178 1958 
L 250 1958 
L 250 1562 
L 979 1562 
C 806 1222 627 896 486 653 
L 909 506 
L 1005 678 
C 1222 589 1434 493 1638 384 
C 1306 147 858 -13 269 -109 
C 352 -211 448 -384 480 -512 
C 1171 -365 1683 -154 2061 160 
C 2355 -13 2611 -186 2810 -352 
L 2963 -192 
C 3046 -301 3136 -448 3174 -531 
C 3802 -205 4288 205 4666 710 
C 4979 192 5370 -224 5862 -512 
C 5939 -378 6093 -192 6208 -96 
C 5690 173 5280 614 4960 1165 
C 5350 1856 5594 2707 5754 3750 
L 6144 3750 
L 6144 4198 
L 4262 4198 
C 4358 4557 4442 4928 4506 5312 
L 4026 5382 
z
M 1478 1562 
L 2368 1562 
C 2285 1216 2157 928 1965 698 
C 1715 819 1459 934 1197 1030 
L 1478 1562 
z
M 4134 3750 
L 5254 3750 
C 5139 2950 4966 2266 4698 1696 
C 4435 2298 4250 3002 4134 3750 
z
" transform="scale(0.015625)"/>
      </defs>
      <use xlink:href="#NotoSansCJKjp-Regular-7535"/>
      <use xlink:href="#NotoSansCJKjp-Regular-6c60" transform="translate(99.999985 0)"/>
      <use xlink:href="#NotoSansCJKjp-Regular-590d" transform="translate(199.999969 0)"/>
      <use xlink:href="#NotoSansCJKjp-Regular-7528" transform="translate(299.999954 0)"/>
      <use xlink:href="#NotoSansCJKjp-Regular-51b2" transform="translate(399.999939 0)"/>
      <use xlink:href="#NotoSansCJKjp-Regular-7a81" transform="translate(499.999924 0)"/>
      <use xlink:href="#NotoSansCJKjp-Regular-6570" transform="translate(599.999908 0)"/>
     </g>
    </g>
   </g>
   <g id="line2d_22">
    <path d="M 46.544444 251.566452 
L 119.85463 251.566452 
L 193.164815 251.566452 
L 207.826852 183.528817 
L 222.488889 183.528817 
L 237.150926 149.51 
L 251.812963 149.51 
L 266.475 149.51 
L 310.461111 115.491183 
L 339.785185 115.491183 
L 413.09537 81.472366 
L 486.405556 81.472366 
" clip-path="url(#pd282161d94)" style="fill: none; stroke: #466c96; stroke-width: 1.6; stroke-linecap: square"/>
    <defs>
     <path id="m871a2b7743" d="M 0 2 
C 0.530406 2 1.03916 1.789267 1.414214 1.414214 
C 1.789267 1.03916 2 0.530406 2 0 
C 2 -0.530406 1.789267 -1.03916 1.414214 -1.414214 
C 1.03916 -1.789267 0.530406 -2 0 -2 
C -0.530406 -2 -1.03916 -1.789267 -1.414214 -1.414214 
C -1.789267 -1.03916 -2 -0.530406 -2 0 
C -2 0.530406 -1.789267 1.03916 -1.414214 1.414214 
C -1.03916 1.789267 -0.530406 2 0 2 
z
" style="stroke: #466c96"/>
    </defs>
    <g clip-path="url(#pd282161d94)">
     <use xlink:href="#m871a2b7743" x="46.544444" y="251.566452" style="fill: #ffffff; stroke: #466c96"/>
     <use xlink:href="#m871a2b7743" x="119.85463" y="251.566452" style="fill: #ffffff; stroke: #466c96"/>
     <use xlink:href="#m871a2b7743" x="193.164815" y="251.566452" style="fill: #ffffff; stroke: #466c96"/>
     <use xlink:href="#m871a2b7743" x="207.826852" y="183.528817" style="fill: #ffffff; stroke: #466c96"/>
     <use xlink:href="#m871a2b7743" x="222.488889" y="183.528817" style="fill: #ffffff; stroke: #466c96"/>
     <use xlink:href="#m871a2b7743" x="237.150926" y="149.51" style="fill: #ffffff; stroke: #466c96"/>
     <use xlink:href="#m871a2b7743" x="251.812963" y="149.51" style="fill: #ffffff; stroke: #466c96"/>
     <use xlink:href="#m871a2b7743" x="266.475" y="149.51" style="fill: #ffffff; stroke: #466c96"/>
     <use xlink:href="#m871a2b7743" x="310.461111" y="115.491183" style="fill: #ffffff; stroke: #466c96"/>
     <use xlink:href="#m871a2b7743" x="339.785185" y="115.491183" style="fill: #ffffff; stroke: #466c96"/>
     <use xlink:href="#m871a2b7743" x="413.09537" y="81.472366" style="fill: #ffffff; stroke: #466c96"/>
     <use xlink:href="#m871a2b7743" x="486.405556" y="81.472366" style="fill: #ffffff; stroke: #466c96"/>
    </g>
   </g>
   <g id="line2d_23">
    <path d="M 46.544444 251.566452 
L 119.85463 251.566452 
L 193.164815 251.566452 
L 207.826852 115.491183 
L 222.488889 115.491183 
L 237.150926 81.472366 
L 251.812963 81.472366 
L 266.475 81.472366 
L 310.461111 81.472366 
L 339.785185 81.472366 
L 413.09537 47.453548 
L 486.405556 47.453548 
" clip-path="url(#pd282161d94)" style="fill: none; stroke: #509c9c; stroke-width: 1.6; stroke-linecap: square"/>
    <defs>
     <path id="mafd6f24b1e" d="M 0 2 
C 0.530406 2 1.03916 1.789267 1.414214 1.414214 
C 1.789267 1.03916 2 0.530406 2 0 
C 2 -0.530406 1.789267 -1.03916 1.414214 -1.414214 
C 1.03916 -1.789267 0.530406 -2 0 -2 
C -0.530406 -2 -1.03916 -1.789267 -1.414214 -1.414214 
C -1.789267 -1.03916 -2 -0.530406 -2 0 
C -2 0.530406 -1.789267 1.03916 -1.414214 1.414214 
C -1.03916 1.789267 -0.530406 2 0 2 
z
" style="stroke: #509c9c"/>
    </defs>
    <g clip-path="url(#pd282161d94)">
     <use xlink:href="#mafd6f24b1e" x="46.544444" y="251.566452" style="fill: #ffffff; stroke: #509c9c"/>
     <use xlink:href="#mafd6f24b1e" x="119.85463" y="251.566452" style="fill: #ffffff; stroke: #509c9c"/>
     <use xlink:href="#mafd6f24b1e" x="193.164815" y="251.566452" style="fill: #ffffff; stroke: #509c9c"/>
     <use xlink:href="#mafd6f24b1e" x="207.826852" y="115.491183" style="fill: #ffffff; stroke: #509c9c"/>
     <use xlink:href="#mafd6f24b1e" x="222.488889" y="115.491183" style="fill: #ffffff; stroke: #509c9c"/>
     <use xlink:href="#mafd6f24b1e" x="237.150926" y="81.472366" style="fill: #ffffff; stroke: #509c9c"/>
     <use xlink:href="#mafd6f24b1e" x="251.812963" y="81.472366" style="fill: #ffffff; stroke: #509c9c"/>
     <use xlink:href="#mafd6f24b1e" x="266.475" y="81.472366" style="fill: #ffffff; stroke: #509c9c"/>
     <use xlink:href="#mafd6f24b1e" x="310.461111" y="81.472366" style="fill: #ffffff; stroke: #509c9c"/>
     <use xlink:href="#mafd6f24b1e" x="339.785185" y="81.472366" style="fill: #ffffff; stroke: #509c9c"/>
     <use xlink:href="#mafd6f24b1e" x="413.09537" y="47.453548" style="fill: #ffffff; stroke: #509c9c"/>
     <use xlink:href="#mafd6f24b1e" x="486.405556" y="47.453548" style="fill: #ffffff; stroke: #509c9c"/>
    </g>
   </g>
   <g id="line2d_24">
    <path d="M 28.95 251.566452 
L 504 251.566452 
" clip-path="url(#pd282161d94)" style="fill: none; stroke-dasharray: 3.145,1.36; stroke-dashoffset: 0; stroke: #bb6b64; stroke-width: 0.85"/>
   </g>
   <g id="patch_3">
    <path d="M 28.95 276.06 
L 28.95 22.96 
" style="fill: none; stroke: #86919a; stroke-width: 0.65; stroke-linejoin: miter; stroke-linecap: square"/>
   </g>
   <g id="patch_4">
    <path d="M 28.95 276.06 
L 504 276.06 
" style="fill: none; stroke: #86919a; stroke-width: 0.65; stroke-linejoin: miter; stroke-linecap: square"/>
   </g>
   <g id="text_17">
    <!-- 闭环压力测试：运输能耗扰动导致的电池周转冲突 -->
    <g style="fill: #253342" transform="translate(28.95 12.96) scale(0.115 -0.115)">
     <defs>
      <path id="NotoSansCJKjp-Regular-95ed" d="M 570 3936 
L 570 -512 
L 1043 -512 
L 1043 3936 
L 570 3936 
z
M 666 5075 
C 966 4787 1312 4384 1459 4122 
L 1856 4384 
C 1696 4653 1338 5037 1037 5306 
L 666 5075 
z
M 3603 4134 
L 3603 3277 
L 1549 3277 
L 1549 2822 
L 3328 2822 
C 2893 2118 2131 1453 1254 1005 
C 1363 928 1517 768 1587 672 
C 2406 1107 3104 1715 3603 2413 
L 3603 653 
C 3603 550 3571 525 3469 518 
C 3360 518 3002 518 2624 531 
C 2688 397 2765 192 2784 64 
C 3296 64 3629 70 3827 147 
C 4038 218 4102 352 4102 640 
L 4102 2822 
L 4998 2822 
L 4998 3277 
L 4102 3277 
L 4102 4134 
L 3603 4134 
z
M 2272 5024 
L 2272 4576 
L 5370 4576 
L 5370 96 
C 5370 6 5344 -19 5248 -26 
C 5165 -26 4858 -26 4563 -19 
C 4627 -141 4691 -346 4717 -467 
C 5146 -474 5427 -461 5606 -384 
C 5779 -307 5843 -173 5843 96 
L 5843 5024 
L 2272 5024 
z
" transform="scale(0.015625)"/>
      <path id="NotoSansCJKjp-Regular-73af" d="M 4333 3162 
C 4813 2624 5382 1888 5638 1434 
L 6029 1734 
C 5760 2176 5171 2893 4698 3418 
L 4333 3162 
z
M 230 653 
L 352 198 
C 877 390 1555 627 2195 864 
L 2118 1299 
L 1472 1069 
L 1472 2643 
L 2042 2643 
L 2042 3091 
L 1472 3091 
L 1472 4493 
L 2176 4493 
L 2176 4941 
L 262 4941 
L 262 4493 
L 1024 4493 
L 1024 3091 
L 358 3091 
L 358 2643 
L 1024 2643 
L 1024 915 
L 230 653 
z
M 2502 4966 
L 2502 4499 
L 4134 4499 
C 3731 3373 3066 2374 2266 1734 
C 2381 1645 2566 1453 2643 1357 
C 3085 1747 3494 2246 3853 2816 
L 3853 -493 
L 4326 -493 
L 4326 3693 
C 4448 3955 4563 4224 4659 4499 
L 6042 4499 
L 6042 4966 
L 2502 4966 
z
" transform="scale(0.015625)"/>
      <path id="NotoSansCJKjp-Regular-538b" d="M 4378 1734 
C 4723 1434 5107 1005 5280 723 
L 5651 998 
C 5466 1274 5082 1670 4730 1965 
L 4378 1734 
z
M 736 5069 
L 736 3002 
C 736 2029 698 698 205 -250 
C 314 -294 518 -435 602 -512 
C 1120 480 1197 1978 1197 3002 
L 1197 4608 
L 6118 4608 
L 6118 5069 
L 736 5069 
z
M 3398 4256 
L 3398 2880 
L 1651 2880 
L 1651 2426 
L 3398 2426 
L 3398 218 
L 1229 218 
L 1229 -237 
L 6093 -237 
L 6093 218 
L 3885 218 
L 3885 2426 
L 5786 2426 
L 5786 2880 
L 3885 2880 
L 3885 4256 
L 3398 4256 
z
" transform="scale(0.015625)"/>
      <path id="NotoSansCJKjp-Regular-529b" d="M 2624 5363 
L 2624 4256 
L 2624 3981 
L 531 3981 
L 531 3488 
L 2598 3488 
C 2502 2285 2080 877 339 -160 
C 461 -243 634 -422 710 -538 
C 2573 595 3008 2157 3098 3488 
L 5293 3488 
C 5165 1229 5024 320 4794 102 
C 4717 19 4634 0 4499 0 
C 4339 0 3930 6 3488 45 
C 3584 -96 3642 -307 3654 -448 
C 4051 -467 4461 -480 4678 -461 
C 4928 -435 5075 -390 5229 -198 
C 5517 115 5645 1075 5792 3725 
C 5798 3795 5805 3981 5805 3981 
L 3123 3981 
L 3123 4256 
L 3123 5363 
L 2624 5363 
z
" transform="scale(0.015625)"/>
      <path id="NotoSansCJKjp-Regular-6d4b" d="M 3110 589 
C 3437 269 3814 -179 3994 -467 
L 4307 -250 
C 4122 26 3738 461 3411 774 
L 3110 589 
z
M 1997 5005 
L 1997 986 
L 2374 986 
L 2374 4634 
L 3763 4634 
L 3763 1005 
L 4154 1005 
L 4154 5005 
L 1997 5005 
z
M 5549 5293 
L 5549 45 
C 5549 -51 5510 -83 5421 -83 
C 5331 -90 5030 -90 4691 -83 
C 4749 -198 4813 -384 4832 -486 
C 5280 -493 5555 -480 5722 -410 
C 5882 -339 5946 -218 5946 45 
L 5946 5293 
L 5549 5293 
z
M 4672 4800 
L 4672 966 
L 5056 966 
L 5056 4800 
L 4672 4800 
z
M 2854 4179 
L 2854 1914 
C 2854 1139 2726 339 1658 -205 
C 1728 -262 1850 -422 1894 -499 
C 3046 83 3226 1050 3226 1907 
L 3226 4179 
L 2854 4179 
z
M 518 4966 
C 877 4768 1338 4461 1555 4256 
L 1850 4646 
C 1619 4838 1152 5120 806 5306 
L 518 4966 
z
M 243 3238 
C 595 3040 1062 2752 1293 2560 
L 1581 2944 
C 1338 3130 864 3405 518 3584 
L 243 3238 
z
M 371 -173 
L 806 -429 
C 1075 160 1395 947 1626 1619 
L 1242 1869 
C 986 1152 627 320 371 -173 
z
" transform="scale(0.015625)"/>
      <path id="NotoSansCJKjp-Regular-8bd5" d="M 768 4960 
C 1094 4678 1504 4269 1696 4006 
L 2029 4339 
C 1837 4595 1421 4979 1088 5254 
L 768 4960 
z
M 4973 5094 
C 5242 4813 5536 4422 5664 4166 
L 6016 4403 
C 5875 4653 5574 5024 5306 5299 
L 4973 5094 
z
M 320 3366 
L 320 2906 
L 1210 2906 
L 1210 602 
C 1210 326 1018 141 902 70 
C 986 -26 1101 -230 1146 -346 
C 1242 -230 1414 -115 2509 621 
C 2464 717 2406 902 2374 1030 
L 1664 570 
L 1664 3366 
L 320 3366 
z
M 4294 5344 
L 4333 4045 
L 2214 4045 
L 2214 3584 
L 4352 3584 
C 4467 1171 4768 -474 5562 -493 
C 5805 -493 6061 -224 6189 858 
C 6099 896 5894 1024 5805 1120 
C 5766 493 5690 134 5574 134 
C 5178 154 4928 1606 4826 3584 
L 6138 3584 
L 6138 4045 
L 4806 4045 
C 4794 4461 4781 4896 4781 5344 
L 4294 5344 
z
M 2304 390 
L 2438 -64 
C 2976 96 3674 301 4346 499 
L 4282 928 
L 3533 717 
L 3533 2202 
L 4134 2202 
L 4134 2650 
L 2419 2650 
L 2419 2202 
L 3091 2202 
L 3091 595 
L 2304 390 
z
" transform="scale(0.015625)"/>
      <path id="NotoSansCJKjp-Regular-ff1a" d="M 3200 3482 
C 3456 3482 3686 3667 3686 3962 
C 3686 4256 3456 4442 3200 4442 
C 2944 4442 2714 4256 2714 3962 
C 2714 3667 2944 3482 3200 3482 
z
M 3200 346 
C 3456 346 3686 538 3686 826 
C 3686 1120 3456 1312 3200 1312 
C 2944 1312 2714 1120 2714 826 
C 2714 538 2944 346 3200 346 
z
" transform="scale(0.015625)"/>
      <path id="NotoSansCJKjp-Regular-6270" d="M 4134 2874 
L 4134 326 
C 4134 -205 4262 -358 4774 -358 
C 4877 -358 5434 -358 5536 -358 
C 6010 -358 6131 -96 6176 877 
C 6048 909 5850 986 5741 1069 
C 5722 230 5690 90 5498 90 
C 5382 90 4928 90 4832 90 
C 4634 90 4602 122 4602 326 
L 4602 2874 
L 4134 2874 
z
M 4570 4992 
C 4883 4698 5254 4275 5434 4006 
L 5786 4282 
C 5600 4544 5216 4941 4902 5229 
L 4570 4992 
z
M 3571 5344 
C 3565 4870 3565 4365 3539 3859 
L 2522 3859 
L 2522 3398 
L 3507 3398 
C 3392 2022 3053 678 2010 -122 
C 2138 -198 2291 -333 2381 -442 
C 3488 448 3853 1907 3981 3398 
L 6080 3398 
L 6080 3859 
L 4013 3859 
C 4038 4365 4045 4870 4051 5344 
L 3571 5344 
z
M 1152 5376 
L 1152 4083 
L 269 4083 
L 269 3635 
L 1152 3635 
L 1152 2234 
L 205 1984 
L 346 1517 
L 1152 1754 
L 1152 96 
C 1152 6 1114 -19 1024 -26 
C 947 -26 666 -32 365 -19 
C 429 -141 493 -339 512 -461 
C 947 -461 1216 -454 1389 -378 
C 1555 -301 1619 -173 1619 96 
L 1619 1894 
L 2515 2163 
L 2458 2598 
L 1619 2362 
L 1619 3635 
L 2362 3635 
L 2362 4083 
L 1619 4083 
L 1619 5376 
L 1152 5376 
z
" transform="scale(0.015625)"/>
      <path id="NotoSansCJKjp-Regular-52a8" d="M 570 4851 
L 570 4422 
L 3046 4422 
L 3046 4851 
L 570 4851 
z
M 4179 5267 
C 4179 4813 4179 4352 4160 3898 
L 3245 3898 
L 3245 3437 
L 4141 3437 
C 4064 1978 3808 640 2931 -160 
C 3059 -230 3226 -390 3309 -506 
C 4250 390 4525 1850 4614 3437 
L 5568 3437 
C 5498 1165 5414 314 5242 122 
C 5178 45 5107 26 4992 26 
C 4858 26 4518 26 4160 64 
C 4243 -77 4294 -275 4307 -410 
C 4646 -435 4998 -435 5197 -416 
C 5402 -397 5530 -339 5658 -173 
C 5882 109 5958 1018 6048 3654 
C 6048 3725 6048 3898 6048 3898 
L 4634 3898 
C 4646 4352 4653 4813 4653 5267 
L 4179 5267 
z
M 570 282 
L 576 288 
L 576 275 
C 723 365 954 435 2733 838 
L 2854 410 
L 3277 550 
C 3155 998 2867 1760 2624 2336 
L 2227 2227 
C 2355 1926 2483 1574 2598 1242 
L 1075 922 
C 1325 1498 1568 2214 1728 2886 
L 3162 2886 
L 3162 3328 
L 346 3328 
L 346 2886 
L 1235 2886 
C 1069 2138 800 1382 710 1171 
C 602 928 518 755 416 723 
C 474 608 544 378 570 282 
z
" transform="scale(0.015625)"/>
      <path id="NotoSansCJKjp-Regular-5bfc" d="M 1350 1165 
C 1754 832 2208 339 2394 6 
L 2752 326 
C 2554 640 2118 1088 1728 1414 
L 4147 1414 
L 4147 70 
C 4147 -26 4109 -58 3981 -64 
C 3859 -64 3398 -70 2925 -58 
C 2995 -179 3072 -358 3098 -486 
C 3712 -486 4102 -486 4333 -416 
C 4563 -352 4640 -224 4640 58 
L 4640 1414 
L 6042 1414 
L 6042 1862 
L 4640 1862 
L 4640 2362 
L 4147 2362 
L 4147 1862 
L 397 1862 
L 397 1414 
L 1638 1414 
L 1350 1165 
z
M 864 4928 
L 864 3251 
C 864 2650 1184 2522 2240 2522 
C 2477 2522 4538 2522 4794 2522 
C 5600 2522 5811 2675 5894 3334 
C 5747 3354 5555 3411 5427 3482 
C 5376 3008 5286 2918 4762 2918 
C 4314 2918 2541 2918 2202 2918 
C 1491 2918 1363 2989 1363 3258 
L 1363 3597 
L 5286 3597 
L 5286 5120 
L 864 5120 
L 864 4928 
z
M 1363 4698 
L 4813 4698 
L 4813 4026 
L 1363 4026 
L 1363 4698 
z
" transform="scale(0.015625)"/>
      <path id="NotoSansCJKjp-Regular-81f4" d="M 3878 5376 
C 3725 4518 3482 3686 3130 3040 
C 2976 3373 2682 3827 2413 4179 
L 2035 3994 
C 2170 3808 2310 3590 2438 3379 
L 1152 3290 
C 1338 3654 1530 4122 1690 4525 
L 3162 4525 
L 3162 4966 
L 294 4966 
L 294 4525 
L 1171 4525 
C 1043 4122 864 3629 691 3258 
L 237 3232 
L 294 2778 
L 2656 2982 
C 2701 2886 2746 2790 2771 2714 
L 3014 2848 
C 2950 2752 2886 2656 2822 2573 
C 2938 2502 3149 2342 3232 2259 
C 3379 2458 3514 2688 3642 2944 
C 3795 2278 4006 1677 4275 1152 
C 3891 621 3373 211 2682 -96 
C 2771 -198 2912 -416 2963 -525 
C 3622 -205 4141 198 4544 704 
C 4890 186 5318 -230 5862 -518 
C 5933 -384 6086 -198 6202 -102 
C 5638 160 5190 589 4838 1133 
C 5261 1824 5536 2675 5709 3731 
L 6112 3731 
L 6112 4179 
L 4109 4179 
C 4211 4538 4301 4915 4371 5299 
L 3878 5376 
z
M 243 320 
L 320 -166 
C 1101 -26 2214 166 3258 358 
L 3238 813 
L 1939 589 
L 1939 1549 
L 3059 1549 
L 3059 1984 
L 1939 1984 
L 1939 2733 
L 1485 2733 
L 1485 1984 
L 442 1984 
L 442 1549 
L 1485 1549 
L 1485 518 
L 243 320 
z
M 3962 3731 
L 5210 3731 
C 5082 2899 4877 2202 4570 1619 
C 4275 2208 4070 2899 3936 3648 
L 3962 3731 
z
" transform="scale(0.015625)"/>
      <path id="NotoSansCJKjp-Regular-7684" d="M 3533 2707 
C 3885 2240 4320 1600 4512 1210 
L 4922 1466 
C 4710 1843 4269 2464 3904 2918 
L 3533 2707 
z
M 1536 5389 
C 1485 5082 1376 4659 1274 4346 
L 557 4346 
L 557 -346 
L 998 -346 
L 998 160 
L 2784 160 
L 2784 4346 
L 1715 4346 
C 1824 4621 1946 4979 2054 5299 
L 1536 5389 
z
M 998 3917 
L 2342 3917 
L 2342 2566 
L 998 2566 
L 998 3917 
z
M 998 595 
L 998 2144 
L 2342 2144 
L 2342 595 
L 998 595 
z
M 3827 5402 
C 3622 4518 3277 3635 2835 3066 
C 2950 3002 3149 2867 3238 2790 
C 3456 3098 3661 3488 3840 3923 
L 5478 3923 
C 5402 1357 5299 371 5094 154 
C 5018 64 4947 45 4819 45 
C 4672 45 4288 51 3866 83 
C 3955 -38 4013 -243 4026 -378 
C 4384 -397 4762 -410 4979 -390 
C 5210 -365 5350 -314 5498 -122 
C 5754 192 5843 1184 5939 4122 
C 5946 4186 5946 4365 5946 4365 
L 4013 4365 
C 4115 4666 4211 4986 4288 5299 
L 3827 5402 
z
" transform="scale(0.015625)"/>
      <path id="NotoSansCJKjp-Regular-5468" d="M 947 5069 
L 947 2995 
C 947 2003 883 691 211 -243 
C 320 -301 512 -454 595 -550 
C 1318 442 1421 1933 1421 2995 
L 1421 4621 
L 5152 4621 
L 5152 96 
C 5152 -13 5107 -51 4992 -58 
C 4883 -64 4486 -70 4070 -51 
C 4141 -173 4211 -384 4230 -506 
C 4806 -506 5152 -499 5350 -422 
C 5555 -346 5632 -205 5632 96 
L 5632 5069 
L 947 5069 
z
M 2989 4493 
L 2989 3936 
L 1843 3936 
L 1843 3552 
L 2989 3552 
L 2989 2925 
L 1683 2925 
L 1683 2528 
L 4819 2528 
L 4819 2925 
L 3450 2925 
L 3450 3552 
L 4659 3552 
L 4659 3936 
L 3450 3936 
L 3450 4493 
L 2989 4493 
z
M 1997 1990 
L 1997 -51 
L 2438 -51 
L 2438 307 
L 4486 307 
L 4486 1990 
L 1997 1990 
z
M 2438 1600 
L 4038 1600 
L 4038 691 
L 2438 691 
L 2438 1600 
z
" transform="scale(0.015625)"/>
      <path id="NotoSansCJKjp-Regular-8f6c" d="M 518 2125 
C 570 2176 768 2214 986 2214 
L 1555 2214 
L 1555 1286 
L 256 1069 
L 358 602 
L 1555 832 
L 1555 -486 
L 2016 -486 
L 2016 922 
L 2880 1094 
L 2861 1510 
L 2016 1363 
L 2016 2214 
L 2675 2214 
L 2675 2650 
L 2016 2650 
L 2016 3629 
L 1555 3629 
L 1555 2650 
L 928 2650 
C 1133 3098 1331 3629 1498 4179 
L 2669 4179 
L 2669 4627 
L 1632 4627 
C 1690 4845 1741 5062 1792 5280 
L 1318 5376 
C 1280 5126 1229 4877 1171 4627 
L 294 4627 
L 294 4179 
L 1056 4179 
C 909 3654 755 3219 685 3059 
C 570 2784 480 2573 371 2547 
C 429 2432 493 2214 518 2125 
z
M 2726 3424 
L 2726 2970 
L 3667 2970 
C 3533 2522 3398 2106 3283 1779 
L 5126 1779 
C 4902 1459 4627 1075 4365 736 
C 4141 883 3917 1024 3706 1146 
L 3398 838 
C 4051 448 4813 -141 5184 -518 
L 5504 -147 
C 5312 38 5037 256 4723 486 
C 5133 1011 5574 1619 5894 2093 
L 5555 2259 
L 5478 2227 
L 3942 2227 
L 4160 2970 
L 6138 2970 
L 6138 3424 
L 4294 3424 
L 4499 4179 
L 5907 4179 
L 5907 4627 
L 4621 4627 
L 4800 5312 
L 4320 5376 
L 4134 4627 
L 2976 4627 
L 2976 4179 
L 4013 4179 
L 3802 3424 
L 2726 3424 
z
" transform="scale(0.015625)"/>
     </defs>
     <use xlink:href="#NotoSansCJKjp-Regular-95ed"/>
     <use xlink:href="#NotoSansCJKjp-Regular-73af" transform="translate(99.999985 0)"/>
     <use xlink:href="#NotoSansCJKjp-Regular-538b" transform="translate(199.999969 0)"/>
     <use xlink:href="#NotoSansCJKjp-Regular-529b" transform="translate(299.999954 0)"/>
     <use xlink:href="#NotoSansCJKjp-Regular-6d4b" transform="translate(399.999939 0)"/>
     <use xlink:href="#NotoSansCJKjp-Regular-8bd5" transform="translate(499.999924 0)"/>
     <use xlink:href="#NotoSansCJKjp-Regular-ff1a" transform="translate(599.999908 0)"/>
     <use xlink:href="#NotoSansCJKjp-Regular-8fd0" transform="translate(699.999893 0)"/>
     <use xlink:href="#NotoSansCJKjp-Regular-8f93" transform="translate(799.999878 0)"/>
     <use xlink:href="#NotoSansCJKjp-Regular-80fd" transform="translate(899.999863 0)"/>
     <use xlink:href="#NotoSansCJKjp-Regular-8017" transform="translate(999.999847 0)"/>
     <use xlink:href="#NotoSansCJKjp-Regular-6270" transform="translate(1099.999832 0)"/>
     <use xlink:href="#NotoSansCJKjp-Regular-52a8" transform="translate(1199.999817 0)"/>
     <use xlink:href="#NotoSansCJKjp-Regular-5bfc" transform="translate(1299.999802 0)"/>
     <use xlink:href="#NotoSansCJKjp-Regular-81f4" transform="translate(1399.999786 0)"/>
     <use xlink:href="#NotoSansCJKjp-Regular-7684" transform="translate(1499.999771 0)"/>
     <use xlink:href="#NotoSansCJKjp-Regular-7535" transform="translate(1599.999756 0)"/>
     <use xlink:href="#NotoSansCJKjp-Regular-6c60" transform="translate(1699.999741 0)"/>
     <use xlink:href="#NotoSansCJKjp-Regular-5468" transform="translate(1799.999725 0)"/>
     <use xlink:href="#NotoSansCJKjp-Regular-8f6c" transform="translate(1899.99971 0)"/>
     <use xlink:href="#NotoSansCJKjp-Regular-51b2" transform="translate(1999.999695 0)"/>
     <use xlink:href="#NotoSansCJKjp-Regular-7a81" transform="translate(2099.99968 0)"/>
    </g>
   </g>
   <g id="legend_1">
    <g id="line2d_25">
     <path d="M 36.15 33.7275 
L 43.75 33.7275 
L 51.35 33.7275 
" style="fill: none; stroke: #466c96; stroke-width: 1.6; stroke-linecap: square"/>
     <g>
      <use xlink:href="#m871a2b7743" x="43.75" y="33.7275" style="fill: #ffffff; stroke: #466c96"/>
     </g>
    </g>
    <g id="text_18">
     <!-- Q2 -->
     <g style="fill: #253342" transform="translate(57.75 36.5275) scale(0.08 -0.08)">
      <defs>
       <path id="NotoSansCJKjp-Regular-51" d="M 2374 410 
C 1530 410 979 1165 979 2362 
C 979 3533 1530 4256 2374 4256 
C 3219 4256 3770 3533 3770 2362 
C 3770 1165 3219 410 2374 410 
z
M 3808 -1178 
C 4090 -1178 4339 -1133 4480 -1069 
L 4365 -614 
C 4243 -653 4083 -685 3872 -685 
C 3366 -685 2931 -474 2720 -58 
C 3712 115 4378 1011 4378 2362 
C 4378 3866 3552 4774 2374 4774 
C 1197 4774 371 3866 371 2362 
C 371 986 1062 77 2086 -64 
C 2349 -704 2944 -1178 3808 -1178 
z
" transform="scale(0.015625)"/>
      </defs>
      <use xlink:href="#NotoSansCJKjp-Regular-51"/>
      <use xlink:href="#NotoSansCJKjp-Regular-32" transform="translate(74.199982 0)"/>
     </g>
    </g>
    <g id="line2d_26">
     <path d="M 36.15 45.9275 
L 43.75 45.9275 
L 51.35 45.9275 
" style="fill: none; stroke: #509c9c; stroke-width: 1.6; stroke-linecap: square"/>
     <g>
      <use xlink:href="#mafd6f24b1e" x="43.75" y="45.9275" style="fill: #ffffff; stroke: #509c9c"/>
     </g>
    </g>
    <g id="text_19">
     <!-- Q3 -->
     <g style="fill: #253342" transform="translate(57.75 48.7275) scale(0.08 -0.08)">
      <use xlink:href="#NotoSansCJKjp-Regular-51"/>
      <use xlink:href="#NotoSansCJKjp-Regular-33" transform="translate(74.199982 0)"/>
     </g>
    </g>
    <g id="line2d_27">
     <path d="M 36.15 58.1275 
L 43.75 58.1275 
L 51.35 58.1275 
" style="fill: none; stroke-dasharray: 3.145,1.36; stroke-dashoffset: 0; stroke: #bb6b64; stroke-width: 0.85"/>
    </g>
    <g id="text_20">
     <!-- 约束边界 -->
     <g style="fill: #253342" transform="translate(57.75 60.9275) scale(0.08 -0.08)">
      <defs>
       <path id="NotoSansCJKjp-Regular-7ea6" d="M 256 339 
L 333 -128 
C 986 6 1875 186 2733 358 
L 2701 781 
C 1798 608 864 435 256 339 
z
M 3187 2656 
C 3654 2240 4192 1651 4422 1254 
L 4781 1555 
C 4538 1958 3994 2522 3514 2925 
L 3187 2656 
z
M 390 2714 
C 486 2765 646 2797 1478 2893 
C 1184 2483 909 2157 787 2029 
C 582 1798 422 1638 282 1613 
C 339 1491 410 1274 435 1178 
C 582 1254 813 1306 2643 1613 
C 2624 1709 2618 1888 2624 2022 
L 1114 1798 
C 1638 2362 2163 3066 2611 3776 
L 2208 4019 
C 2080 3782 1926 3539 1773 3315 
L 896 3232 
C 1306 3776 1709 4474 2029 5165 
L 1574 5350 
C 1274 4582 774 3770 621 3558 
C 467 3341 352 3200 230 3168 
C 288 3046 365 2816 390 2714 
z
M 3622 5376 
C 3418 4506 3059 3635 2618 3078 
C 2726 3014 2931 2880 3021 2810 
C 3213 3072 3392 3392 3552 3750 
L 5434 3750 
C 5363 1235 5274 275 5082 64 
C 5011 -19 4941 -45 4819 -38 
C 4666 -38 4301 -38 3898 0 
C 3987 -134 4045 -326 4051 -461 
C 4410 -486 4781 -493 4992 -467 
C 5216 -448 5357 -390 5498 -211 
C 5741 96 5818 1062 5901 3955 
C 5901 4019 5907 4198 5907 4198 
L 3738 4198 
C 3866 4544 3987 4909 4083 5280 
L 3622 5376 
z
" transform="scale(0.015625)"/>
       <path id="NotoSansCJKjp-Regular-675f" d="M 928 3546 
L 928 1702 
L 2688 1702 
C 2093 1024 1139 410 256 102 
C 365 6 512 -179 589 -294 
C 1421 32 2310 640 2944 1338 
L 2944 -512 
L 3437 -512 
L 3437 1370 
C 4070 653 4979 32 5837 -307 
C 5914 -179 6067 13 6182 109 
C 5280 410 4307 1024 3712 1702 
L 5498 1702 
L 5498 3546 
L 3437 3546 
L 3437 4243 
L 5933 4243 
L 5933 4698 
L 3437 4698 
L 3437 5370 
L 2944 5370 
L 2944 4698 
L 486 4698 
L 486 4243 
L 2944 4243 
L 2944 3546 
L 928 3546 
z
M 1389 3117 
L 2944 3117 
L 2944 2131 
L 1389 2131 
L 1389 3117 
z
M 3437 3117 
L 5005 3117 
L 5005 2131 
L 3437 2131 
L 3437 3117 
z
" transform="scale(0.015625)"/>
       <path id="NotoSansCJKjp-Regular-8fb9" d="M 525 5018 
C 877 4685 1306 4218 1510 3917 
L 1901 4224 
C 1690 4512 1248 4960 896 5280 
L 525 5018 
z
M 3539 5280 
C 3533 4922 3526 4570 3507 4230 
L 2189 4230 
L 2189 3770 
L 3475 3770 
C 3366 2541 3046 1517 2003 896 
C 2131 813 2278 659 2349 544 
C 3482 1261 3840 2400 3974 3770 
L 5395 3770 
C 5312 1971 5222 1267 5062 1094 
C 4998 1024 4928 1011 4806 1018 
C 4659 1018 4301 1018 3923 1050 
C 4013 909 4077 704 4090 557 
C 4442 544 4806 531 4998 550 
C 5216 570 5357 621 5491 787 
C 5709 1050 5798 1824 5888 4000 
C 5894 4064 5894 4230 5894 4230 
L 4006 4230 
C 4026 4570 4038 4922 4045 5280 
L 3539 5280 
z
M 1587 3206 
L 269 3206 
L 269 2733 
L 1107 2733 
L 1107 742 
C 826 627 499 326 154 -58 
L 512 -525 
C 826 -77 1126 333 1331 333 
C 1472 333 1690 102 1958 -77 
C 2419 -371 2963 -442 3795 -442 
C 4442 -442 5626 -403 6080 -371 
C 6093 -224 6170 32 6234 166 
C 5587 96 4608 38 3814 38 
C 3066 38 2502 83 2080 358 
C 1856 499 1709 627 1587 704 
L 1587 3206 
z
" transform="scale(0.015625)"/>
       <path id="NotoSansCJKjp-Regular-754c" d="M 1990 1734 
L 1990 1357 
C 1990 877 1882 256 755 -166 
C 858 -256 1018 -429 1082 -550 
C 2330 -51 2483 730 2483 1344 
L 2483 1734 
L 1990 1734 
z
M 1478 3699 
L 2950 3699 
L 2950 3002 
L 1478 3002 
L 1478 3699 
z
M 3430 3699 
L 4915 3699 
L 4915 3002 
L 3430 3002 
L 3430 3699 
z
M 1478 4762 
L 2950 4762 
L 2950 4077 
L 1478 4077 
L 1478 4762 
z
M 3430 4762 
L 4915 4762 
L 4915 4077 
L 3430 4077 
L 3430 4762 
z
M 4026 1734 
L 4026 -499 
L 4518 -499 
L 4518 1722 
C 4922 1446 5376 1222 5830 1082 
C 5901 1203 6048 1389 6157 1491 
C 5395 1690 4627 2099 4134 2598 
L 5408 2598 
L 5408 5171 
L 1005 5171 
L 1005 2598 
L 2285 2598 
C 1792 2093 1024 1664 288 1453 
C 397 1350 538 1178 608 1050 
C 1453 1350 2342 1926 2874 2598 
L 3578 2598 
C 3821 2278 4141 1984 4499 1734 
L 4026 1734 
z
" transform="scale(0.015625)"/>
      </defs>
      <use xlink:href="#NotoSansCJKjp-Regular-7ea6"/>
      <use xlink:href="#NotoSansCJKjp-Regular-675f" transform="translate(99.999985 0)"/>
      <use xlink:href="#NotoSansCJKjp-Regular-8fb9" transform="translate(199.999969 0)"/>
      <use xlink:href="#NotoSansCJKjp-Regular-754c" transform="translate(299.999954 0)"/>
     </g>
    </g>
   </g>
  </g>
 </g>
 <defs>
  <clipPath id="pd282161d94">
   <rect x="28.95" y="22.96" width="475.05" height="253.1"/>
  </clipPath>
 </defs>
</svg>
