<?xml version="1.0" encoding="utf-8" standalone="no"?>
<!DOCTYPE svg PUBLIC "-//W3C//DTD SVG 1.1//EN"
  "http://www.w3.org/Graphics/SVG/1.1/DTD/svg11.dtd">
<svg xmlns:xlink="http://www.w3.org/1999/xlink" width="554.4pt" height="216pt" viewBox="0 0 554.4 216" xmlns="http://www.w3.org/2000/svg" version="1.1">
 <metadata>
  <rdf:RDF xmlns:dc="http://purl.org/dc/elements/1.1/" xmlns:cc="http://creativecommons.org/ns#" xmlns:rdf="http://www.w3.org/1999/02/22-rdf-syntax-ns#">
   <cc:Work>
    <dc:type rdf:resource="http://purl.org/dc/dcmitype/StillImage"/>
    <dc:format>image/svg+xml</dc:format>
    <dc:creator>
     <cc:Agent>
      <dc:title>D题数值图原生重绘</dc:title>
     </cc:Agent>
    </dc:creator>
   </cc:Work>
  </rdf:RDF>
 </metadata>
 <defs>
  <style type="text/css">*{stroke-linejoin: round; stroke-linecap: butt}</style>
 </defs>
 <g id="figure_1">
  <g id="patch_1">
   <path d="M 0 216 
L 554.4 216 
L 554.4 0 
L 0 0 
z
" style="fill: #ffffff"/>
  </g>
  <g id="axes_1">
   <g id="patch_2">
    <path d="M 72.072 166.32 
L 548.856 166.32 
L 548.856 58.32 
L 72.072 58.32 
z
" style="fill: #ffffff"/>
   </g>
   <g id="matplotlib.axis_1">
    <g id="xtick_1">
     <g id="line2d_1">
      <defs>
       <path id="m769a893297" d="M 0 0 
L 0 3 
" style="stroke: #667582; stroke-width: 0.6"/>
      </defs>
      <g>
       <use xlink:href="#m769a893297" x="124.023915" y="166.32" style="fill: #667582; stroke: #667582; stroke-width: 0.6"/>
      </g>
     </g>
     <g id="text_1">
      <!-- 50 -->
      <g style="fill: #667582" transform="translate(119.306415 179.585469) scale(0.085 -0.085)">
       <defs>
        <path id="NotoSansCJKjp-Regular-35" d="M 1677 -83 
C 2464 -83 3213 499 3213 1523 
C 3213 2560 2573 3021 1798 3021 
C 1517 3021 1306 2950 1094 2835 
L 1216 4192 
L 2982 4192 
L 2982 4691 
L 704 4691 
L 550 2502 
L 864 2304 
C 1133 2483 1331 2579 1645 2579 
C 2234 2579 2618 2182 2618 1510 
C 2618 826 2176 403 1619 403 
C 1075 403 730 653 467 922 
L 173 538 
C 493 224 941 -83 1677 -83 
z
" transform="scale(0.015625)"/>
        <path id="NotoSansCJKjp-Regular-30" d="M 1779 -83 
C 2669 -83 3238 723 3238 2362 
C 3238 3987 2669 4774 1779 4774 
C 883 4774 320 3987 320 2362 
C 320 723 883 -83 1779 -83 
z
M 1779 390 
C 1248 390 883 986 883 2362 
C 883 3731 1248 4314 1779 4314 
C 2310 4314 2675 3731 2675 2362 
C 2675 986 2310 390 1779 390 
z
" transform="scale(0.015625)"/>
       </defs>
       <use xlink:href="#NotoSansCJKjp-Regular-35"/>
       <use xlink:href="#NotoSansCJKjp-Regular-30" transform="translate(55.499985 0)"/>
      </g>
     </g>
    </g>
    <g id="xtick_2">
     <g id="line2d_2">
      <g>
       <use xlink:href="#m769a893297" x="183.61187" y="166.32" style="fill: #667582; stroke: #667582; stroke-width: 0.6"/>
      </g>
     </g>
     <g id="text_2">
      <!-- 60 -->
      <g style="fill: #667582" transform="translate(178.89437 179.585469) scale(0.085 -0.085)">
       <defs>
        <path id="NotoSansCJKjp-Regular-36" d="M 1926 -83 
C 2656 -83 3277 531 3277 1440 
C 3277 2426 2765 2912 1971 2912 
C 1606 2912 1197 2701 909 2349 
C 934 3802 1466 4294 2118 4294 
C 2400 4294 2682 4154 2861 3936 
L 3194 4294 
C 2931 4576 2579 4774 2093 4774 
C 1184 4774 358 4077 358 2240 
C 358 691 1030 -83 1926 -83 
z
M 922 1882 
C 1229 2317 1587 2477 1875 2477 
C 2445 2477 2720 2074 2720 1440 
C 2720 800 2374 378 1926 378 
C 1338 378 986 909 922 1882 
z
" transform="scale(0.015625)"/>
       </defs>
       <use xlink:href="#NotoSansCJKjp-Regular-36"/>
       <use xlink:href="#NotoSansCJKjp-Regular-30" transform="translate(55.499985 0)"/>
      </g>
     </g>
    </g>
    <g id="xtick_3">
     <g id="line2d_3">
      <g>
       <use xlink:href="#m769a893297" x="243.199826" y="166.32" style="fill: #667582; stroke: #667582; stroke-width: 0.6"/>
      </g>
     </g>
     <g id="text_3">
      <!-- 70 -->
      <g style="fill: #667582" transform="translate(238.482326 179.585469) scale(0.085 -0.085)">
       <defs>
        <path id="NotoSansCJKjp-Regular-37" d="M 1267 0 
L 1875 0 
C 1952 1837 2150 2931 3251 4339 
L 3251 4691 
L 314 4691 
L 314 4192 
L 2592 4192 
C 1670 2912 1350 1779 1267 0 
z
" transform="scale(0.015625)"/>
       </defs>
       <use xlink:href="#NotoSansCJKjp-Regular-37"/>
       <use xlink:href="#NotoSansCJKjp-Regular-30" transform="translate(55.499985 0)"/>
      </g>
     </g>
    </g>
    <g id="xtick_4">
     <g id="line2d_4">
      <g>
       <use xlink:href="#m769a893297" x="302.787781" y="166.32" style="fill: #667582; stroke: #667582; stroke-width: 0.6"/>
      </g>
     </g>
     <g id="text_4">
      <!-- 80 -->
      <g style="fill: #667582" transform="translate(298.070281 179.585469) scale(0.085 -0.085)">
       <defs>
        <path id="NotoSansCJKjp-Regular-38" d="M 1792 -83 
C 2669 -83 3258 448 3258 1126 
C 3258 1773 2880 2125 2470 2362 
L 2470 2394 
C 2746 2611 3091 3034 3091 3526 
C 3091 4250 2605 4762 1805 4762 
C 1075 4762 518 4282 518 3571 
C 518 3078 813 2726 1152 2490 
L 1152 2464 
C 723 2234 294 1792 294 1165 
C 294 442 922 -83 1792 -83 
z
M 2112 2547 
C 1555 2765 1050 3014 1050 3571 
C 1050 4026 1363 4326 1798 4326 
C 2298 4326 2592 3962 2592 3494 
C 2592 3149 2426 2829 2112 2547 
z
M 1798 352 
C 1235 352 813 717 813 1216 
C 813 1664 1082 2035 1459 2278 
C 2125 2010 2701 1779 2701 1146 
C 2701 678 2342 352 1798 352 
z
" transform="scale(0.015625)"/>
       </defs>
       <use xlink:href="#NotoSansCJKjp-Regular-38"/>
       <use xlink:href="#NotoSansCJKjp-Regular-30" transform="translate(55.499985 0)"/>
      </g>
     </g>
    </g>
    <g id="xtick_5">
     <g id="line2d_5">
      <g>
       <use xlink:href="#m769a893297" x="362.375737" y="166.32" style="fill: #667582; stroke: #667582; stroke-width: 0.6"/>
      </g>
     </g>
     <g id="text_5">
      <!-- 90 -->
      <g style="fill: #667582" transform="translate(357.658237 179.585469) scale(0.085 -0.085)">
       <defs>
        <path id="NotoSansCJKjp-Regular-39" d="M 1504 -83 
C 2381 -83 3206 646 3206 2547 
C 3206 4038 2528 4774 1626 4774 
C 896 4774 282 4166 282 3251 
C 282 2285 794 1779 1574 1779 
C 1965 1779 2368 2003 2656 2349 
C 2611 896 2086 403 1485 403 
C 1178 403 896 538 691 762 
L 371 397 
C 634 122 992 -83 1504 -83 
z
M 2650 2842 
C 2336 2394 1984 2214 1670 2214 
C 1114 2214 832 2624 832 3251 
C 832 3898 1178 4320 1632 4320 
C 2227 4320 2586 3808 2650 2842 
z
" transform="scale(0.015625)"/>
       </defs>
       <use xlink:href="#NotoSansCJKjp-Regular-39"/>
       <use xlink:href="#NotoSansCJKjp-Regular-30" transform="translate(55.499985 0)"/>
      </g>
     </g>
    </g>
    <g id="xtick_6">
     <g id="line2d_6">
      <g>
       <use xlink:href="#m769a893297" x="421.963693" y="166.32" style="fill: #667582; stroke: #667582; stroke-width: 0.6"/>
      </g>
     </g>
     <g id="text_6">
      <!-- 100 -->
      <g style="fill: #667582" transform="translate(414.887443 179.585469) scale(0.085 -0.085)">
       <defs>
        <path id="NotoSansCJKjp-Regular-31" d="M 563 0 
L 3136 0 
L 3136 486 
L 2195 486 
L 2195 4691 
L 1747 4691 
C 1491 4544 1190 4435 774 4358 
L 774 3987 
L 1613 3987 
L 1613 486 
L 563 486 
L 563 0 
z
" transform="scale(0.015625)"/>
       </defs>
       <use xlink:href="#NotoSansCJKjp-Regular-31"/>
       <use xlink:href="#NotoSansCJKjp-Regular-30" transform="translate(55.499985 0)"/>
       <use xlink:href="#NotoSansCJKjp-Regular-30" transform="translate(110.999969 0)"/>
      </g>
     </g>
    </g>
    <g id="xtick_7">
     <g id="line2d_7">
      <g>
       <use xlink:href="#m769a893297" x="481.551648" y="166.32" style="fill: #667582; stroke: #667582; stroke-width: 0.6"/>
      </g>
     </g>
     <g id="text_7">
      <!-- 110 -->
      <g style="fill: #667582" transform="translate(474.475398 179.585469) scale(0.085 -0.085)">
       <use xlink:href="#NotoSansCJKjp-Regular-31"/>
       <use xlink:href="#NotoSansCJKjp-Regular-31" transform="translate(55.499985 0)"/>
       <use xlink:href="#NotoSansCJKjp-Regular-30" transform="translate(110.999969 0)"/>
      </g>
     </g>
    </g>
    <g id="xtick_8">
     <g id="line2d_8">
      <g>
       <use xlink:href="#m769a893297" x="541.139604" y="166.32" style="fill: #667582; stroke: #667582; stroke-width: 0.6"/>
      </g>
     </g>
     <g id="text_8">
      <!-- 120 -->
      <g style="fill: #667582" transform="translate(534.063354 179.585469) scale(0.085 -0.085)">
       <defs>
        <path id="NotoSansCJKjp-Regular-32" d="M 282 0 
L 3232 0 
L 3232 506 
L 1933 506 
C 1696 506 1408 480 1165 461 
C 2266 1504 3008 2458 3008 3398 
C 3008 4230 2477 4774 1638 4774 
C 1043 4774 634 4506 256 4090 
L 595 3757 
C 858 4070 1184 4301 1568 4301 
C 2150 4301 2432 3910 2432 3373 
C 2432 2566 1754 1632 282 346 
L 282 0 
z
" transform="scale(0.015625)"/>
       </defs>
       <use xlink:href="#NotoSansCJKjp-Regular-31"/>
       <use xlink:href="#NotoSansCJKjp-Regular-32" transform="translate(55.499985 0)"/>
       <use xlink:href="#NotoSansCJKjp-Regular-30" transform="translate(110.999969 0)"/>
      </g>
     </g>
    </g>
    <g id="text_9">
     <!-- 任务相对时刻（min） -->
     <g style="fill: #253342" transform="translate(261.409312 193.491875) scale(0.1 -0.1)">
      <defs>
       <path id="NotoSansCJKjp-Regular-4efb" d="M 2195 198 
L 2195 -262 
L 6042 -262 
L 6042 198 
L 4333 198 
L 4333 2176 
L 6144 2176 
L 6144 2637 
L 4333 2637 
L 4333 4422 
C 4909 4531 5453 4666 5888 4813 
L 5530 5216 
C 4742 4928 3347 4678 2157 4518 
C 2208 4410 2278 4230 2298 4115 
C 2797 4173 3328 4243 3846 4333 
L 3846 2637 
L 1946 2637 
L 1946 2176 
L 3846 2176 
L 3846 198 
L 2195 198 
z
M 1888 5376 
C 1485 4371 832 3386 141 2758 
C 230 2643 384 2394 435 2278 
C 691 2528 947 2822 1190 3149 
L 1190 -512 
L 1664 -512 
L 1664 3859 
C 1926 4294 2163 4762 2349 5229 
L 1888 5376 
z
" transform="scale(0.015625)"/>
       <path id="NotoSansCJKjp-Regular-52a1" d="M 2854 2438 
C 2829 2208 2784 1997 2733 1805 
L 806 1805 
L 806 1382 
L 2586 1382 
C 2214 557 1504 128 365 -90 
C 448 -186 582 -397 627 -499 
C 1894 -198 2688 339 3098 1382 
L 5043 1382 
C 4934 538 4806 147 4659 26 
C 4589 -32 4512 -38 4378 -38 
C 4224 -38 3808 -32 3405 6 
C 3488 -115 3546 -294 3558 -422 
C 3942 -442 4320 -448 4518 -442 
C 4749 -429 4896 -390 5037 -262 
C 5261 -64 5402 422 5542 1587 
C 5555 1658 5568 1805 5568 1805 
L 3232 1805 
C 3283 1990 3322 2189 3354 2400 
L 2854 2438 
z
M 4768 4307 
C 4390 3923 3866 3616 3258 3373 
C 2752 3590 2349 3866 2074 4218 
L 2163 4307 
L 4768 4307 
z
M 2445 5382 
C 2112 4826 1478 4166 576 3706 
C 678 3629 813 3456 877 3347 
C 1203 3526 1498 3731 1760 3942 
C 2016 3642 2336 3386 2714 3181 
C 1952 2938 1107 2784 294 2707 
C 371 2598 454 2406 486 2285 
C 1421 2400 2387 2598 3251 2925 
C 3994 2624 4890 2445 5882 2362 
C 5939 2496 6048 2688 6150 2797 
C 5293 2842 4493 2963 3821 3168 
C 4531 3514 5133 3962 5517 4544 
L 5229 4742 
L 5146 4717 
L 2541 4717 
C 2694 4902 2829 5094 2944 5286 
L 2445 5382 
z
" transform="scale(0.015625)"/>
       <path id="NotoSansCJKjp-Regular-76f8" d="M 3494 3034 
L 5440 3034 
L 5440 1920 
L 3494 1920 
L 3494 3034 
z
M 3494 3469 
L 3494 4544 
L 5440 4544 
L 5440 3469 
L 3494 3469 
z
M 3494 1478 
L 5440 1478 
L 5440 365 
L 3494 365 
L 3494 1478 
z
M 3027 4998 
L 3027 -467 
L 3494 -467 
L 3494 -77 
L 5440 -77 
L 5440 -448 
L 5926 -448 
L 5926 4998 
L 3027 4998 
z
M 1370 5376 
L 1370 4006 
L 333 4006 
L 333 3546 
L 1312 3546 
C 1088 2662 634 1651 186 1120 
C 262 1005 384 813 435 685 
C 781 1126 1120 1837 1370 2573 
L 1370 -506 
L 1837 -506 
L 1837 2419 
C 2080 2106 2368 1709 2490 1498 
L 2784 1888 
C 2643 2061 2061 2746 1837 2970 
L 1837 3546 
L 2752 3546 
L 2752 4006 
L 1837 4006 
L 1837 5376 
L 1370 5376 
z
" transform="scale(0.015625)"/>
       <path id="NotoSansCJKjp-Regular-5bf9" d="M 3213 2522 
C 3514 2067 3802 1459 3904 1075 
L 4326 1286 
C 4224 1670 3917 2259 3603 2701 
L 3213 2522 
z
M 582 2899 
C 973 2547 1389 2131 1760 1709 
C 1376 890 870 269 288 -109 
C 403 -205 550 -384 627 -499 
C 1216 -77 1715 512 2106 1299 
C 2394 941 2630 602 2784 314 
L 3168 666 
C 2982 998 2682 1395 2330 1798 
C 2624 2534 2835 3411 2944 4448 
L 2630 4538 
L 2547 4518 
L 448 4518 
L 448 4064 
L 2419 4064 
C 2323 3373 2170 2752 1965 2202 
C 1626 2554 1267 2899 922 3200 
L 582 2899 
z
M 4896 5376 
L 4896 3834 
L 3085 3834 
L 3085 3373 
L 4896 3373 
L 4896 141 
C 4896 26 4851 -6 4742 -13 
C 4634 -13 4275 -19 3872 0 
C 3936 -147 4006 -371 4032 -506 
C 4576 -506 4902 -493 5094 -410 
C 5293 -326 5370 -179 5370 141 
L 5370 3373 
L 6138 3373 
L 6138 3834 
L 5370 3834 
L 5370 5376 
L 4896 5376 
z
" transform="scale(0.015625)"/>
       <path id="NotoSansCJKjp-Regular-65f6" d="M 3034 2893 
C 3373 2400 3808 1722 4013 1331 
L 4435 1574 
C 4218 1965 3776 2618 3430 3104 
L 3034 2893 
z
M 2074 2573 
L 2074 1114 
L 979 1114 
L 979 2573 
L 2074 2573 
z
M 2074 3002 
L 979 3002 
L 979 4403 
L 2074 4403 
L 2074 3002 
z
M 518 4838 
L 518 160 
L 979 160 
L 979 678 
L 2522 678 
L 2522 4838 
L 518 4838 
z
M 4890 5344 
L 4890 4096 
L 2816 4096 
L 2816 3622 
L 4890 3622 
L 4890 211 
C 4890 83 4838 38 4710 38 
C 4570 26 4096 26 3597 45 
C 3667 -96 3744 -314 3776 -448 
C 4416 -448 4826 -442 5056 -358 
C 5286 -282 5376 -141 5376 211 
L 5376 3622 
L 6157 3622 
L 6157 4096 
L 5376 4096 
L 5376 5344 
L 4890 5344 
z
" transform="scale(0.015625)"/>
       <path id="NotoSansCJKjp-Regular-523b" d="M 3968 4666 
L 3968 1094 
L 4429 1094 
L 4429 4666 
L 3968 4666 
z
M 5382 5248 
L 5382 102 
C 5382 -13 5344 -45 5229 -45 
C 5120 -51 4762 -58 4365 -38 
C 4429 -179 4499 -390 4525 -518 
C 5062 -525 5389 -512 5581 -429 
C 5773 -352 5850 -205 5850 102 
L 5850 5248 
L 5382 5248 
z
M 2701 3616 
C 2470 3213 2150 2816 1786 2451 
C 1632 2605 1421 2778 1203 2944 
C 1504 3270 1843 3706 2125 4096 
L 2099 4109 
L 3661 4109 
L 3661 4544 
L 2240 4544 
L 2240 5338 
L 1773 5338 
L 1773 4544 
L 333 4544 
L 333 4109 
L 1555 4109 
C 1370 3808 1114 3456 877 3174 
L 595 3366 
L 320 3046 
C 704 2790 1165 2432 1446 2144 
C 1088 1837 698 1568 301 1363 
C 416 1274 550 1126 627 1018 
C 1606 1568 2547 2470 3123 3450 
L 2701 3616 
z
M 3174 2406 
C 2554 1350 1414 397 198 -134 
C 314 -237 454 -397 525 -512 
C 1139 -218 1734 173 2259 627 
C 2662 275 3117 -160 3347 -448 
L 3718 -109 
C 3475 173 3002 602 2598 947 
C 2989 1338 3328 1766 3597 2221 
L 3174 2406 
z
" transform="scale(0.015625)"/>
       <path id="NotoSansCJKjp-Regular-ff08" d="M 4448 2432 
C 4448 1184 4954 166 5722 -614 
L 6106 -416 
C 5370 346 4915 1293 4915 2432 
C 4915 3571 5370 4518 6106 5280 
L 5722 5478 
C 4954 4698 4448 3680 4448 2432 
z
" transform="scale(0.015625)"/>
       <path id="NotoSansCJKjp-Regular-6d" d="M 589 0 
L 1178 0 
L 1178 2522 
C 1491 2880 1786 3053 2048 3053 
C 2490 3053 2694 2778 2694 2125 
L 2694 0 
L 3277 0 
L 3277 2522 
C 3603 2880 3885 3053 4154 3053 
C 4595 3053 4800 2778 4800 2125 
L 4800 0 
L 5382 0 
L 5382 2202 
C 5382 3085 5043 3565 4333 3565 
C 3904 3565 3546 3290 3181 2899 
C 3040 3309 2758 3565 2221 3565 
C 1805 3565 1446 3302 1139 2970 
L 1126 2970 
L 1069 3475 
L 589 3475 
L 589 0 
z
" transform="scale(0.015625)"/>
       <path id="NotoSansCJKjp-Regular-69" d="M 589 0 
L 1178 0 
L 1178 3475 
L 589 3475 
L 589 0 
z
M 883 4192 
C 1114 4192 1274 4346 1274 4582 
C 1274 4806 1114 4960 883 4960 
C 653 4960 499 4806 499 4582 
C 499 4346 653 4192 883 4192 
z
" transform="scale(0.015625)"/>
       <path id="NotoSansCJKjp-Regular-6e" d="M 589 0 
L 1178 0 
L 1178 2522 
C 1523 2874 1766 3053 2125 3053 
C 2586 3053 2784 2778 2784 2125 
L 2784 0 
L 3366 0 
L 3366 2202 
C 3366 3085 3034 3565 2304 3565 
C 1830 3565 1466 3302 1139 2970 
L 1126 2970 
L 1069 3475 
L 589 3475 
L 589 0 
z
" transform="scale(0.015625)"/>
       <path id="NotoSansCJKjp-Regular-ff09" d="M 1952 2432 
C 1952 3680 1446 4698 678 5478 
L 294 5280 
C 1030 4518 1485 3571 1485 2432 
C 1485 1293 1030 346 294 -416 
L 678 -614 
C 1446 166 1952 1184 1952 2432 
z
" transform="scale(0.015625)"/>
      </defs>
      <use xlink:href="#NotoSansCJKjp-Regular-4efb"/>
      <use xlink:href="#NotoSansCJKjp-Regular-52a1" transform="translate(99.999985 0)"/>
      <use xlink:href="#NotoSansCJKjp-Regular-76f8" transform="translate(199.999969 0)"/>
      <use xlink:href="#NotoSansCJKjp-Regular-5bf9" transform="translate(299.999954 0)"/>
      <use xlink:href="#NotoSansCJKjp-Regular-65f6" transform="translate(399.999939 0)"/>
      <use xlink:href="#NotoSansCJKjp-Regular-523b" transform="translate(499.999924 0)"/>
      <use xlink:href="#NotoSansCJKjp-Regular-ff08" transform="translate(599.999908 0)"/>
      <use xlink:href="#NotoSansCJKjp-Regular-6d" transform="translate(699.999893 0)"/>
      <use xlink:href="#NotoSansCJKjp-Regular-69" transform="translate(792.599884 0)"/>
      <use xlink:href="#NotoSansCJKjp-Regular-6e" transform="translate(820.099869 0)"/>
      <use xlink:href="#NotoSansCJKjp-Regular-ff09" transform="translate(881.099854 0)"/>
     </g>
    </g>
   </g>
   <g id="matplotlib.axis_2">
    <g id="ytick_1">
     <g id="line2d_9">
      <path d="M 72.072 164.786063 
L 548.856 164.786063 
" clip-path="url(#p0b9d1aef66)" style="fill: none; stroke: #e6eaed; stroke-width: 0.55; stroke-linecap: square"/>
     </g>
     <g id="line2d_10">
      <defs>
       <path id="m06ea2e67d2" d="M 0 0 
L -3 0 
" style="stroke: #667582; stroke-width: 0.6"/>
      </defs>
      <g>
       <use xlink:href="#m06ea2e67d2" x="72.072" y="164.786063" style="fill: #667582; stroke: #667582; stroke-width: 0.6"/>
      </g>
     </g>
     <g id="text_10">
      <!-- 100 -->
      <g style="fill: #667582" transform="translate(51.4195 168.168798) scale(0.085 -0.085)">
       <use xlink:href="#NotoSansCJKjp-Regular-31"/>
       <use xlink:href="#NotoSansCJKjp-Regular-30" transform="translate(55.499985 0)"/>
       <use xlink:href="#NotoSansCJKjp-Regular-30" transform="translate(110.999969 0)"/>
      </g>
     </g>
    </g>
    <g id="ytick_2">
     <g id="line2d_11">
      <path d="M 72.072 132.592287 
L 548.856 132.592287 
" clip-path="url(#p0b9d1aef66)" style="fill: none; stroke: #e6eaed; stroke-width: 0.55; stroke-linecap: square"/>
     </g>
     <g id="line2d_12">
      <g>
       <use xlink:href="#m06ea2e67d2" x="72.072" y="132.592287" style="fill: #667582; stroke: #667582; stroke-width: 0.6"/>
      </g>
     </g>
     <g id="text_11">
      <!-- 200 -->
      <g style="fill: #667582" transform="translate(51.4195 135.975021) scale(0.085 -0.085)">
       <use xlink:href="#NotoSansCJKjp-Regular-32"/>
       <use xlink:href="#NotoSansCJKjp-Regular-30" transform="translate(55.499985 0)"/>
       <use xlink:href="#NotoSansCJKjp-Regular-30" transform="translate(110.999969 0)"/>
      </g>
     </g>
    </g>
    <g id="ytick_3">
     <g id="line2d_13">
      <path d="M 72.072 100.39851 
L 548.856 100.39851 
" clip-path="url(#p0b9d1aef66)" style="fill: none; stroke: #e6eaed; stroke-width: 0.55; stroke-linecap: square"/>
     </g>
     <g id="line2d_14">
      <g>
       <use xlink:href="#m06ea2e67d2" x="72.072" y="100.39851" style="fill: #667582; stroke: #667582; stroke-width: 0.6"/>
      </g>
     </g>
     <g id="text_12">
      <!-- 300 -->
      <g style="fill: #667582" transform="translate(51.4195 103.781245) scale(0.085 -0.085)">
       <defs>
        <path id="NotoSansCJKjp-Regular-33" d="M 1683 -83 
C 2522 -83 3194 416 3194 1254 
C 3194 1901 2752 2310 2202 2445 
L 2202 2477 
C 2701 2650 3034 3034 3034 3603 
C 3034 4346 2458 4774 1664 4774 
C 1126 4774 710 4538 358 4218 
L 672 3846 
C 941 4115 1267 4301 1645 4301 
C 2138 4301 2438 4006 2438 3558 
C 2438 3053 2112 2662 1139 2662 
L 1139 2214 
C 2227 2214 2598 1843 2598 1274 
C 2598 736 2208 403 1645 403 
C 1114 403 762 659 486 941 
L 186 563 
C 493 224 954 -83 1683 -83 
z
" transform="scale(0.015625)"/>
       </defs>
       <use xlink:href="#NotoSansCJKjp-Regular-33"/>
       <use xlink:href="#NotoSansCJKjp-Regular-30" transform="translate(55.499985 0)"/>
       <use xlink:href="#NotoSansCJKjp-Regular-30" transform="translate(110.999969 0)"/>
      </g>
     </g>
    </g>
    <g id="ytick_4">
     <g id="line2d_15">
      <path d="M 72.072 68.204734 
L 548.856 68.204734 
" clip-path="url(#p0b9d1aef66)" style="fill: none; stroke: #e6eaed; stroke-width: 0.55; stroke-linecap: square"/>
     </g>
     <g id="line2d_16">
      <g>
       <use xlink:href="#m06ea2e67d2" x="72.072" y="68.204734" style="fill: #667582; stroke: #667582; stroke-width: 0.6"/>
      </g>
     </g>
     <g id="text_13">
      <!-- 400 -->
      <g style="fill: #667582" transform="translate(51.4195 71.587468) scale(0.085 -0.085)">
       <defs>
        <path id="NotoSansCJKjp-Regular-34" d="M 2176 0 
L 2726 0 
L 2726 1293 
L 3354 1293 
L 3354 1760 
L 2726 1760 
L 2726 4691 
L 2080 4691 
L 128 1677 
L 128 1293 
L 2176 1293 
L 2176 0 
z
M 2176 1760 
L 736 1760 
L 1805 3360 
C 1939 3590 2067 3827 2182 4051 
L 2208 4051 
C 2195 3814 2176 3430 2176 3200 
L 2176 1760 
z
" transform="scale(0.015625)"/>
       </defs>
       <use xlink:href="#NotoSansCJKjp-Regular-34"/>
       <use xlink:href="#NotoSansCJKjp-Regular-30" transform="translate(55.499985 0)"/>
       <use xlink:href="#NotoSansCJKjp-Regular-30" transform="translate(110.999969 0)"/>
      </g>
     </g>
    </g>
    <g id="text_14">
     <!-- 海拔（m） -->
     <g style="fill: #253342" transform="translate(45.128875 136.949687) rotate(-90) scale(0.1 -0.1)">
      <defs>
       <path id="NotoSansCJKjp-Regular-6d77" d="M 563 4966 
C 947 4774 1402 4461 1626 4230 
L 1914 4614 
C 1690 4845 1216 5126 838 5312 
L 563 4966 
z
M 250 3251 
C 640 3078 1107 2790 1331 2573 
L 1613 2957 
C 1376 3174 909 3443 518 3603 
L 250 3251 
z
M 403 -154 
L 826 -429 
C 1139 166 1510 973 1779 1658 
L 1402 1926 
C 1101 1190 691 346 403 -154 
z
M 2835 5382 
C 2611 4627 2234 3878 1766 3405 
C 1882 3341 2093 3206 2182 3123 
C 2419 3398 2650 3750 2848 4141 
L 6099 4141 
L 6099 4576 
L 3053 4576 
C 3149 4800 3238 5037 3309 5274 
L 2835 5382 
z
M 2643 3558 
C 2605 3162 2547 2701 2483 2240 
L 1824 2240 
L 1824 1798 
L 2419 1798 
C 2330 1178 2234 582 2144 147 
L 2605 102 
L 2656 397 
L 5043 397 
C 4998 173 4954 45 4896 -13 
C 4832 -96 4768 -109 4653 -109 
C 4525 -109 4237 -109 3904 -77 
C 3974 -192 4019 -365 4026 -486 
C 4346 -506 4659 -512 4845 -493 
C 5037 -474 5171 -429 5293 -269 
C 5382 -160 5446 38 5504 397 
L 6176 397 
L 6176 819 
L 5555 819 
C 5587 1082 5613 1408 5632 1798 
L 6221 1798 
L 6221 2240 
L 5658 2240 
L 5709 3334 
C 5709 3398 5715 3558 5715 3558 
L 2643 3558 
z
M 3046 3142 
L 3898 3142 
L 3821 2240 
L 2931 2240 
L 3046 3142 
z
M 4320 3142 
L 5254 3142 
L 5216 2240 
L 4237 2240 
L 4320 3142 
z
M 2867 1798 
L 3776 1798 
L 3661 819 
L 2726 819 
L 2867 1798 
z
M 4192 1798 
L 5190 1798 
C 5165 1395 5139 1075 5107 819 
L 4077 819 
L 4192 1798 
z
" transform="scale(0.015625)"/>
       <path id="NotoSansCJKjp-Regular-62d4" d="M 4435 5018 
C 4838 4781 5350 4416 5600 4179 
L 5882 4518 
C 5626 4749 5101 5088 4704 5318 
L 4435 5018 
z
M 3341 5376 
C 3341 4941 3341 4474 3322 3994 
L 2432 3994 
L 2432 3558 
L 3296 3558 
C 3200 2112 2886 640 1843 -224 
C 1965 -294 2125 -429 2208 -531 
C 3027 173 3424 1235 3616 2374 
C 3795 1805 4026 1293 4320 851 
C 4013 416 3616 70 3110 -192 
C 3213 -275 3398 -442 3469 -525 
C 3923 -256 4294 70 4602 474 
C 4960 45 5395 -288 5920 -518 
C 5990 -403 6125 -230 6227 -141 
C 5677 64 5222 410 4858 851 
C 5210 1434 5446 2144 5594 2995 
L 5133 3053 
C 5018 2355 4838 1760 4570 1254 
C 4179 1862 3917 2611 3744 3437 
L 3757 3558 
L 6074 3558 
L 6074 3994 
L 3776 3994 
C 3802 4467 3808 4934 3808 5376 
L 3341 5376 
z
M 1158 5376 
L 1158 4090 
L 269 4090 
L 269 3635 
L 1158 3635 
L 1158 2240 
L 179 1971 
L 314 1504 
L 1158 1766 
L 1158 45 
C 1158 -51 1120 -77 1037 -77 
C 954 -83 691 -83 397 -77 
C 461 -205 525 -397 544 -512 
C 966 -512 1229 -499 1395 -429 
C 1562 -352 1619 -224 1619 45 
L 1619 1907 
L 2406 2157 
L 2342 2586 
L 1619 2374 
L 1619 3635 
L 2336 3635 
L 2336 4090 
L 1619 4090 
L 1619 5376 
L 1158 5376 
z
" transform="scale(0.015625)"/>
      </defs>
      <use xlink:href="#NotoSansCJKjp-Regular-6d77"/>
      <use xlink:href="#NotoSansCJKjp-Regular-62d4" transform="translate(99.999985 0)"/>
      <use xlink:href="#NotoSansCJKjp-Regular-ff08" transform="translate(199.999969 0)"/>
      <use xlink:href="#NotoSansCJKjp-Regular-6d" transform="translate(299.999954 0)"/>
      <use xlink:href="#NotoSansCJKjp-Regular-ff09" transform="translate(392.599945 0)"/>
     </g>
    </g>
   </g>
   <g id="line2d_17">
    <path d="M 119.742364 155.868387 
L 130.489615 68.771613 
" clip-path="url(#p0b9d1aef66)" style="fill: none; stroke: #466c96; stroke-width: 2; stroke-linecap: square"/>
   </g>
   <g id="line2d_18">
    <path d="M 130.489615 68.771613 
L 181.567725 68.771613 
" clip-path="url(#p0b9d1aef66)" style="fill: none; stroke: #509c9c; stroke-width: 2; stroke-linecap: square"/>
   </g>
   <g id="line2d_19">
    <path d="M 181.567725 68.771613 
L 190.006331 123.481448 
" clip-path="url(#p0b9d1aef66)" style="fill: none; stroke: #d5a25a; stroke-width: 2; stroke-linecap: square"/>
   </g>
   <g id="line2d_20">
    <path d="M 190.006331 123.481448 
L 229.334382 123.481448 
" clip-path="url(#p0b9d1aef66)" style="fill: none; stroke: #877caa; stroke-width: 2; stroke-linecap: square"/>
   </g>
   <g id="line2d_21">
    <path d="M 229.334382 123.481448 
L 236.085267 68.771613 
" clip-path="url(#p0b9d1aef66)" style="fill: none; stroke: #466c96; stroke-width: 2; stroke-linecap: square"/>
   </g>
   <g id="line2d_22">
    <path d="M 236.085267 68.771613 
L 287.163377 68.771613 
" clip-path="url(#p0b9d1aef66)" style="fill: none; stroke: #509c9c; stroke-width: 2; stroke-linecap: square"/>
   </g>
   <g id="line2d_23">
    <path d="M 287.163377 68.771613 
L 300.59744 155.868387 
" clip-path="url(#p0b9d1aef66)" style="fill: none; stroke: #d5a25a; stroke-width: 2; stroke-linecap: square"/>
   </g>
   <g id="line2d_24">
    <path d="M 300.59744 166.32 
L 300.59744 58.32 
" clip-path="url(#p0b9d1aef66)" style="fill: none; stroke-dasharray: 0.7,1.155; stroke-dashoffset: 0; stroke: #667582; stroke-width: 0.7"/>
   </g>
   <g id="patch_3">
    <path d="M 72.072 166.32 
L 72.072 58.32 
" style="fill: none; stroke: #86919a; stroke-width: 0.65; stroke-linejoin: miter; stroke-linecap: square"/>
   </g>
   <g id="patch_4">
    <path d="M 72.072 166.32 
L 548.856 166.32 
" style="fill: none; stroke: #86919a; stroke-width: 0.65; stroke-linejoin: miter; stroke-linecap: square"/>
   </g>
   <g id="text_15">
    <!-- Q3-T-016：与能源、通信对齐的飞行剖面 -->
    <g style="fill: #253342" transform="translate(72.072 29.32) scale(0.115 -0.115)">
     <defs>
      <path id="NotoSansCJKjp-Regular-51" d="M 2374 410 
C 1530 410 979 1165 979 2362 
C 979 3533 1530 4256 2374 4256 
C 3219 4256 3770 3533 3770 2362 
C 3770 1165 3219 410 2374 410 
z
M 3808 -1178 
C 4090 -1178 4339 -1133 4480 -1069 
L 4365 -614 
C 4243 -653 4083 -685 3872 -685 
C 3366 -685 2931 -474 2720 -58 
C 3712 115 4378 1011 4378 2362 
C 4378 3866 3552 4774 2374 4774 
C 1197 4774 371 3866 371 2362 
C 371 986 1062 77 2086 -64 
C 2349 -704 2944 -1178 3808 -1178 
z
" transform="scale(0.015625)"/>
      <path id="NotoSansCJKjp-Regular-2d" d="M 294 1568 
L 1933 1568 
L 1933 2016 
L 294 2016 
L 294 1568 
z
" transform="scale(0.015625)"/>
      <path id="NotoSansCJKjp-Regular-54" d="M 1619 0 
L 2214 0 
L 2214 4192 
L 3635 4192 
L 3635 4691 
L 198 4691 
L 198 4192 
L 1619 4192 
L 1619 0 
z
" transform="scale(0.015625)"/>
      <path id="NotoSansCJKjp-Regular-ff1a" d="M 3200 3482 
C 3456 3482 3686 3667 3686 3962 
C 3686 4256 3456 4442 3200 4442 
C 2944 4442 2714 4256 2714 3962 
C 2714 3667 2944 3482 3200 3482 
z
M 3200 346 
C 3456 346 3686 538 3686 826 
C 3686 1120 3456 1312 3200 1312 
C 2944 1312 2714 1120 2714 826 
C 2714 538 2944 346 3200 346 
z
" transform="scale(0.015625)"/>
      <path id="NotoSansCJKjp-Regular-4e0e" d="M 1939 5389 
C 1773 4429 1485 3098 1267 2317 
L 1760 2272 
L 1843 2605 
L 4525 2605 
C 4486 2246 4454 1939 4416 1664 
L 346 1664 
L 346 1210 
L 4346 1210 
C 4230 518 4102 160 3949 26 
C 3866 -45 3776 -51 3616 -51 
C 3437 -51 2957 -51 2470 0 
C 2560 -134 2624 -339 2637 -480 
C 3098 -512 3558 -518 3789 -506 
C 4045 -486 4198 -442 4365 -282 
C 4570 -83 4710 346 4845 1210 
L 6074 1210 
L 6074 1664 
L 4902 1664 
C 4947 1997 4986 2374 5030 2816 
C 5037 2886 5050 3053 5050 3053 
L 1952 3053 
L 2163 4000 
L 5402 4000 
L 5402 4461 
L 2259 4461 
L 2432 5338 
L 1939 5389 
z
" transform="scale(0.015625)"/>
      <path id="NotoSansCJKjp-Regular-80fd" d="M 2131 4774 
C 2278 4576 2432 4339 2560 4109 
L 1248 4058 
C 1446 4422 1651 4864 1824 5261 
L 1331 5382 
C 1197 4979 966 4442 742 4038 
L 256 4019 
L 294 3552 
C 960 3590 1882 3635 2784 3693 
C 2854 3552 2912 3424 2950 3309 
L 3366 3494 
C 3226 3891 2867 4486 2528 4928 
L 2131 4774 
z
M 2451 2688 
L 2451 2138 
L 1088 2138 
L 1088 2688 
L 2451 2688 
z
M 640 3098 
L 640 -506 
L 1088 -506 
L 1088 800 
L 2451 800 
L 2451 51 
C 2451 -32 2432 -58 2349 -58 
C 2253 -64 1984 -64 1683 -51 
C 1747 -179 1818 -365 1843 -493 
C 2246 -493 2522 -486 2701 -416 
C 2874 -339 2925 -205 2925 45 
L 2925 3098 
L 640 3098 
z
M 1088 1760 
L 2451 1760 
L 2451 1178 
L 1088 1178 
L 1088 1760 
z
M 5491 4896 
C 5126 4704 4550 4474 4006 4288 
L 4006 5363 
L 3526 5363 
L 3526 3238 
C 3526 2707 3686 2566 4307 2566 
C 4429 2566 5267 2566 5408 2566 
C 5920 2566 6061 2771 6118 3558 
C 5984 3590 5786 3661 5683 3744 
C 5658 3110 5613 3002 5363 3002 
C 5184 3002 4480 3002 4352 3002 
C 4058 3002 4006 3040 4006 3245 
L 4006 3904 
C 4621 4083 5306 4307 5811 4538 
L 5491 4896 
z
M 5568 2042 
C 5197 1805 4582 1555 4000 1363 
L 4000 2387 
L 3526 2387 
L 3526 224 
C 3526 -314 3693 -454 4320 -454 
C 4454 -454 5318 -454 5459 -454 
C 5997 -454 6138 -224 6195 634 
C 6061 666 5875 742 5760 819 
C 5734 96 5690 -26 5421 -26 
C 5229 -26 4506 -26 4365 -26 
C 4058 -26 4000 13 4000 224 
L 4000 966 
C 4646 1146 5382 1395 5882 1683 
L 5568 2042 
z
" transform="scale(0.015625)"/>
      <path id="NotoSansCJKjp-Regular-6e90" d="M 3437 2650 
L 5395 2650 
L 5395 2080 
L 3437 2080 
L 3437 2650 
z
M 3437 3558 
L 5395 3558 
L 5395 3002 
L 3437 3002 
L 3437 3558 
z
M 3232 1357 
C 3053 896 2771 429 2451 109 
C 2560 51 2746 -77 2835 -147 
C 3142 198 3462 730 3661 1248 
L 3232 1357 
z
M 5043 1242 
C 5344 832 5658 282 5773 -64 
L 6214 134 
C 6080 486 5754 1018 5453 1408 
L 5043 1242 
z
M 557 4973 
C 941 4781 1395 4467 1619 4237 
L 1907 4621 
C 1683 4851 1216 5133 832 5312 
L 557 4973 
z
M 243 3245 
C 634 3072 1094 2784 1318 2566 
L 1600 2950 
C 1370 3162 896 3437 512 3597 
L 243 3245 
z
M 378 -154 
L 806 -422 
C 1114 179 1472 973 1734 1651 
L 1350 1920 
C 1062 1190 659 346 378 -154 
z
M 3002 3930 
L 3002 1709 
L 4154 1709 
L 4154 0 
C 4154 -70 4128 -96 4051 -102 
C 3968 -102 3686 -102 3386 -96 
C 3443 -218 3501 -390 3520 -506 
C 3942 -512 4224 -512 4397 -442 
C 4570 -371 4614 -250 4614 -13 
L 4614 1709 
L 5843 1709 
L 5843 3930 
L 4499 3930 
L 4704 4621 
L 4672 4627 
L 6086 4627 
L 6086 5062 
L 2163 5062 
L 2163 3309 
C 2163 2253 2093 800 1370 -230 
C 1478 -282 1683 -403 1766 -486 
C 2528 589 2630 2189 2630 3309 
L 2630 4627 
L 4166 4627 
C 4141 4416 4083 4147 4032 3930 
L 3002 3930 
z
" transform="scale(0.015625)"/>
      <path id="NotoSansCJKjp-Regular-3001" d="M 1747 -358 
L 2182 13 
C 1786 480 1210 1062 749 1434 
L 333 1069 
C 787 698 1338 147 1747 -358 
z
" transform="scale(0.015625)"/>
      <path id="NotoSansCJKjp-Regular-901a" d="M 371 4934 
C 781 4634 1242 4179 1440 3859 
L 1805 4192 
C 1594 4512 1120 4947 710 5229 
L 371 4934 
z
M 1658 2848 
L 269 2848 
L 269 2400 
L 1197 2400 
L 1197 742 
C 870 474 493 211 186 13 
L 422 -461 
C 787 -179 1126 96 1453 378 
C 1856 -134 2432 -358 3270 -390 
C 3994 -416 5357 -403 6067 -378 
C 6093 -230 6170 -13 6227 96 
C 5453 45 3974 26 3270 58 
C 2522 90 1965 301 1658 781 
L 1658 2848 
z
M 2330 5114 
L 2330 4730 
L 5018 4730 
C 4762 4544 4442 4358 4134 4218 
C 3827 4352 3514 4480 3238 4576 
L 2938 4301 
C 3322 4160 3776 3962 4160 3770 
L 2323 3770 
L 2323 454 
L 2778 454 
L 2778 1517 
L 3859 1517 
L 3859 480 
L 4294 480 
L 4294 1517 
L 5408 1517 
L 5408 934 
C 5408 858 5382 832 5299 826 
C 5222 826 4954 826 4646 832 
C 4704 723 4762 563 4781 442 
C 5210 442 5485 442 5651 512 
C 5818 582 5869 698 5869 934 
L 5869 3770 
L 5056 3770 
C 4922 3846 4749 3936 4563 4026 
C 5037 4262 5523 4589 5869 4902 
L 5568 5133 
L 5472 5114 
L 2330 5114 
z
M 5408 3398 
L 5408 2835 
L 4294 2835 
L 4294 3398 
L 5408 3398 
z
M 2778 2477 
L 3859 2477 
L 3859 1894 
L 2778 1894 
L 2778 2477 
z
M 2778 2835 
L 2778 3398 
L 3859 3398 
L 3859 2835 
L 2778 2835 
z
M 5408 2477 
L 5408 1894 
L 4294 1894 
L 4294 2477 
L 5408 2477 
z
" transform="scale(0.015625)"/>
      <path id="NotoSansCJKjp-Regular-4fe1" d="M 2592 5075 
L 2592 4678 
L 5549 4678 
L 5549 5075 
L 2592 5075 
z
M 2515 3296 
L 2515 2899 
L 5664 2899 
L 5664 3296 
L 2515 3296 
z
M 2515 2406 
L 2515 2010 
L 5651 2010 
L 5651 2406 
L 2515 2406 
z
M 1990 4186 
L 1990 3782 
L 6157 3782 
L 6157 4186 
L 1990 4186 
z
M 2451 1517 
L 2451 -512 
L 2912 -512 
L 2912 -211 
L 5242 -211 
L 5242 -493 
L 5722 -493 
L 5722 1517 
L 2451 1517 
z
M 2912 192 
L 2912 1126 
L 5242 1126 
L 5242 192 
L 2912 192 
z
M 1773 5357 
C 1395 4390 774 3437 128 2822 
C 211 2714 346 2458 397 2349 
C 640 2592 877 2880 1107 3194 
L 1107 -493 
L 1568 -493 
L 1568 3898 
C 1818 4320 2042 4768 2221 5216 
L 1773 5357 
z
" transform="scale(0.015625)"/>
      <path id="NotoSansCJKjp-Regular-9f50" d="M 4333 2214 
L 4333 -506 
L 4826 -506 
L 4826 2214 
L 4333 2214 
z
M 1664 2214 
L 1664 1510 
C 1664 928 1555 275 563 -211 
C 691 -288 890 -442 979 -544 
C 2035 6 2157 781 2157 1498 
L 2157 2214 
L 1664 2214 
z
M 4358 4352 
C 4090 3936 3712 3597 3251 3322 
C 2746 3603 2330 3949 2016 4352 
L 4358 4352 
z
M 2925 5382 
L 2925 4762 
L 378 4762 
L 378 4352 
L 1510 4352 
C 1843 3846 2278 3430 2803 3091 
C 2080 2758 1203 2547 250 2419 
C 346 2310 480 2099 531 1984 
C 1542 2157 2483 2413 3264 2822 
C 4006 2432 4896 2176 5894 2042 
C 5958 2176 6080 2374 6182 2477 
C 5261 2579 4429 2784 3725 3091 
C 4218 3424 4634 3834 4928 4352 
L 6035 4352 
L 6035 4762 
L 3443 4762 
L 3443 5382 
L 2925 5382 
z
" transform="scale(0.015625)"/>
      <path id="NotoSansCJKjp-Regular-7684" d="M 3533 2707 
C 3885 2240 4320 1600 4512 1210 
L 4922 1466 
C 4710 1843 4269 2464 3904 2918 
L 3533 2707 
z
M 1536 5389 
C 1485 5082 1376 4659 1274 4346 
L 557 4346 
L 557 -346 
L 998 -346 
L 998 160 
L 2784 160 
L 2784 4346 
L 1715 4346 
C 1824 4621 1946 4979 2054 5299 
L 1536 5389 
z
M 998 3917 
L 2342 3917 
L 2342 2566 
L 998 2566 
L 998 3917 
z
M 998 595 
L 998 2144 
L 2342 2144 
L 2342 595 
L 998 595 
z
M 3827 5402 
C 3622 4518 3277 3635 2835 3066 
C 2950 3002 3149 2867 3238 2790 
C 3456 3098 3661 3488 3840 3923 
L 5478 3923 
C 5402 1357 5299 371 5094 154 
C 5018 64 4947 45 4819 45 
C 4672 45 4288 51 3866 83 
C 3955 -38 4013 -243 4026 -378 
C 4384 -397 4762 -410 4979 -390 
C 5210 -365 5350 -314 5498 -122 
C 5754 192 5843 1184 5939 4122 
C 5946 4186 5946 4365 5946 4365 
L 4013 4365 
C 4115 4666 4211 4986 4288 5299 
L 3827 5402 
z
" transform="scale(0.015625)"/>
      <path id="NotoSansCJKjp-Regular-98de" d="M 5523 4512 
C 5210 4128 4717 3648 4269 3277 
C 4237 3802 4224 4378 4218 4998 
L 429 4998 
L 429 4499 
L 3738 4499 
C 3808 1523 4122 -326 5478 -333 
C 5933 -326 6086 -13 6150 998 
C 6035 1050 5888 1171 5773 1280 
C 5747 563 5683 166 5498 160 
C 4813 160 4474 1107 4320 2624 
C 4870 2317 5466 1933 5779 1651 
L 6035 2035 
C 5709 2310 5094 2688 4544 2982 
C 5018 3347 5549 3840 5965 4275 
L 5523 4512 
z
" transform="scale(0.015625)"/>
      <path id="NotoSansCJKjp-Regular-884c" d="M 2784 4992 
L 2784 4531 
L 5933 4531 
L 5933 4992 
L 2784 4992 
z
M 1709 5382 
C 1382 4915 762 4346 224 3981 
C 307 3891 442 3706 506 3597 
C 1082 4006 1741 4634 2170 5190 
L 1709 5382 
z
M 2502 3226 
L 2502 2765 
L 4659 2765 
L 4659 109 
C 4659 6 4614 -26 4493 -32 
C 4378 -38 3942 -38 3488 -19 
C 3558 -160 3629 -358 3648 -493 
C 4275 -493 4640 -493 4858 -422 
C 5069 -339 5146 -192 5146 102 
L 5146 2765 
L 6112 2765 
L 6112 3226 
L 2502 3226 
z
M 1965 4006 
C 1523 3277 819 2534 160 2061 
C 256 1965 429 1754 499 1658 
C 736 1850 986 2080 1229 2330 
L 1229 -531 
L 1702 -531 
L 1702 2854 
C 1971 3174 2214 3507 2419 3840 
L 1965 4006 
z
" transform="scale(0.015625)"/>
      <path id="NotoSansCJKjp-Regular-5256" d="M 4019 4634 
L 4019 1082 
L 4474 1082 
L 4474 4634 
L 4019 4634 
z
M 5402 5254 
L 5402 115 
C 5402 0 5363 -32 5248 -38 
C 5139 -45 4768 -45 4365 -32 
C 4435 -166 4506 -384 4531 -512 
C 5075 -518 5402 -506 5600 -422 
C 5792 -346 5869 -198 5869 115 
L 5869 5254 
L 5402 5254 
z
M 890 4026 
C 1024 3674 1146 3213 1178 2906 
L 1600 3008 
C 1562 3302 1440 3757 1299 4109 
L 890 4026 
z
M 1766 5318 
L 1766 4602 
L 435 4602 
L 435 4166 
L 3590 4166 
L 3590 4602 
L 2240 4602 
L 2240 5318 
L 1766 5318 
z
M 2746 4147 
C 2669 3802 2509 3296 2368 2982 
L 2765 2880 
L 256 2880 
L 256 2438 
L 3750 2438 
L 3750 2880 
L 2790 2880 
C 2925 3174 3085 3629 3232 4026 
L 2746 4147 
z
M 704 1862 
L 704 -467 
L 1152 -467 
L 1152 -166 
L 2842 -166 
L 2842 -422 
L 3309 -422 
L 3309 1862 
L 704 1862 
z
M 1152 269 
L 1152 1440 
L 2842 1440 
L 2842 269 
L 1152 269 
z
" transform="scale(0.015625)"/>
      <path id="NotoSansCJKjp-Regular-9762" d="M 2490 2138 
L 3846 2138 
L 3846 1414 
L 2490 1414 
L 2490 2138 
z
M 2490 2528 
L 2490 3238 
L 3846 3238 
L 3846 2528 
L 2490 2528 
z
M 2490 1024 
L 3846 1024 
L 3846 275 
L 2490 275 
L 2490 1024 
z
M 371 4954 
L 371 4493 
L 2842 4493 
C 2797 4230 2726 3930 2662 3686 
L 666 3686 
L 666 -512 
L 1126 -512 
L 1126 -173 
L 5248 -173 
L 5248 -512 
L 5734 -512 
L 5734 3686 
L 3155 3686 
L 3405 4493 
L 6048 4493 
L 6048 4954 
L 371 4954 
z
M 1126 275 
L 1126 3238 
L 2048 3238 
L 2048 275 
L 1126 275 
z
M 5248 275 
L 4288 275 
L 4288 3238 
L 5248 3238 
L 5248 275 
z
" transform="scale(0.015625)"/>
     </defs>
     <use xlink:href="#NotoSansCJKjp-Regular-51"/>
     <use xlink:href="#NotoSansCJKjp-Regular-33" transform="translate(74.199982 0)"/>
     <use xlink:href="#NotoSansCJKjp-Regular-2d" transform="translate(129.699966 0)"/>
     <use xlink:href="#NotoSansCJKjp-Regular-54" transform="translate(164.399963 0)"/>
     <use xlink:href="#NotoSansCJKjp-Regular-2d" transform="translate(224.299957 0)"/>
     <use xlink:href="#NotoSansCJKjp-Regular-30" transform="translate(258.999954 0)"/>
     <use xlink:href="#NotoSansCJKjp-Regular-31" transform="translate(314.499939 0)"/>
     <use xlink:href="#NotoSansCJKjp-Regular-36" transform="translate(369.999924 0)"/>
     <use xlink:href="#NotoSansCJKjp-Regular-ff1a" transform="translate(425.499908 0)"/>
     <use xlink:href="#NotoSansCJKjp-Regular-4e0e" transform="translate(525.499893 0)"/>
     <use xlink:href="#NotoSansCJKjp-Regular-80fd" transform="translate(625.499878 0)"/>
     <use xlink:href="#NotoSansCJKjp-Regular-6e90" transform="translate(725.499863 0)"/>
     <use xlink:href="#NotoSansCJKjp-Regular-3001" transform="translate(825.499847 0)"/>
     <use xlink:href="#NotoSansCJKjp-Regular-901a" transform="translate(925.499832 0)"/>
     <use xlink:href="#NotoSansCJKjp-Regular-4fe1" transform="translate(1025.499817 0)"/>
     <use xlink:href="#NotoSansCJKjp-Regular-5bf9" transform="translate(1125.499802 0)"/>
     <use xlink:href="#NotoSansCJKjp-Regular-9f50" transform="translate(1225.499786 0)"/>
     <use xlink:href="#NotoSansCJKjp-Regular-7684" transform="translate(1325.499771 0)"/>
     <use xlink:href="#NotoSansCJKjp-Regular-98de" transform="translate(1425.499756 0)"/>
     <use xlink:href="#NotoSansCJKjp-Regular-884c" transform="translate(1525.499741 0)"/>
     <use xlink:href="#NotoSansCJKjp-Regular-5256" transform="translate(1625.499725 0)"/>
     <use xlink:href="#NotoSansCJKjp-Regular-9762" transform="translate(1725.49971 0)"/>
    </g>
   </g>
   <g id="legend_1">
    <g id="line2d_25">
     <path d="M 79.272 45.4075 
L 86.872 45.4075 
L 94.472 45.4075 
" style="fill: none; stroke: #466c96; stroke-width: 2; stroke-linecap: square"/>
    </g>
    <g id="text_16">
     <!-- 爬升 -->
     <g style="fill: #253342" transform="translate(100.872 48.2075) scale(0.08 -0.08)">
      <defs>
       <path id="NotoSansCJKjp-Regular-722c" d="M 1664 4365 
L 1664 -269 
L 2054 -269 
L 2054 4365 
L 1664 4365 
z
M 691 4883 
L 691 2643 
C 691 1766 653 621 237 -237 
C 352 -288 518 -435 576 -531 
C 1050 416 1114 1722 1114 2637 
L 1114 4422 
C 1587 4518 2093 4634 2560 4774 
C 2528 1344 2854 -141 5952 -525 
C 5990 -397 6099 -192 6189 -90 
C 3162 211 2938 1638 2976 4902 
C 3117 4954 3251 5005 3379 5056 
L 3008 5357 
C 2560 5152 1779 4934 1056 4768 
L 691 4883 
z
M 4538 4454 
L 4538 3091 
L 3942 3091 
L 3942 4454 
L 4538 4454 
z
M 4909 4454 
L 5510 4454 
L 5510 3091 
L 4909 3091 
L 4909 4454 
z
M 3520 4858 
L 3520 1581 
C 3520 1011 3686 870 4269 870 
C 4397 870 5293 870 5427 870 
C 5933 870 6067 1101 6125 1856 
C 6003 1882 5824 1952 5722 2029 
C 5696 1414 5651 1293 5402 1293 
C 5210 1293 4448 1293 4307 1293 
C 3994 1293 3942 1344 3942 1587 
L 3942 2688 
L 5926 2688 
L 5926 4858 
L 3520 4858 
z
" transform="scale(0.015625)"/>
       <path id="NotoSansCJKjp-Regular-5347" d="M 3174 5280 
C 2534 4896 1395 4538 384 4301 
C 448 4198 525 4026 550 3910 
C 947 4000 1363 4102 1773 4224 
L 1773 2797 
L 320 2797 
L 320 2330 
L 1766 2330 
C 1715 1408 1453 506 256 -160 
C 371 -243 538 -410 608 -525 
C 1914 224 2202 1267 2253 2330 
L 4211 2330 
L 4211 -512 
L 4698 -512 
L 4698 2330 
L 6086 2330 
L 6086 2797 
L 4698 2797 
L 4698 5254 
L 4211 5254 
L 4211 2797 
L 2259 2797 
L 2259 4371 
C 2733 4525 3174 4698 3533 4890 
L 3174 5280 
z
" transform="scale(0.015625)"/>
      </defs>
      <use xlink:href="#NotoSansCJKjp-Regular-722c"/>
      <use xlink:href="#NotoSansCJKjp-Regular-5347" transform="translate(99.999985 0)"/>
     </g>
    </g>
    <g id="line2d_26">
     <path d="M 125.672 45.4075 
L 133.272 45.4075 
L 140.872 45.4075 
" style="fill: none; stroke: #509c9c; stroke-width: 2; stroke-linecap: square"/>
    </g>
    <g id="text_17">
     <!-- 巡航 -->
     <g style="fill: #253342" transform="translate(147.272 48.2075) scale(0.08 -0.08)">
      <defs>
       <path id="NotoSansCJKjp-Regular-5de1" d="M 358 4947 
C 749 4640 1184 4186 1370 3866 
L 1760 4166 
C 1568 4480 1114 4922 723 5216 
L 358 4947 
z
M 2739 5242 
C 2566 4672 2202 3725 1875 3008 
C 2342 2150 2765 1146 2938 512 
L 3392 710 
C 3213 1280 2765 2240 2349 3008 
C 2637 3667 2982 4461 3200 5133 
L 2739 5242 
z
M 4045 5242 
C 3853 4672 3450 3731 3091 3014 
C 3590 2163 4058 1152 4243 531 
L 4704 723 
C 4499 1293 4019 2253 3565 3014 
C 3885 3674 4262 4454 4493 5126 
L 4045 5242 
z
M 5421 5242 
C 5210 4672 4768 3725 4378 3008 
C 4915 2150 5421 1146 5632 512 
L 6086 717 
C 5869 1286 5344 2253 4864 3014 
C 5210 3661 5626 4448 5882 5120 
L 5421 5242 
z
M 1574 2848 
L 294 2848 
L 294 2400 
L 1107 2400 
L 1107 742 
C 819 474 499 205 230 13 
L 480 -461 
C 794 -179 1088 96 1370 371 
C 1773 -134 2355 -358 3200 -390 
C 3917 -416 5286 -403 6003 -378 
C 6022 -230 6099 -13 6157 96 
C 5382 45 3904 26 3194 58 
C 2438 90 1875 307 1574 781 
L 1574 2848 
z
" transform="scale(0.015625)"/>
       <path id="NotoSansCJKjp-Regular-822a" d="M 1446 2003 
L 1446 474 
L 1766 474 
L 1766 2003 
L 1446 2003 
z
M 1293 3718 
C 1459 3443 1606 3072 1658 2829 
L 1984 2970 
C 1933 3213 1773 3578 1600 3840 
L 1293 3718 
z
M 2810 4358 
L 2810 3923 
L 6131 3923 
L 6131 4358 
L 4666 4358 
L 4666 5363 
L 4198 5363 
L 4198 4358 
L 2810 4358 
z
M 3366 3226 
L 3366 1805 
C 3366 1158 3296 352 2714 -237 
C 2822 -282 3008 -429 3085 -506 
C 3712 115 3821 1075 3821 1798 
L 3821 2803 
L 4890 2803 
L 4890 346 
C 4890 -90 4922 -205 5018 -288 
C 5107 -371 5242 -403 5370 -403 
C 5434 -403 5587 -403 5670 -403 
C 5786 -403 5901 -384 5978 -326 
C 6061 -275 6112 -192 6144 -58 
C 6176 70 6195 429 6202 723 
C 6086 755 5952 832 5862 902 
C 5856 582 5850 339 5837 218 
C 5824 115 5805 58 5779 38 
C 5754 13 5696 6 5645 6 
C 5600 6 5517 6 5485 6 
C 5434 6 5402 13 5382 38 
C 5357 58 5350 154 5350 314 
L 5350 3226 
L 3366 3226 
z
M 2202 4115 
L 2202 2611 
L 1094 2534 
L 1094 4115 
L 2202 4115 
z
M 1478 5382 
C 1434 5126 1338 4774 1248 4506 
L 704 4506 
L 704 2509 
L 243 2483 
L 294 2074 
L 704 2106 
C 704 1338 653 384 224 -294 
C 326 -333 499 -442 570 -512 
C 1024 205 1094 1312 1094 2138 
L 2202 2221 
L 2202 0 
C 2202 -83 2176 -109 2093 -109 
C 2022 -115 1779 -115 1504 -109 
C 1555 -211 1619 -390 1638 -499 
C 2022 -499 2259 -493 2406 -422 
C 2554 -352 2605 -230 2605 -6 
L 2605 2253 
L 2982 2278 
L 2976 2669 
L 2605 2643 
L 2605 4506 
L 1709 4506 
L 1990 5280 
L 1478 5382 
z
" transform="scale(0.015625)"/>
      </defs>
      <use xlink:href="#NotoSansCJKjp-Regular-5de1"/>
      <use xlink:href="#NotoSansCJKjp-Regular-822a" transform="translate(99.999985 0)"/>
     </g>
    </g>
    <g id="line2d_27">
     <path d="M 172.072 45.4075 
L 179.672 45.4075 
L 187.272 45.4075 
" style="fill: none; stroke: #d5a25a; stroke-width: 2; stroke-linecap: square"/>
    </g>
    <g id="text_18">
     <!-- 下降 -->
     <g style="fill: #253342" transform="translate(193.672 48.2075) scale(0.08 -0.08)">
      <defs>
       <path id="NotoSansCJKjp-Regular-4e0b" d="M 352 4902 
L 352 4422 
L 2822 4422 
L 2822 -506 
L 3328 -506 
L 3328 2886 
C 4064 2490 4922 1958 5370 1600 
L 5709 2035 
C 5197 2426 4179 3002 3418 3373 
L 3328 3270 
L 3328 4422 
L 6054 4422 
L 6054 4902 
L 352 4902 
z
" transform="scale(0.015625)"/>
       <path id="NotoSansCJKjp-Regular-964d" d="M 4390 1734 
L 4390 877 
L 3533 877 
L 3533 1734 
L 4390 1734 
z
M 4390 2656 
L 4390 2138 
L 2643 2138 
L 2643 1734 
L 3104 1734 
L 3104 877 
L 2323 877 
L 2323 454 
L 4390 454 
L 4390 -512 
L 4851 -512 
L 4851 454 
L 6067 454 
L 6067 877 
L 4851 877 
L 4851 1734 
L 5882 1734 
L 5882 2138 
L 4851 2138 
L 4851 2656 
L 4390 2656 
z
M 518 5101 
L 518 -512 
L 947 -512 
L 947 4666 
L 1786 4666 
C 1651 4230 1459 3648 1274 3181 
C 1734 2682 1856 2253 1856 1901 
C 1856 1709 1818 1536 1722 1466 
C 1670 1427 1600 1414 1517 1408 
C 1414 1402 1293 1408 1146 1414 
C 1216 1293 1261 1107 1267 992 
C 1408 986 1568 992 1696 1005 
C 1830 1018 1939 1056 2029 1120 
C 2208 1242 2285 1510 2285 1856 
C 2285 2253 2176 2707 1709 3238 
C 1926 3750 2163 4403 2349 4934 
L 2035 5120 
L 1965 5101 
L 518 5101 
z
M 5056 4429 
C 4870 4096 4614 3808 4314 3558 
C 4026 3795 3789 4077 3616 4378 
L 3654 4429 
L 5056 4429 
z
M 3763 5382 
C 3514 4864 3034 4250 2323 3802 
C 2426 3738 2573 3590 2637 3494 
C 2899 3674 3130 3866 3334 4070 
C 3507 3789 3725 3526 3968 3302 
C 3475 2970 2899 2733 2317 2598 
C 2406 2502 2515 2330 2566 2214 
C 3187 2381 3795 2643 4320 3021 
C 4781 2688 5325 2451 5933 2310 
C 5997 2432 6125 2611 6221 2701 
C 5638 2810 5114 3014 4672 3296 
C 5101 3674 5453 4134 5677 4698 
L 5376 4838 
L 5293 4819 
L 3942 4819 
C 4051 4979 4141 5146 4224 5306 
L 3763 5382 
z
" transform="scale(0.015625)"/>
      </defs>
      <use xlink:href="#NotoSansCJKjp-Regular-4e0b"/>
      <use xlink:href="#NotoSansCJKjp-Regular-964d" transform="translate(99.999985 0)"/>
     </g>
    </g>
    <g id="line2d_28">
     <path d="M 218.472 45.4075 
L 226.072 45.4075 
L 233.672 45.4075 
" style="fill: none; stroke: #877caa; stroke-width: 2; stroke-linecap: square"/>
    </g>
    <g id="text_19">
     <!-- 投送交接 -->
     <g style="fill: #253342" transform="translate(240.072 48.2075) scale(0.08 -0.08)">
      <defs>
       <path id="NotoSansCJKjp-Regular-6295" d="M 3059 5120 
L 3059 4480 
C 3059 4032 2950 3488 2317 3085 
C 2406 3021 2579 2835 2637 2739 
C 3347 3206 3514 3904 3514 4467 
L 3514 4672 
L 4717 4672 
L 4717 3584 
C 4717 3130 4826 3008 5235 3008 
C 5318 3008 5619 3008 5709 3008 
C 6067 3008 6182 3206 6221 3994 
C 6099 4026 5907 4096 5811 4173 
C 5798 3514 5779 3418 5658 3418 
C 5594 3418 5357 3418 5306 3418 
C 5197 3418 5171 3443 5171 3584 
L 5171 5120 
L 3059 5120 
z
M 5126 2170 
C 4909 1677 4589 1261 4198 922 
C 3821 1267 3526 1690 3334 2170 
L 5126 2170 
z
M 2675 2605 
L 2675 2170 
L 3238 2170 
L 2886 2061 
C 3110 1504 3424 1024 3814 634 
C 3309 288 2714 51 2099 -90 
C 2189 -192 2304 -390 2355 -518 
C 3014 -346 3642 -77 4179 307 
C 4659 -70 5242 -346 5920 -512 
C 5990 -384 6131 -186 6240 -83 
C 5594 58 5037 294 4570 621 
C 5101 1094 5510 1709 5754 2496 
L 5446 2624 
L 5357 2605 
L 2675 2605 
z
M 1222 5376 
L 1222 4109 
L 288 4109 
L 288 3661 
L 1222 3661 
L 1222 2234 
C 838 2118 480 2010 205 1939 
L 365 1446 
L 1222 1741 
L 1222 51 
C 1222 -38 1184 -64 1101 -70 
C 1018 -70 749 -70 461 -64 
C 525 -192 589 -390 608 -506 
C 1037 -512 1299 -493 1466 -422 
C 1632 -346 1696 -218 1696 58 
L 1696 1907 
L 2413 2157 
L 2349 2573 
L 1696 2374 
L 1696 3661 
L 2413 3661 
L 2413 4109 
L 1696 4109 
L 1696 5376 
L 1222 5376 
z
" transform="scale(0.015625)"/>
       <path id="NotoSansCJKjp-Regular-9001" d="M 384 4934 
C 794 4646 1274 4218 1478 3904 
L 1862 4224 
C 1638 4531 1158 4947 730 5222 
L 384 4934 
z
M 2496 5190 
C 2733 4870 2970 4442 3053 4154 
L 2246 4154 
L 2246 3725 
L 3757 3725 
L 3757 3008 
L 3750 2835 
L 2035 2835 
L 2035 2400 
L 3699 2400 
C 3578 1843 3206 1229 2080 774 
C 2195 691 2342 525 2400 422 
C 3430 883 3891 1472 4090 2048 
C 4403 1235 4947 685 5779 397 
C 5850 525 5978 704 6086 800 
C 5229 1050 4685 1594 4410 2400 
L 6074 2400 
L 6074 2835 
L 4224 2835 
L 4230 3002 
L 4230 3725 
L 5882 3725 
L 5882 4154 
L 3104 4154 
L 3494 4333 
C 3405 4621 3162 5043 2899 5357 
L 2496 5190 
z
M 5043 5376 
C 4909 5056 4653 4595 4448 4301 
L 4838 4154 
C 5056 4422 5312 4845 5536 5216 
L 5043 5376 
z
M 1677 2848 
L 314 2848 
L 314 2400 
L 1210 2400 
L 1210 768 
C 890 499 518 230 230 32 
L 480 -461 
C 826 -173 1152 102 1459 378 
C 1869 -128 2445 -358 3283 -390 
C 3994 -416 5318 -403 6016 -371 
C 6035 -224 6118 6 6176 115 
C 5414 64 3981 45 3283 77 
C 2541 102 1978 326 1677 794 
L 1677 2848 
z
" transform="scale(0.015625)"/>
       <path id="NotoSansCJKjp-Regular-4ea4" d="M 2035 3878 
C 1645 3328 973 2803 346 2470 
C 461 2374 653 2189 736 2086 
C 1357 2470 2074 3078 2528 3693 
L 2035 3878 
z
M 3955 3610 
C 4570 3187 5312 2566 5651 2144 
L 6074 2483 
C 5702 2906 4954 3501 4346 3898 
L 3955 3610 
z
M 2298 2739 
L 1843 2598 
C 2093 1978 2426 1446 2842 1005 
C 2170 480 1299 141 256 -77 
C 352 -192 506 -416 563 -538 
C 1606 -275 2496 102 3200 666 
C 3885 83 4762 -307 5850 -512 
C 5920 -378 6061 -166 6170 -58 
C 5107 115 4243 474 3578 998 
C 4019 1440 4378 1978 4634 2630 
L 4128 2778 
C 3917 2195 3610 1722 3213 1325 
C 2816 1722 2509 2195 2298 2739 
z
M 2944 5382 
L 2944 4544 
L 390 4544 
L 390 4070 
L 6010 4070 
L 6010 4544 
L 3430 4544 
L 3430 5382 
L 2944 5382 
z
" transform="scale(0.015625)"/>
       <path id="NotoSansCJKjp-Regular-63a5" d="M 1152 5370 
L 1152 4083 
L 282 4083 
L 282 3635 
L 1152 3635 
L 1152 2240 
L 173 1971 
L 288 1504 
L 1152 1766 
L 1152 70 
C 1152 -19 1120 -51 1037 -51 
C 954 -51 691 -51 397 -45 
C 461 -179 525 -384 544 -506 
C 966 -512 1222 -493 1389 -416 
C 1555 -339 1613 -198 1613 77 
L 1613 1914 
L 2176 2086 
L 2176 1722 
L 3123 1722 
C 2938 1331 2752 954 2592 672 
L 3014 531 
L 3110 704 
C 3373 621 3648 518 3923 403 
C 3475 134 2854 -26 2016 -109 
C 2093 -205 2170 -378 2208 -506 
C 3187 -378 3898 -160 4397 198 
C 4915 -32 5382 -288 5690 -518 
L 5990 -154 
C 5690 64 5242 301 4755 518 
C 5043 832 5229 1229 5344 1722 
L 6112 1722 
L 6112 2144 
L 3827 2144 
L 4115 2771 
L 6138 2771 
L 6138 3194 
L 4966 3194 
C 5101 3482 5248 3885 5376 4250 
L 5184 4275 
L 5952 4275 
L 5952 4698 
L 4397 4698 
L 4397 5376 
L 3917 5376 
L 3917 4698 
L 2394 4698 
L 2394 4275 
L 3290 4275 
L 3002 4218 
C 3123 3898 3226 3475 3258 3194 
L 2138 3194 
L 2138 2771 
L 3597 2771 
L 3322 2144 
L 2291 2144 
L 2234 2554 
L 1613 2374 
L 1613 3635 
L 2234 3635 
L 2234 4083 
L 1613 4083 
L 1613 5370 
L 1152 5370 
z
M 3430 4275 
L 4890 4275 
C 4806 3955 4659 3507 4538 3219 
L 4685 3194 
L 3526 3194 
L 3706 3238 
C 3680 3501 3558 3936 3430 4275 
z
M 3622 1722 
L 4858 1722 
C 4749 1306 4576 966 4314 704 
C 3968 845 3622 966 3296 1062 
L 3622 1722 
z
" transform="scale(0.015625)"/>
      </defs>
      <use xlink:href="#NotoSansCJKjp-Regular-6295"/>
      <use xlink:href="#NotoSansCJKjp-Regular-9001" transform="translate(99.999985 0)"/>
      <use xlink:href="#NotoSansCJKjp-Regular-4ea4" transform="translate(199.999969 0)"/>
      <use xlink:href="#NotoSansCJKjp-Regular-63a5" transform="translate(299.999954 0)"/>
     </g>
    </g>
   </g>
  </g>
 </g>
 <defs>
  <clipPath id="p0b9d1aef66">
   <rect x="72.072" y="58.32" width="476.784" height="108"/>
  </clipPath>
 </defs>
</svg>
